<svg xmlns="http://www.w3.org/2000/svg" viewBox="0 0 104.667 75">
  <defs>
    <style>
      .cls-1 {
        fill: #fff;
      }
    </style>
  </defs>
  <g id="Group_1414" data-name="Group 1414" transform="translate(-409.833 -3245)">
    <g id="if_commerical-building_103266" transform="translate(433.25 2280.138)">
      <path id="path9260" class="cls-1" d="M22.917,964.862a4.158,4.158,0,0,0-4.167,4.167V1035.7a4.481,4.481,0,0,0,4.167,4.167H43.75v-12.5a4.395,4.395,0,0,1,4.167-4.167h4.167a4.395,4.395,0,0,1,4.167,4.167v12.5H77.083a4.481,4.481,0,0,0,4.167-4.167V969.029a4.158,4.158,0,0,0-4.167-4.167Zm8.333,12.5h12.5V985.7H31.25Zm25,0h12.5V985.7H56.25Zm-25,25h12.5v8.333H31.25Zm25,0h12.5v8.333H56.25Z"/>
    </g>
    <g id="if_commerical-building_103266-2" data-name="if_commerical-building_103266" transform="translate(391.083 2311.138)">
      <path id="path9260-2" data-name="path9260" class="cls-1" d="M21.194,964.862a2.439,2.439,0,0,0-2.444,2.444v39.111a2.629,2.629,0,0,0,2.444,2.444H33.417v-7.333a2.578,2.578,0,0,1,2.444-2.444h2.444a2.578,2.578,0,0,1,2.444,2.444v7.333H52.972a2.629,2.629,0,0,0,2.444-2.444V967.307a2.439,2.439,0,0,0-2.444-2.444Zm4.889,7.333h7.333v4.889H26.083Zm14.667,0h7.333v4.889H40.75ZM26.083,986.862h7.333v4.889H26.083Zm14.667,0h7.333v4.889H40.75Z"/>
    </g>
  </g>
</svg>
