<svg xmlns="http://www.w3.org/2000/svg" viewBox="0 0 87.477 75">
  <defs>
    <style>
      .cls-1 {
        fill: #fff;
      }
    </style>
  </defs>
  <g id="if_icon-person-stalker_211873" transform="translate(-32 -63.9)">
    <path id="Path_6481" data-name="Path 6481" class="cls-1" d="M321.75,159.024c-8.084-3.066-7.6-1.835-7.6-7.518,0-3.671,1.816-2.324,2.968-9.314.449-2.753.82-.918,1.777-5.331.508-2.3-.351-2.48-.234-3.573.1-1.093.2-2.089.391-4.335.234-2.812-2.265-10.154-11.208-10.154s-11.442,7.342-11.208,10.154c.176,2.265.293,3.241.391,4.335s-.742,1.269-.234,3.573c.957,4.413,1.328,2.558,1.777,5.331,1.152,6.99,2.948,5.663,2.948,9.314,0,2.617.605,3.71-2.909,5.37,1.054.371,2.285.82,3.769,1.386,10.622,4.042,10.368,7.967,10.642,9.822.2,1.269.293,11.384.332,15h19.077s0-15.719-.293-17.554C331.923,164.081,329.99,162.168,321.75,159.024Z" transform="translate(-212.953 -44.18)"/>
    <path id="Path_6482" data-name="Path 6482" class="cls-1" d="M95.46,138.9s0-2.753-.039-5.936c-.039-3.632-.137-7.81-.332-9.06-.293-1.855-2.792-4.335-13.395-8.377-1.464-.547-2.695-1-3.769-1.386-6.5-2.3-6.034-3.066-6.034-9.373,0-4.745,2.343-1.66,3.827-10.661.586-3.554,1.054-1.191,2.285-6.873.664-2.968-.449-3.2-.312-4.628s.273-2.695.508-5.6c.312-3.612-2.909-13.1-14.469-13.1S48.968,73.37,49.261,77c.234,2.909.371,4.179.527,5.6.137,1.425-.976,1.64-.312,4.628,1.25,5.682,1.718,3.319,2.3,6.873,1.484,9,3.808,5.916,3.808,10.661,0,7.342.644,6.8-9.8,10.759-10.6,4.042-13.1,6.522-13.395,8.377-.391,2.363-.391,15-.391,15H95.46Z"/>
  </g>
</svg>
