<svg xmlns="http://www.w3.org/2000/svg" viewBox="3225.445 24.283 15.932 18.208">
  <defs>
    <style>
      .cls-1 {
        fill: #fff;
        fill-rule: evenodd;
      }
    </style>
  </defs>
  <g id="Group_85" data-name="Group 85" transform="translate(3225.445 24.283)">
    <path id="Path_63" data-name="Path 63" class="cls-1" d="M11.38,91.806v1.7a1.081,1.081,0,0,0,.437.765,5.64,5.64,0,0,1,1.839,4.161,5.69,5.69,0,0,1-11.38,0,5.64,5.64,0,0,1,1.839-4.161,1.046,1.046,0,0,0,.437-.747V91.806c0-.313-.231-.462-.5-.306a7.966,7.966,0,1,0,7.838,0C11.611,91.344,11.38,91.493,11.38,91.806Z" transform="translate(0 -88.186)"/>
    <path id="Path_64" data-name="Path 64" class="cls-1" d="M193.138,7.966a1.137,1.137,0,0,0,1.138-1.138V1.138a1.138,1.138,0,0,0-2.276,0v5.69A1.137,1.137,0,0,0,193.138,7.966Z" transform="translate(-185.172)"/>
  </g>
</svg>
