<svg xmlns="http://www.w3.org/2000/svg" viewBox="5657 452 23 23">
  <defs>
    <style>
      .cls-1 {
        fill: #bcbccb;
      }
    </style>
  </defs>
  <g id="Search_Input" data-name="Search Input" transform="translate(5597 420)">
    <path id="Search_Icon" data-name="Search Icon" class="cls-1" d="M18.256,16.143a9.741,9.741,0,0,0,2.012-6A10.091,10.091,0,0,0,10.206,0,10.214,10.214,0,0,0,0,10.143,10.214,10.214,0,0,0,10.206,20.286a9.583,9.583,0,0,0,6.037-2l4.313,4.286a1.4,1.4,0,0,0,2.012,0,1.375,1.375,0,0,0,0-2Zm-8.05,1.143a7.219,7.219,0,0,1-7.331-7.143,7.331,7.331,0,0,1,14.663,0A7.219,7.219,0,0,1,10.206,17.286Z" transform="translate(60 32)"/>
  </g>
</svg>
