<?xml version="1.0" encoding="utf-8"?>
<!-- Generator: Adobe Illustrator 22.0.0, SVG Export Plug-In . SVG Version: 6.00 Build 0)  -->
<svg version="1.1" id="图层_1" xmlns="http://www.w3.org/2000/svg" xmlns:xlink="http://www.w3.org/1999/xlink" x="0px" y="0px"
	 viewBox="0 0 11.1 11.1" style="enable-background:new 0 0 11.1 11.1;" xml:space="preserve">
<style type="text/css">
	.st0{fill:#3D3D3D;}
</style>
<g id="if_10_171505_1_" transform="translate(3100.245 123)">
	<path id="Path_332" class="st0" d="M-3091.3-117.5c0-0.2-0.2-0.4-0.4-0.4c0,0,0,0,0,0h-2.6v-2.6l0,0c0-0.2-0.2-0.4-0.4-0.4
		c-0.2,0-0.4,0.2-0.4,0.4c0,0,0,0,0,0v3c0,0.2,0.2,0.4,0.4,0.4c0,0,0,0,0,0h3C-3091.5-117-3091.3-117.2-3091.3-117.5
		C-3091.3-117.5-3091.3-117.5-3091.3-117.5 M-3090-117.5c0,2.6-2.1,4.7-4.7,4.7c-2.6,0-4.7-2.1-4.7-4.7c0-2.6,2.1-4.7,4.7-4.7
		C-3092.1-122.2-3090-120.1-3090-117.5C-3090-117.5-3090-117.5-3090-117.5 M-3089.2-117.5c0-3.1-2.5-5.5-5.5-5.5s-5.5,2.5-5.5,5.5
		s2.5,5.5,5.5,5.5S-3089.2-114.4-3089.2-117.5L-3089.2-117.5"/>
</g>
</svg>
