<svg xmlns="http://www.w3.org/2000/svg" viewBox="3100.245 123 11.069 11.069">
  <defs>
    <style>
      .cls-1 {
        fill: #fff;
      }
    </style>
  </defs>
  <g id="if_10_171505_1_" data-name="if_10_171505 (1)" transform="translate(3100.245 123)">
    <path id="Path_332" data-name="Path 332" class="cls-1" d="M8.94,5.537a.421.421,0,0,0-.419-.424H5.959V2.555h0a.426.426,0,1,0-.851,0V5.535a.426.426,0,0,0,.426.426H8.521a.421.421,0,0,0,.418-.424m1.278,0A4.684,4.684,0,1,1,5.534.85a4.684,4.684,0,0,1,4.684,4.685m.85,0a5.534,5.534,0,1,0-5.534,5.534,5.534,5.534,0,0,0,5.534-5.534"/>
  </g>
</svg>
