<svg xmlns="http://www.w3.org/2000/svg" viewBox="0 0 335.87 236.838">
  <defs>
    <style>
      .cls-1 {
        fill: #fdd4a6;
      }

      .cls-2 {
        fill: #f1bd88;
      }

      .cls-3 {
        fill: #ce996a;
      }

      .cls-4 {
        fill: #feebca;
      }

      .cls-5 {
        fill: #5e6470;
      }

      .cls-6 {
        fill: #fff;
      }

      .cls-7 {
        fill: #41444c;
      }
    </style>
  </defs>
  <g id="Group_1408" data-name="Group 1408" transform="translate(0 0)">
    <g id="Group_1394" data-name="Group 1394" transform="translate(123.722 0)">
      <g id="Group_1392" data-name="Group 1392" transform="translate(15.271)">
        <path id="Path_6370" data-name="Path 6370" class="cls-1" d="M162.882,71.6s2.195-12.893,6.584-17.283a72.851,72.851,0,0,1,.274-7.407,17.334,17.334,0,0,1,3.475-7.133c1.463-2.012,3.841-4.481,4.3-7.041.549-3.383,2.652-17.374-1.829-25.787,0,0-3.109-5.212,2.652-6.95,0,0,9.053-.274,11.339,14.265,0,0,1.463,8.87,5.4,13.534.914-.457,1.737-.823,2.652-1.28,2.1-.823,8.961-3.292,10.424-3.566,0,0,5.578-1.646,6.767-1.28a11.28,11.28,0,0,0,2.286.091,5.761,5.761,0,0,1,5.121,4.206s1.463,2.652-1.829,5.944c0,0,3.2,1.646,4.024,4.664,0,0,1.372,3.658-2.743,6.767a7.1,7.1,0,0,1,4.115,5.4s.64,3.383-1.829,5.212a6.632,6.632,0,0,1,2.286,6.127s-1.28,3.566-4.572,4.389L214.73,66.2s-2.926,2.286-4.389,2.652l-7.59,4.3s-5.944,3.475-9.053,4.389c0,0-4.115,1.463-5.3,2.469,0,0-3.475,2.286-6.31,1.646,0,0,.823,3.383-3.566,6.218l1.92,38.863L152,113.115Z" transform="translate(-152 0)"/>
        <path id="Path_6371" data-name="Path 6371" class="cls-2" d="M198.492,51.343s2.56-14.357-6.492-17.466a9.436,9.436,0,0,0,3.749-2.378,5.323,5.323,0,0,0,3.383.457,14.315,14.315,0,0,1,3.658,5.669l1.006,2.56s-.091,2.56,1.28,3.383c0,0-4.755,1.372-3.841,5.578,0,0,.457,2.926,2.286,3.566a4.706,4.706,0,0,0-2.56,6.858A7.845,7.845,0,0,1,198.492,51.343Z" transform="translate(-155.423 -2.695)"/>
        <path id="Path_6372" data-name="Path 6372" class="cls-2" d="M216.88,25s-3.2,3.932-3.475,5.669c0,0-9.693,4.755-8.779,9.51l-1.92-1.92-.732-2.835L201.7,33.5a37.147,37.147,0,0,1,2.286,3.018s.64.914,1.189-.914c0,0,3.841-2.835,1.555-6.675,0,0,3.018,3.749,4.938.366A8.048,8.048,0,0,1,216.88,25Z" transform="translate(-156.253 -2.139)"/>
        <path id="Path_6373" data-name="Path 6373" class="cls-2" d="M227.14,28.875s.823,2.469-2.012,5.212l-4.023,4.755a9.44,9.44,0,0,1-5.029,2.835s-8.23,3.932-9.876,1.372c0,0,1.92,2.469,9.419-3.018,0,0,7.224-1.463,4.115-7.956,0,0-2.012-1.555,1.28-4.023,0,0,2.652-3.2,4.3-2.56A7.336,7.336,0,0,1,227.14,28.875Z" transform="translate(-156.638 -2.174)"/>
        <path id="Path_6374" data-name="Path 6374" class="cls-2" d="M228.867,40.6s.914,3.383-2.835,6.31l-6.675,4.115s-3.018,2.286-6.218,2.012c0,0-8.138.457-8.779.549,0,0-1.92-.366-2.378-3.475-.457-3.018.091-.091.091-.091s.549,4.3,7.133,1.1c0,0,5.761,1.555,6.035-1.189,0,0,2.378,1.372,3.109-.914C218.351,48.921,228.136,46,228.867,40.6Z" transform="translate(-156.261 -3.474)"/>
        <path id="Path_6375" data-name="Path 6375" class="cls-2" d="M230.147,53.3a5.923,5.923,0,0,1-2.012,5.3s-2.469,1.829-8.87,2.926a22.921,22.921,0,0,0-5.029,1.463s-9.693,3.2-12.436-1.555c0,0,4.206,4.572,11.888-1.646,0,0,1.189,1.372,7.864-.549C221.552,59.335,229.233,57.324,230.147,53.3Z" transform="translate(-156.261 -4.561)"/>
        <path id="Path_6376" data-name="Path 6376" class="cls-2" d="M205.673,65.023s.549,4.572,6.492,5.4c0,0,12.893-.091,16.277-5.029a7.384,7.384,0,0,1-3.841,4.389l-7.773,2.012s-3.383,2.469-4.389,2.56l-1.372.823c-1.1.64-2.286,1.372-3.383,2.012-1.463.823-2.926,1.737-4.481,2.56a44.014,44.014,0,0,1-4.664,2.286c-1.92.823-3.749,1.28-5.3,2.743a9.721,9.721,0,0,0-1.372,1.372,5.83,5.83,0,0,0-.732,1.28,10.361,10.361,0,0,0-.366,4.115c0,.732-.091,1.463-.091,2.1v4.389c0,1.737,0,3.475-.091,5.121-.091,1.829-.091,3.749-.183,5.578-.091,1.92-.183,3.749-.274,5.669-.091,1.829-.274,3.566-.457,5.4-.183,1.555-.366,3.109-.64,4.664a25.083,25.083,0,0,1-.823,3.566,5.783,5.783,0,0,1-1.1,2.1l-.274.274-4.206,1.92-3.475-3.018s1.1-38.772-1.555-57.609c0,0,1.555,15.088,13.442,10.333,0,0,17.831-9.51,10.333-17.831Z" transform="translate(-154.191 -5.493)"/>
        <path id="Path_6377" data-name="Path 6377" class="cls-2" d="M197.8,53.2s-3.475,16.643-13.9,17.923c0,0,7.5.549,13.259-8.321,0,0,1.92-3.018,5.487,1.646l-.549-1.1-.274-.64s-2.926-1.463-2.286-5.578Z" transform="translate(-154.73 -4.552)"/>
        <path id="Path_6378" data-name="Path 6378" class="cls-3" d="M213.208,31.3s-7.5,3.749-8.5,7.5a4.931,4.931,0,0,0,1.006,4.846s-4.481,1.189-3.841,5.578a5.572,5.572,0,0,0,2.286,3.566s-3.841,1.372-3.2,5.029c0,0,.183,3.658,6.584,4.481,0,0,.274,4.664,6.767,5.4,0,0-7.041.274-7.956-4.389,0,0-8.779-1.006-6.218-9.419l.549-2.012s-.64-6.492,1.28-9.419c0,0,.64-1.92-2.56-5.944,0,0,3.109,4.023,5.212,1.189C204.7,37.518,206.167,33.952,213.208,31.3Z" transform="translate(-156.056 -2.678)"/>
        <path id="Path_6379" data-name="Path 6379" class="cls-3" d="M226.482,70.232l-7.773,2.012s-3.566,2.56-4.389,2.56c0,0-12.619,7.773-15.82,8.413,0,0,18.837-8.779,10.059-13.716l1.829.274s1.92,1.737,7.773.732Z" transform="translate(-155.979 -5.947)"/>
        <path id="Path_6380" data-name="Path 6380" class="cls-4" d="M207.493,51.829a.09.09,0,0,0-.091.091l-2.012.549a1.174,1.174,0,0,1-1.463-.823l-.732-2.835a1.174,1.174,0,0,1,.823-1.463l2.012-.549h.366a2.546,2.546,0,0,1,2.743,1.737A2.481,2.481,0,0,1,207.493,51.829Z" transform="translate(-156.377 -4.004)"/>
        <path id="Path_6381" data-name="Path 6381" class="cls-4" d="M211.014,43.145l-.091.091-1.829,1.006a1.313,1.313,0,0,1-1.646-.457l-1.463-2.56a1.22,1.22,0,0,1,.457-1.646l1.829-1.006a.336.336,0,0,1,.274-.091,2.552,2.552,0,0,1,3.109.914C211.654,39.487,213.117,41.682,211.014,43.145Z" transform="translate(-156.605 -3.276)"/>
        <path id="Path_6382" data-name="Path 6382" class="cls-4" d="M207.493,61.329a.09.09,0,0,0-.091.091l-2.012.549a1.174,1.174,0,0,1-1.463-.823l-.732-2.835a1.174,1.174,0,0,1,.823-1.463l2.012-.549h.366a2.587,2.587,0,0,1,1.1,5.029Z" transform="translate(-156.377 -4.817)"/>
        <path id="Path_6383" data-name="Path 6383" class="cls-4" d="M214.221,64.1a8.775,8.775,0,0,1,.183,3.383s-.64.914-2.835.457c0,0-2.286,0-2.469-2.835A23,23,0,0,0,214.221,64.1Z" transform="translate(-156.886 -5.485)"/>
        <path id="Path_6384" data-name="Path 6384" class="cls-4" d="M178.93,9.818s-2.652-5.3-1.555-7.224c0,0,.457-.366.914.64l2.469,4.846S181.49,9.361,178.93,9.818Z" transform="translate(-154.149 -0.216)"/>
        <path id="Path_6385" data-name="Path 6385" class="cls-2" d="M188,3.5s3.475,2.743,4.481,10.333c0,0,2.1,10.333,5.669,14.174a26.566,26.566,0,0,1,5.212-2.286s-4.846,3.018-.457,8.961l-2.56-1.006-4.481-3.2-4.206.914a18.191,18.191,0,0,0-2.926-15.545C188.732,15.936,192.389,12.187,188,3.5Z" transform="translate(-155.08 -0.299)"/>
      </g>
      <g id="Group_1393" data-name="Group 1393" transform="translate(0 84.859)">
        <path id="Path_6386" data-name="Path 6386" class="cls-5" d="M184.771,245.488l12.162-139.908-49.1-4.481L135.3,245.488Z" transform="translate(-135.3 -93.509)"/>
        <rect id="Rectangle_943" data-name="Rectangle 943" class="cls-6" width="7.956" height="41.241" transform="translate(16.521 7.923) rotate(-84.791)"/>
        <path id="Path_6387" data-name="Path 6387" class="cls-7" d="M160.081,245.488l12.345-142.194-24.6-2.195L135.3,245.488Z" transform="translate(-135.3 -93.509)"/>
        <path id="Path_6388" data-name="Path 6388" class="cls-5" d="M156.189,116.723a3.626,3.626,0,1,0-3.292-3.932A3.6,3.6,0,0,0,156.189,116.723Z" transform="translate(-136.803 -94.227)"/>
        <path id="Path_6389" data-name="Path 6389" class="cls-5" d="M154.79,131.723a3.626,3.626,0,1,0-3.292-3.932A3.657,3.657,0,0,0,154.79,131.723Z" transform="translate(-136.685 -95.51)"/>
        <path id="Path_6390" data-name="Path 6390" class="cls-5" d="M153.391,146.723a3.626,3.626,0,1,0-3.292-3.932A3.6,3.6,0,0,0,153.391,146.723Z" transform="translate(-136.565 -96.794)"/>
      </g>
    </g>
    <g id="Group_1397" data-name="Group 1397" transform="translate(172.431 88.425)">
      <g id="Group_1395" data-name="Group 1395">
        <path id="Path_6391" data-name="Path 6391" class="cls-1" d="M255.533,164.368s-4.481-12.253-9.6-15.82c.183,0-1.372-6.675-1.555-7.315a17.043,17.043,0,0,0-4.664-6.4c-1.829-1.737-4.572-3.658-5.487-6.127-1.189-3.2-5.761-16.643-2.835-25.7,0,0,2.195-5.669-3.841-6.31,0,0-8.961,1.372-8.6,16,0,0,.183,8.961-2.835,14.265-.914-.274-1.92-.549-2.835-.823-2.195-.366-9.419-1.646-10.882-1.646,0,0-5.852-.64-6.858-.091a15.82,15.82,0,0,1-2.286.549,5.865,5.865,0,0,0-4.3,5.029s-.914,2.835,2.835,5.487c0,0-2.835,2.195-3.2,5.3,0,0-.64,3.841,3.932,6.218a7.012,7.012,0,0,0-3.018,6.035s0,3.475,2.743,4.755a6.679,6.679,0,0,0-1.189,6.492s1.829,3.292,5.212,3.475l7.224.457s3.292,1.737,4.846,1.737l8.23,2.926s6.492,2.378,9.693,2.743c0,0,4.3.64,5.669,1.463,0,0,3.841,1.646,6.492.549a32.439,32.439,0,0,0,7.041,3.841l2.56,40.326,25.513-18.471Z" transform="translate(-188.566 -96.7)"/>
        <path id="Path_6392" data-name="Path 6392" class="cls-2" d="M221.964,150.526s-5.029-13.625,3.2-18.38a10.22,10.22,0,0,1-4.115-1.646,5.624,5.624,0,0,1-3.2,1.1,13.84,13.84,0,0,0-2.56,6.218l-.549,2.652s.549,2.469-.64,3.566c0,0,4.846.457,4.755,4.846,0,0,0,2.926-1.646,3.932a4.7,4.7,0,0,1,3.749,6.31A8.153,8.153,0,0,0,221.964,150.526Z" transform="translate(-190.751 -99.592)"/>
        <path id="Path_6393" data-name="Path 6393" class="cls-2" d="M198.7,128.1s3.841,3.292,4.389,5.029c0,0,10.424,2.926,10.333,7.773l1.463-2.195.183-2.926-.091-2.012s-1.1,2.012-1.737,3.383c0,0-.457,1.1-1.28-.732,0,0-4.206-2.1-2.743-6.31,0,0-2.286,4.206-4.755,1.28A6.576,6.576,0,0,0,198.7,128.1Z" transform="translate(-189.434 -99.387)"/>
        <path id="Path_6394" data-name="Path 6394" class="cls-2" d="M188.9,133.748s-.366,2.56,2.835,4.755l4.755,3.932a9.666,9.666,0,0,0,5.487,1.92s8.779,2.378,9.967-.366c0,0-1.463,2.743-9.784-1.28,0,0-7.315-.183-5.487-7.133,0,0,1.737-1.92-1.92-3.658,0,0-3.2-2.652-4.664-1.737A5.492,5.492,0,0,0,188.9,133.748Z" transform="translate(-188.594 -99.549)"/>
        <path id="Path_6395" data-name="Path 6395" class="cls-2" d="M188.6,145.7s-.274,3.475,3.932,5.669l7.315,2.835s3.383,1.646,6.492.823c0,0,8.138-1.006,8.779-1.006,0,0,1.829-.732,1.737-3.841s-.091-.091-.091-.091.274,4.3-6.767,2.378c0,0-5.4,2.56-6.127-.091,0,0-2.1,1.737-3.2-.366C200.487,152.1,190.337,150.912,188.6,145.7Z" transform="translate(-188.569 -100.893)"/>
        <path id="Path_6396" data-name="Path 6396" class="cls-2" d="M189.5,158.5a5.967,5.967,0,0,0,2.926,4.846s2.743,1.372,9.327,1.28a25.033,25.033,0,0,1,5.212.549s10.15,1.372,11.979-3.749c0,0-3.292,5.3-11.979.549,0,0-.914,1.555-7.864.914C199.01,162.889,191.146,162.341,189.5,158.5Z" transform="translate(-188.646 -101.988)"/>
        <path id="Path_6397" data-name="Path 6397" class="cls-2" d="M213.612,165.555s.274,4.664-5.4,6.492c0,0-12.619,2.195-16.917-2.012a7.18,7.18,0,0,0,4.572,3.658l7.956.549s3.749,1.829,4.846,1.737c0,0,13.808,5.578,19.02,5.761l3.475,2.286,1.372,2.195s6.4,38.315,11.43,40.418l4.481,1.1,2.835-3.566s-8.047-37.949-8.779-56.969c0,0,1.189,15.18-11.339,12.528,0,0-19.294-6.127-13.351-15.728Z" transform="translate(-188.8 -102.459)"/>
        <path id="Path_6398" data-name="Path 6398" class="cls-2" d="M222.443,152.4s6.4,15.728,16.917,15.18c0,0-7.224,1.829-14.539-5.852,0,0-2.378-2.56-5.121,2.652l.274-1.189.183-.732s2.652-1.92,1.189-5.944Z" transform="translate(-191.231 -101.466)"/>
        <path id="Path_6399" data-name="Path 6399" class="cls-3" d="M203.6,133.5s8.047,2.378,9.693,5.852a4.986,4.986,0,0,1-.091,4.938s4.664.366,4.755,4.846a5.8,5.8,0,0,1-1.646,3.932s4.023.64,4.023,4.389c0,0,.457,3.658-5.669,5.578,0,0,.549,4.664-5.669,6.492,0,0,6.95-.914,7.041-5.761,0,0,8.5-2.56,4.389-10.424l-.823-1.829s-.549-6.492-2.926-9.053c0,0-1.006-1.829,1.463-6.31,0,0-2.378,4.481-4.938,2.1C213.11,138.164,211.007,134.872,203.6,133.5Z" transform="translate(-189.853 -99.849)"/>
        <path id="Path_6400" data-name="Path 6400" class="cls-3" d="M196.2,174.124l7.956.549s4.023,1.92,4.846,1.737c0,0,13.808,5.4,17.008,5.4,0,0-20.117-5.3-12.345-11.7l-1.737.64s-1.555,2.1-7.5,2.195Z" transform="translate(-189.22 -102.981)"/>
        <path id="Path_6401" data-name="Path 6401" class="cls-4" d="M213.586,152.6h.091l2.1.183a1.209,1.209,0,0,0,1.28-1.1l.183-2.926a1.209,1.209,0,0,0-1.1-1.28l-2.1-.183h-.366a2.456,2.456,0,0,0-2.378,2.195C211.391,149.495,211.026,152.146,213.586,152.6Z" transform="translate(-190.512 -101.03)"/>
        <path id="Path_6402" data-name="Path 6402" class="cls-4" d="M208.649,144.627a.09.09,0,0,1,.091.091l2.012.732a1.262,1.262,0,0,0,1.555-.732l.914-2.743a1.262,1.262,0,0,0-.732-1.555l-2.012-.732c-.091,0-.183-.091-.366-.091a2.536,2.536,0,0,0-2.835,1.463C207.277,141.152,206.18,143.621,208.649,144.627Z" transform="translate(-190.147 -100.368)"/>
        <path id="Path_6403" data-name="Path 6403" class="cls-4" d="M215.286,161.9h.091l2.1.183a1.209,1.209,0,0,0,1.28-1.1l.183-2.926a1.209,1.209,0,0,0-1.1-1.28l-2.1-.183h-.366A2.456,2.456,0,0,0,213,158.795C213.091,158.886,212.726,161.538,215.286,161.9Z" transform="translate(-190.657 -101.826)"/>
        <path id="Path_6404" data-name="Path 6404" class="cls-4" d="M209.2,165.8s-.183,2.469.366,3.292c0,0,.823.732,2.926-.091a2.634,2.634,0,0,0,1.92-3.2C214.41,165.891,212.4,166.349,209.2,165.8Z" transform="translate(-190.329 -102.613)"/>
        <path id="Path_6405" data-name="Path 6405" class="cls-4" d="M234.495,106.1s1.646-5.761.183-7.407c0,0-.549-.274-.823.732l-1.555,5.212C232.391,104.641,231.934,106.012,234.495,106.1Z" transform="translate(-192.309 -96.868)"/>
        <path id="Path_6406" data-name="Path 6406" class="cls-2" d="M223.656,101.5s-2.926,3.292-2.56,10.973c0,0-.183,10.516-3.018,15a29.555,29.555,0,0,0-5.578-1.28s5.3,2.1,2.012,8.779l2.378-1.463,3.841-3.932,4.3.091a18.084,18.084,0,0,1,.091-15.82S220.913,110.827,223.656,101.5Z" transform="translate(-190.615 -97.111)"/>
      </g>
      <g id="Group_1396" data-name="Group 1396" transform="translate(35.968 75.708)">
        <path id="Path_6407" data-name="Path 6407" class="cls-7" d="M294.2,252.813,275.359,186.7,227.9,200.142l15,52.671Z" transform="translate(-227.9 -180.109)"/>
        <rect id="Rectangle_944" data-name="Rectangle 944" class="cls-6" width="41.241" height="7.956" transform="translate(1.704 11.283) rotate(-15.879)"/>
        <path id="Path_6408" data-name="Path 6408" class="cls-5" d="M296.421,252.813,277.584,186.7,253.9,193.375l16.826,59.438Z" transform="translate(-230.125 -180.109)"/>
        <path id="Path_6409" data-name="Path 6409" class="cls-5" d="M240.268,214.028a3.649,3.649,0,1,1,2.56-4.481A3.758,3.758,0,0,1,240.268,214.028Z" transform="translate(-228.563 -181.833)"/>
        <path id="Path_6410" data-name="Path 6410" class="cls-5" d="M244.368,228.528a3.649,3.649,0,1,1,2.56-4.481A3.6,3.6,0,0,1,244.368,228.528Z" transform="translate(-228.914 -183.074)"/>
        <path id="Path_6411" data-name="Path 6411" class="cls-5" d="M248.568,243.028a3.6,3.6,0,0,1-4.481-2.56,3.563,3.563,0,0,1,2.56-4.481,3.6,3.6,0,0,1,4.481,2.56A3.749,3.749,0,0,1,248.568,243.028Z" transform="translate(-229.273 -184.314)"/>
      </g>
    </g>
    <g id="Group_1400" data-name="Group 1400" transform="translate(247.619 53.403)">
      <g id="Group_1398" data-name="Group 1398">
        <path id="Path_6412" data-name="Path 6412" class="cls-1" d="M335.724,128.08s-3.475-12.619-8.23-16.551a67.145,67.145,0,0,0-1.006-7.407,17.763,17.763,0,0,0-4.115-6.767c-1.646-1.829-4.206-4.023-4.938-6.584-.914-3.292-4.3-17.1-.732-25.787,0,0,2.652-5.487-3.383-6.584,0,0-9.053.549-9.876,15.271,0,0-.64,8.961-4.023,13.991-.914-.366-1.829-.64-2.743-1.1-2.195-.549-9.236-2.469-10.7-2.56,0,0-5.761-1.1-6.858-.64a18.8,18.8,0,0,1-2.286.366,5.771,5.771,0,0,0-4.664,4.664s-1.189,2.743,2.378,5.761c0,0-3.018,1.92-3.566,5.029,0,0-1.006,3.841,3.383,6.492a7.152,7.152,0,0,0-3.566,5.761s-.274,3.475,2.286,4.938a6.728,6.728,0,0,0-1.646,6.4s1.555,3.475,4.938,3.932l7.133,1.1s3.109,2.012,4.664,2.195l7.956,3.566a70.949,70.949,0,0,0,9.419,3.566s4.3,1.006,5.578,1.92c0,0,3.658,1.92,6.492,1.1a30.727,30.727,0,0,0,6.767,4.389l-.732,40.326,26.976-16.277Z" transform="translate(-270.791 -58.4)"/>
        <path id="Path_6413" data-name="Path 6413" class="cls-2" d="M303.715,111.226s-3.932-13.991,4.755-18.014a10.1,10.1,0,0,1-4.023-2.012,5.893,5.893,0,0,1-3.292.823,14.479,14.479,0,0,0-3.109,6.035l-.732,2.652s.274,2.469-.914,3.566c0,0,4.846.914,4.389,5.212,0,0-.183,2.926-1.92,3.749,0,0,5.121,1.189,3.2,6.584C301.978,119.639,305.544,116.347,303.715,111.226Z" transform="translate(-272.982 -61.207)"/>
        <path id="Path_6414" data-name="Path 6414" class="cls-2" d="M282.5,86.9s3.566,3.566,4.023,5.3c0,0,10.15,3.749,9.6,8.6l1.646-2.1.457-2.835.091-2.012s-1.28,1.92-2.012,3.2c0,0-.549,1.006-1.28-.823,0,0-4.023-2.469-2.195-6.492,0,0-2.652,4.023-4.846.914A6.779,6.779,0,0,0,282.5,86.9Z" transform="translate(-271.793 -60.839)"/>
        <path id="Path_6415" data-name="Path 6415" class="cls-2" d="M272.2,91.661s-.549,2.56,2.469,4.938l4.389,4.389a9.541,9.541,0,0,0,5.3,2.378s8.5,3.109,9.967.457c0,0-1.646,2.652-9.6-2.1,0,0-7.315-.823-4.846-7.59,0,0,1.92-1.737-1.646-3.841,0,0-2.926-2.926-4.481-2.1A5.363,5.363,0,0,0,272.2,91.661Z" transform="translate(-270.908 -60.936)"/>
        <path id="Path_6416" data-name="Path 6416" class="cls-2" d="M271,103.6s-.64,3.383,3.383,5.944l7.041,3.475a10.709,10.709,0,0,0,6.4,1.372s8.138-.366,8.779-.274c0,0,1.92-.549,2.012-3.658s-.091-.091-.091-.091-.091,4.3-6.95,1.829c0,0-5.578,2.1-6.127-.549,0,0-2.286,1.555-3.2-.64C282.335,110.915,272.277,108.9,271,103.6Z" transform="translate(-270.805 -62.268)"/>
        <path id="Path_6417" data-name="Path 6417" class="cls-2" d="M270.8,116.4s-.183,3.383,2.469,5.029c0,0,2.652,1.646,9.144,2.1a23.975,23.975,0,0,1,5.121,1.006s9.967,2.286,12.253-2.743c0,0-3.749,4.938-11.979-.457,0,0-1.1,1.463-7.864.183C279.944,121.521,272.171,120.332,270.8,116.4Z" transform="translate(-270.791 -63.363)"/>
        <path id="Path_6418" data-name="Path 6418" class="cls-2" d="M294.178,125.68s-.091,4.664-5.944,6.035c0,0-12.8,1.189-16.734-3.475a7.42,7.42,0,0,0,4.206,4.023l7.956,1.28s3.566,2.1,4.664,2.1c0,0,13.351,6.767,18.472,7.315l3.292,2.56,1.189,2.286s3.2,38.68,8.047,41.241l4.389,1.463,3.2-3.292s-4.846-38.5-3.932-57.518c0,0-.091,15.18-12.345,11.522,0,0-18.654-7.681-11.979-16.826Z" transform="translate(-270.851 -64.048)"/>
        <path id="Path_6419" data-name="Path 6419" class="cls-2" d="M304.049,113.1s5.029,16.277,15.545,16.551c0,0-7.407,1.189-13.991-7.041,0,0-2.195-2.743-5.3,2.195l.366-1.189.183-.64s2.743-1.737,1.737-5.761Z" transform="translate(-273.316 -63.081)"/>
        <path id="Path_6420" data-name="Path 6420" class="cls-3" d="M286.9,92.7s7.773,3.018,9.236,6.584a5.168,5.168,0,0,1-.549,4.938s4.572.732,4.389,5.212a5.644,5.644,0,0,1-1.92,3.749s3.932,1.006,3.658,4.664c0,0,.183,3.658-6.127,5.121,0,0,.091,4.664-6.218,6.035,0,0,7.041-.366,7.5-5.121,0,0,8.687-1.829,5.3-10.059l-.732-1.92s0-6.584-2.195-9.236c0,0-.823-1.829,2.012-6.127,0,0-2.743,4.3-5.121,1.646C296.044,98.1,294.215,94.62,286.9,92.7Z" transform="translate(-272.169 -61.335)"/>
        <path id="Path_6421" data-name="Path 6421" class="cls-3" d="M276.2,132.669l7.956,1.28s3.841,2.195,4.664,2.1c0,0,13.259,6.584,16.551,6.858,0,0-19.569-6.95-11.339-12.711l-1.737.457s-1.737,1.92-7.681,1.555Z" transform="translate(-271.254 -64.544)"/>
        <path id="Path_6422" data-name="Path 6422" class="cls-4" d="M295.311,112.512h.091l2.1.366a1.226,1.226,0,0,0,1.372-1.006l.457-2.835a1.226,1.226,0,0,0-1.006-1.372l-2.1-.366h-.366a2.491,2.491,0,0,0-2.56,2.012C293.391,109.312,292.751,111.872,295.311,112.512Z" transform="translate(-272.716 -62.584)"/>
        <path id="Path_6423" data-name="Path 6423" class="cls-4" d="M290.971,104.235l.091.091,1.92.823a1.141,1.141,0,0,0,1.555-.64l1.189-2.652a1.141,1.141,0,0,0-.64-1.555l-1.92-.823c-.091,0-.183-.091-.366-.091a2.5,2.5,0,0,0-3.018,1.28C289.965,100.578,288.684,102.955,290.971,104.235Z" transform="translate(-272.399 -61.897)"/>
        <path id="Path_6424" data-name="Path 6424" class="cls-4" d="M296.211,122.012h.091l2.1.366a1.226,1.226,0,0,0,1.372-1.006l.457-2.835a1.226,1.226,0,0,0-1.006-1.372l-2.1-.366h-.366a2.488,2.488,0,0,0-2.56,1.92C294.291,118.72,293.651,121.372,296.211,122.012Z" transform="translate(-272.793 -63.397)"/>
        <path id="Path_6425" data-name="Path 6425" class="cls-4" d="M289.787,125.4s-.366,2.469.091,3.383c0,0,.732.823,2.926.183A2.672,2.672,0,0,0,295,125.949,23.886,23.886,0,0,1,289.787,125.4Z" transform="translate(-272.404 -64.133)"/>
        <path id="Path_6426" data-name="Path 6426" class="cls-4" d="M319.915,67.9s2.195-5.578.823-7.407c0,0-.549-.366-.823.732L318,66.255C318,66.347,317.446,67.627,319.915,67.9Z" transform="translate(-274.826 -58.574)"/>
        <path id="Path_6427" data-name="Path 6427" class="cls-2" d="M309.468,62.5s-3.2,3.018-3.475,10.7c0,0-1.1,10.516-4.3,14.722a27.148,27.148,0,0,0-5.4-1.737s5.121,2.56,1.28,8.87l2.469-1.28,4.206-3.566,4.206.457a18.242,18.242,0,0,1,1.372-15.728S305.9,71.553,309.468,62.5Z" transform="translate(-272.974 -58.751)"/>
      </g>
      <g id="Group_1399" data-name="Group 1399" transform="translate(31.008 80.536)">
        <path id="Path_6428" data-name="Path 6428" class="cls-7" d="M361.943,250.084,353.8,154.8l-49.1,4.481,7.681,90.8Z" transform="translate(-304.7 -147.185)"/>
        <rect id="Rectangle_945" data-name="Rectangle 945" class="cls-6" width="41.241" height="7.956" transform="translate(3.292 3.74) rotate(-5.203)"/>
        <path id="Path_6429" data-name="Path 6429" class="cls-5" d="M364.237,250.084,356.1,154.8l-24.6,2.286,7.956,93Z" transform="translate(-306.993 -147.185)"/>
        <path id="Path_6430" data-name="Path 6430" class="cls-5" d="M314.431,174.423a3.626,3.626,0,1,1,3.292-3.932A3.657,3.657,0,0,1,314.431,174.423Z" transform="translate(-305.195 -148.244)"/>
        <path id="Path_6431" data-name="Path 6431" class="cls-5" d="M315.831,189.423a3.626,3.626,0,1,1,3.292-3.932A3.6,3.6,0,0,1,315.831,189.423Z" transform="translate(-305.315 -149.528)"/>
        <path id="Path_6432" data-name="Path 6432" class="cls-5" d="M317.131,204.423a3.626,3.626,0,1,1,3.292-3.932A3.6,3.6,0,0,1,317.131,204.423Z" transform="translate(-305.426 -150.811)"/>
      </g>
    </g>
    <g id="Group_1403" data-name="Group 1403" transform="translate(0 28.987)">
      <g id="Group_1401" data-name="Group 1401" transform="translate(12.619)">
        <path id="Path_6433" data-name="Path 6433" class="cls-1" d="M24.773,103.208s2.286-12.893,6.675-17.283a72.847,72.847,0,0,1,.274-7.407A17.334,17.334,0,0,1,35.2,71.386c1.463-2.012,3.841-4.481,4.3-7.041.64-3.383,2.743-17.374-1.737-25.787,0,0-3.109-5.212,2.743-6.858,0,0,9.053-.274,11.247,14.265,0,0,1.463,8.87,5.3,13.534.914-.366,1.737-.823,2.652-1.28,2.1-.823,8.961-3.292,10.425-3.566,0,0,5.578-1.646,6.767-1.28a11.28,11.28,0,0,0,2.286.091A5.761,5.761,0,0,1,84.3,57.67s1.463,2.652-1.829,5.944c0,0,3.2,1.646,4.023,4.664,0,0,1.372,3.658-2.835,6.767a7.1,7.1,0,0,1,4.115,5.4s.64,3.383-1.829,5.121a6.632,6.632,0,0,1,2.286,6.127s-1.28,3.566-4.572,4.389l-7.041,1.737s-2.926,2.286-4.389,2.56l-7.59,4.3s-5.944,3.475-9.053,4.389c0,0-4.115,1.372-5.3,2.469,0,0-3.475,2.286-6.31,1.646,0,0,.823,3.383-3.566,6.218l1.829,38.955L13.8,144.632Z" transform="translate(-13.8 -31.7)"/>
        <path id="Path_6434" data-name="Path 6434" class="cls-2" d="M60.5,83.035s2.56-14.357-6.4-17.557A9.436,9.436,0,0,0,57.849,63.1a5.323,5.323,0,0,0,3.383.457,14.315,14.315,0,0,1,3.658,5.669l1.006,2.56s-.091,2.56,1.28,3.383c0,0-4.755,1.372-3.841,5.578,0,0,.457,2.926,2.286,3.566,0,0-5.029,1.646-2.652,6.858C62.97,91.356,59.129,88.43,60.5,83.035Z" transform="translate(-17.248 -34.387)"/>
        <path id="Path_6435" data-name="Path 6435" class="cls-2" d="M78.988,56.8s-3.2,3.932-3.475,5.669c0,0-9.693,4.755-8.779,9.51l-1.829-1.92-.732-2.835L63.9,65.3a37.148,37.148,0,0,1,2.286,3.018s.64.914,1.189-.914c0,0,3.841-2.835,1.555-6.675,0,0,3.018,3.749,4.938.457A6.491,6.491,0,0,1,78.988,56.8Z" transform="translate(-18.087 -33.847)"/>
        <path id="Path_6436" data-name="Path 6436" class="cls-2" d="M89.14,60.675s.732,2.469-2.012,5.212l-4.023,4.755a9.44,9.44,0,0,1-5.029,2.835s-8.23,3.932-9.876,1.372c0,0,1.92,2.469,9.419-3.018,0,0,7.224-1.463,4.115-7.956,0,0-2.012-1.555,1.28-4.023,0,0,2.652-3.2,4.3-2.56A5.869,5.869,0,0,1,89.14,60.675Z" transform="translate(-18.455 -33.882)"/>
        <path id="Path_6437" data-name="Path 6437" class="cls-2" d="M90.867,72.4s.914,3.383-2.835,6.218l-6.675,4.115s-3.018,2.286-6.218,2.012c0,0-8.138.366-8.779.549,0,0-1.92-.366-2.378-3.475-.457-3.018.091-.091.091-.091s.457,4.3,7.041,1.1c0,0,5.761,1.555,6.035-1.189,0,0,2.378,1.372,3.109-.914C80.351,80.721,90.136,77.8,90.867,72.4Z" transform="translate(-18.079 -35.182)"/>
        <path id="Path_6438" data-name="Path 6438" class="cls-2" d="M92.139,85.1a5.923,5.923,0,0,1-2.012,5.3s-2.469,1.829-8.961,2.926a22.922,22.922,0,0,0-5.029,1.463s-9.693,3.2-12.436-1.555c0,0,4.206,4.572,11.888-1.555,0,0,1.189,1.372,7.864-.549C83.543,91.044,91.224,89.123,92.139,85.1Z" transform="translate(-18.07 -36.269)"/>
        <path id="Path_6439" data-name="Path 6439" class="cls-2" d="M67.673,96.7s.549,4.572,6.492,5.4c0,0,12.893,0,16.368-5.029a7.384,7.384,0,0,1-3.841,4.389l-7.773,2.012s-3.383,2.469-4.389,2.56l-1.372.823c-1.1.64-2.286,1.372-3.383,2.012-1.463.823-2.926,1.737-4.481,2.469a44.014,44.014,0,0,1-4.664,2.286c-1.92.823-3.749,1.28-5.3,2.652a9.724,9.724,0,0,0-1.372,1.372,3.588,3.588,0,0,0-.732,1.28,10.361,10.361,0,0,0-.366,4.115c0,.732-.091,1.463-.091,2.1v4.389c0,1.737,0,3.475-.091,5.121-.091,1.829-.091,3.749-.183,5.578-.091,1.92-.183,3.749-.366,5.669-.091,1.829-.274,3.566-.457,5.4-.183,1.555-.366,3.109-.64,4.664a17.049,17.049,0,0,1-.914,3.566,5.783,5.783,0,0,1-1.1,2.1l-.274.274-4.206,1.92L41.063,160.8s1.189-38.772-1.463-57.7c0,0,1.555,15.088,13.351,10.333,0,0,17.923-9.419,10.333-17.831Z" transform="translate(-16.008 -37.168)"/>
        <path id="Path_6440" data-name="Path 6440" class="cls-2" d="M59.791,84.9S56.225,101.543,45.8,102.823c0,0,7.5.549,13.259-8.321,0,0,1.92-2.926,5.487,1.646l-.457-1.1-.274-.64s-2.926-1.463-2.286-5.578Z" transform="translate(-16.538 -36.252)"/>
        <path id="Path_6441" data-name="Path 6441" class="cls-3" d="M75.316,63s-7.5,3.749-8.5,7.407a4.931,4.931,0,0,0,1.006,4.846s-4.481,1.189-3.841,5.578A5.572,5.572,0,0,0,66.264,84.4s-3.841,1.372-3.2,5.029c0,0,.183,3.658,6.584,4.481,0,0,.274,4.664,6.767,5.4,0,0-7.041.274-7.864-4.389,0,0-8.779-1.006-6.218-9.51l.549-2.012s-.64-6.492,1.28-9.419c0,0,.64-1.92-2.56-5.944,0,0,3.109,4.023,5.212,1.189C66.721,69.31,68.184,65.652,75.316,63Z" transform="translate(-17.89 -34.378)"/>
        <path id="Path_6442" data-name="Path 6442" class="cls-3" d="M88.382,102.023l-7.773,2.012s-3.566,2.56-4.389,2.56c0,0-12.619,7.773-15.82,8.321,0,0,18.837-8.779,10.059-13.716l1.829.274s1.92,1.737,7.773.823Z" transform="translate(-17.788 -37.647)"/>
        <path id="Path_6443" data-name="Path 6443" class="cls-4" d="M69.493,83.629a.09.09,0,0,0-.091.091l-2.012.549a1.174,1.174,0,0,1-1.463-.823L65.2,80.611a1.174,1.174,0,0,1,.823-1.463L68.03,78.6H68.4a2.546,2.546,0,0,1,2.743,1.737A2.581,2.581,0,0,1,69.493,83.629Z" transform="translate(-18.194 -35.712)"/>
        <path id="Path_6444" data-name="Path 6444" class="cls-4" d="M73.014,74.945l-.091.091-1.829,1.006a1.313,1.313,0,0,1-1.646-.457l-1.463-2.56a1.22,1.22,0,0,1,.457-1.646l1.829-1.006a.336.336,0,0,1,.274-.091,2.552,2.552,0,0,1,3.109.914A2.634,2.634,0,0,1,73.014,74.945Z" transform="translate(-18.422 -34.984)"/>
        <path id="Path_6445" data-name="Path 6445" class="cls-4" d="M69.493,93.129a.09.09,0,0,0-.091.091l-2.012.549a1.174,1.174,0,0,1-1.463-.823L65.2,90.111a1.174,1.174,0,0,1,.823-1.463L68.03,88.1H68.4a2.546,2.546,0,0,1,2.743,1.737A2.581,2.581,0,0,1,69.493,93.129Z" transform="translate(-18.194 -36.525)"/>
        <path id="Path_6446" data-name="Path 6446" class="cls-4" d="M76.221,95.8a8.775,8.775,0,0,1,.183,3.383s-.64.914-2.835.366c0,0-2.286,0-2.469-2.835C71.1,96.806,73.112,96.9,76.221,95.8Z" transform="translate(-18.703 -37.185)"/>
        <path id="Path_6447" data-name="Path 6447" class="cls-4" d="M41.03,41.518s-2.652-5.3-1.555-7.224c0,0,.457-.366.914.64l2.378,4.846C42.858,39.781,43.59,40.969,41.03,41.518Z" transform="translate(-15.974 -31.916)"/>
        <path id="Path_6448" data-name="Path 6448" class="cls-2" d="M50.1,35.2s3.475,2.743,4.481,10.333c0,0,2.012,10.333,5.669,14.265a26.566,26.566,0,0,1,5.212-2.286s-4.846,3.018-.457,8.961l-2.56-1.006-4.481-3.2-4.3.914A18.191,18.191,0,0,0,50.74,47.636C50.832,47.636,54.489,43.887,50.1,35.2Z" transform="translate(-16.906 -31.999)"/>
      </g>
      <g id="Group_1402" data-name="Group 1402" transform="translate(0 85.571)">
        <path id="Path_6449" data-name="Path 6449" class="cls-5" d="M58.981,137.981,9.784,133.5,0,248.261H49.471Z" transform="translate(0 -125.982)"/>
        <rect id="Rectangle_946" data-name="Rectangle 946" class="cls-6" width="7.956" height="41.241" transform="translate(13.868 7.923) rotate(-84.791)"/>
        <path id="Path_6450" data-name="Path 6450" class="cls-7" d="M34.383,135.786,9.784,133.5,0,248.261H24.781Z" transform="translate(0 -125.982)"/>
        <path id="Path_6451" data-name="Path 6451" class="cls-5" d="M17.891,149.123A3.626,3.626,0,1,0,14.6,145.19,3.657,3.657,0,0,0,17.891,149.123Z" transform="translate(-1.248 -126.699)"/>
        <path id="Path_6452" data-name="Path 6452" class="cls-5" d="M16.491,164.123a3.626,3.626,0,1,0-3.292-3.932A3.6,3.6,0,0,0,16.491,164.123Z" transform="translate(-1.128 -127.983)"/>
        <path id="Path_6453" data-name="Path 6453" class="cls-5" d="M15.189,179.123a3.626,3.626,0,1,0-3.292-3.932A3.544,3.544,0,0,0,15.189,179.123Z" transform="translate(-1.015 -129.266)"/>
      </g>
    </g>
    <g id="Group_1407" data-name="Group 1407" transform="translate(60.901 118.486)">
      <g id="Group_1405" data-name="Group 1405" transform="translate(7.315)">
        <path id="Path_6454" data-name="Path 6454" class="cls-1" d="M139.8,178.337c2.195-2.012,1.28-5.3,1.28-5.3a7.317,7.317,0,0,0-4.664-4.938c3.749-3.566,2.012-7.041,2.012-7.041-1.189-2.835-4.572-4.206-4.572-4.206,2.835-3.658,1.189-6.127,1.189-6.127a5.9,5.9,0,0,0-5.578-3.658,16.088,16.088,0,0,1-2.286.183c-1.189-.274-6.584,2.012-6.584,2.012-1.372.366-7.956,3.658-9.967,4.664-.823.549-1.646,1.1-2.469,1.555-4.389-4.3-6.767-12.893-6.767-12.893-3.841-14.174-12.8-12.985-12.8-12.985-5.578,2.378-1.92,7.133-1.92,7.133,5.3,7.773,4.755,21.946,4.572,25.421-.183,2.56-2.195,5.3-3.475,7.407a17.2,17.2,0,0,0-2.652,7.5,55.9,55.9,0,0,0,.549,7.407C81.733,189.31,81,202.386,81,202.386L74.6,245l5.852,2.1h22.586l-4.755-30.085c4.023-3.292,2.835-6.584,2.835-6.584,2.926.274,6.127-2.378,6.127-2.378,1.1-1.189,5.029-3.018,5.029-3.018,3.018-1.28,8.5-5.4,8.5-5.4l7.133-5.121c1.463-.457,4.115-3.109,4.115-3.109l6.767-2.469c3.2-1.189,4.023-4.846,4.023-4.846A6.846,6.846,0,0,0,139.8,178.337Z" transform="translate(-74.6 -129.573)"/>
        <path id="Path_6455" data-name="Path 6455" class="cls-2" d="M113.021,178.877s1.006-14.539-8.321-16.734a10.115,10.115,0,0,0,3.475-2.743,5.359,5.359,0,0,0,3.383.091,15.677,15.677,0,0,1,4.3,5.212l1.28,2.469s.183,2.56,1.646,3.292c0,0-4.572,1.829-3.2,5.944,0,0,.823,2.835,2.652,3.292,0,0-4.755,2.195-1.829,7.133A7.881,7.881,0,0,1,113.021,178.877Z" transform="translate(-77.176 -132.125)"/>
        <path id="Path_6456" data-name="Path 6456" class="cls-2" d="M128.582,150.6s-2.743,4.206-2.835,6.035c0,0-9.144,5.761-7.681,10.424l-2.1-1.737-1.006-2.743-.457-1.92a30.015,30.015,0,0,1,2.56,2.743s.732.914,1.1-1.1c0,0,3.475-3.2.823-6.858,0,0,3.383,3.383,4.938-.091A7.253,7.253,0,0,1,128.582,150.6Z" transform="translate(-78.014 -131.372)"/>
        <path id="Path_6457" data-name="Path 6457" class="cls-2" d="M139.212,153.3s1.006,2.378-1.372,5.4l-3.475,5.121A9.411,9.411,0,0,1,129.7,167.2s-7.773,4.755-9.6,2.469c0,0,2.195,2.286,9.053-4.023,0,0,6.95-2.286,3.292-8.413,0,0-2.195-1.28.823-4.115,0,0,2.286-3.475,4.023-3.018C137.108,150.188,138.48,151.1,139.212,153.3Z" transform="translate(-78.493 -131.326)"/>
        <path id="Path_6458" data-name="Path 6458" class="cls-2" d="M142.167,164.6s1.28,3.2-2.1,6.492l-6.218,4.846s-2.743,2.56-5.944,2.652c0,0-8.047,1.28-8.687,1.554,0,0-2.012-.183-2.743-3.2s.091-.091.091-.091,1.006,4.206,7.133.366c0,0,5.944.914,5.852-1.829,0,0,2.56,1.1,3.018-1.28C132.566,174.11,141.893,170.087,142.167,164.6Z" transform="translate(-78.157 -132.57)"/>
        <path id="Path_6459" data-name="Path 6459" class="cls-2" d="M144.75,177.2s.914,3.292-1.372,5.487c0,0-2.195,2.1-8.5,3.932a24.283,24.283,0,0,0-4.846,2.012s-9.327,4.206-12.528-.183c0,0,4.664,4.115,11.613-2.926,0,0,1.372,1.28,7.773-1.372C136.886,184.058,144.293,181.315,144.75,177.2Z" transform="translate(-78.271 -133.649)"/>
        <g id="Group_1404" data-name="Group 1404" transform="translate(18.068 54.433)">
          <path id="Path_6460" data-name="Path 6460" class="cls-2" d="M128.691,195.958c-5.944-.091-7.041-4.664-7.041-4.664l-4.572-.457c8.413,7.5-8.321,18.837-8.321,18.837-10.059,5.4-13.716-5.852-14.357-8.321,3.566,14.174,6.127,39.595,7.224,50.934H111.5V252.1c.091-1.555.183-3.109.183-4.664,0-1.829,0-3.566-.091-5.4-.091-1.92-.183-3.749-.274-5.669-.091-1.829-.274-3.749-.457-5.578-.091-1.737-.274-3.383-.457-5.121-.183-1.463-.274-2.926-.457-4.389-.091-.732-.091-1.463-.183-2.1a10.4,10.4,0,0,1-.091-4.115,6.3,6.3,0,0,1,.64-1.372c.366-.549.823-1.006,1.189-1.463,1.372-1.646,3.2-2.195,4.938-3.292,1.463-.823,2.926-1.829,4.389-2.835,1.463-.914,2.835-2.012,4.206-3.018,1.1-.732,2.1-1.555,3.109-2.378a12.289,12.289,0,0,0,1.28-1.006c1.1-.183,4.115-3.018,4.115-3.018l7.5-2.835a7.357,7.357,0,0,0,3.292-4.755C141.493,194.5,128.691,195.958,128.691,195.958Z" transform="translate(-94.362 -189.1)"/>
          <path id="Path_6461" data-name="Path 6461" class="cls-2" d="M94.488,202.557c0-.183-.091-.274-.091-.457C94.305,202.1,94.4,202.283,94.488,202.557Z" transform="translate(-94.359 -190.212)"/>
        </g>
        <path id="Path_6462" data-name="Path 6462" class="cls-2" d="M112.688,180.7s-1.646,16.917-11.888,19.386c0,0,7.5-.274,12.253-9.784,0,0,1.555-3.2,5.669,1.1l-.64-1.1-.366-.64s-3.018-1.1-2.835-5.3Z" transform="translate(-76.842 -133.948)"/>
        <path id="Path_6463" data-name="Path 6463" class="cls-3" d="M125.559,157.2s-7.041,4.481-7.681,8.321a5.279,5.279,0,0,0,1.463,4.755s-4.3,1.646-3.2,5.944a5.5,5.5,0,0,0,2.652,3.292s-3.658,1.737-2.652,5.3c0,0,.64,3.658,7.041,3.749,0,0,.823,4.664,7.315,4.572,0,0-6.95,1.1-8.321-3.566,0,0-8.87,0-7.224-8.779l.274-2.012s-1.28-6.4.274-9.51c0,0,.457-2.012-3.2-5.669,0,0,3.566,3.658,5.3.549C117.7,164.424,118.7,160.675,125.559,157.2Z" transform="translate(-77.826 -131.937)"/>
        <path id="Path_6464" data-name="Path 6464" class="cls-3" d="M143.027,194.4l-7.5,2.835s-3.292,2.926-4.115,3.018c0,0-11.613,9.144-14.814,10.059,0,0,17.74-10.79,8.5-14.722l1.829.091s2.1,1.555,7.864-.091Z" transform="translate(-78.194 -135.12)"/>
        <path id="Path_6465" data-name="Path 6465" class="cls-4" d="M122.055,178.433a.09.09,0,0,0-.091.091l-2.012.732a1.215,1.215,0,0,1-1.555-.64l-1.006-2.743a1.215,1.215,0,0,1,.64-1.555l2.012-.732c.091,0,.183-.091.366-.091a2.576,2.576,0,0,1,2.926,1.372C123.244,174.867,124.432,177.244,122.055,178.433Z" transform="translate(-78.254 -133.327)"/>
        <path id="Path_6466" data-name="Path 6466" class="cls-4" d="M124.492,169.361l-.091.091-1.737,1.28a1.17,1.17,0,0,1-1.646-.274l-1.737-2.378a1.17,1.17,0,0,1,.274-1.646l1.737-1.28c.091-.091.183-.091.274-.183a2.592,2.592,0,0,1,3.2.64A2.538,2.538,0,0,1,124.492,169.361Z" transform="translate(-78.404 -132.577)"/>
        <path id="Path_6467" data-name="Path 6467" class="cls-4" d="M123.055,187.825a.09.09,0,0,0-.091.091l-2.012.732a1.185,1.185,0,0,1-1.555-.732l-1.006-2.743a1.215,1.215,0,0,1,.64-1.555l2.012-.732c.091,0,.183-.091.366-.091a2.576,2.576,0,0,1,2.926,1.372C124.244,184.258,125.432,186.727,123.055,187.825Z" transform="translate(-78.339 -134.123)"/>
        <path id="Path_6468" data-name="Path 6468" class="cls-4" d="M130.029,189.8s.823,2.286.549,3.292c0,0-.549.914-2.835.732,0,0-2.286.274-2.743-2.56C125.091,191.355,127.1,191.172,130.029,189.8Z" transform="translate(-78.913 -134.727)"/>
        <path id="Path_6469" data-name="Path 6469" class="cls-4" d="M89.071,139.731s-3.2-5.029-2.286-7.041c0,0,.457-.457,1.006.549l2.926,4.572S91.54,139,89.071,139.731Z" transform="translate(-75.629 -129.831)"/>
        <path id="Path_6470" data-name="Path 6470" class="cls-2" d="M97.3,132.5s3.749,2.286,5.578,9.784c0,0,3.2,10.059,7.133,13.534a26.7,26.7,0,0,1,4.938-2.835s-4.481,3.475.549,8.961l-2.652-.732L108,158.561l-4.023,1.28A17.953,17.953,0,0,0,99.4,144.753C99.495,144.753,102.7,140.638,97.3,132.5Z" transform="translate(-76.542 -129.824)"/>
      </g>
      <g id="Group_1406" data-name="Group 1406" transform="translate(0 85.54)">
        <path id="Path_6471" data-name="Path 6471" class="cls-5" d="M116.071,256.638l1.829-20.758-49.1-4.481L66.6,256.638Z" transform="translate(-66.6 -223.827)"/>
        <rect id="Rectangle_947" data-name="Rectangle 947" class="cls-6" width="7.956" height="41.241" transform="translate(6.222 7.923) rotate(-84.791)"/>
        <path id="Path_6472" data-name="Path 6472" class="cls-7" d="M91.381,256.638l1.92-22.952L68.795,231.4,66.6,256.638Z" transform="translate(-66.6 -223.827)"/>
        <path id="Path_6473" data-name="Path 6473" class="cls-5" d="M76.091,247.023a3.626,3.626,0,1,0-3.292-3.932A3.657,3.657,0,0,0,76.091,247.023Z" transform="translate(-67.129 -224.544)"/>
        <path id="Path_6474" data-name="Path 6474" class="cls-5" d="M78.724,258.639a3.707,3.707,0,0,0-3.292-3.841,3.6,3.6,0,0,0-3.932,3.292v.549Z" transform="translate(-67.019 -225.827)"/>
      </g>
    </g>
  </g>
</svg>
