<?xml version="1.0" encoding="utf-8"?>
<!-- Generator: Adobe Illustrator 22.0.0, SVG Export Plug-In . SVG Version: 6.00 Build 0)  -->
<svg version="1.1" id="图层_1" xmlns="http://www.w3.org/2000/svg" xmlns:xlink="http://www.w3.org/1999/xlink" x="0px" y="0px"
	 viewBox="0 0 663.9 213.4" style="enable-background:new 0 0 663.9 213.4;" xml:space="preserve">
<style type="text/css">
	.st0{fill-rule:evenodd;clip-rule:evenodd;fill:#9FD9F6;}
	.st1{fill:#00A0E9;}
	.st2{fill-rule:evenodd;clip-rule:evenodd;fill:#00A0E9;}
	.st3{fill-rule:evenodd;clip-rule:evenodd;fill:#FDD000;}
</style>
<path class="st0" d="M169.9,64.3c21.8-1.1,40.5,15.6,41.6,37.5c1.1,21.8-15.6,40.5-37.5,41.6c-21.8,1.1-40.5-15.6-41.6-37.5
	C131.3,84.1,148,65.5,169.9,64.3L169.9,64.3z M162.3,104.4l10.1,9.1l9.1-10.1l-10.1-9.1L162.3,104.4z"/>
<path class="st1" d="M277.8,117.3v-7.1h-30.1V73h77.7v37.3h-16.9V95.8h-43.8v5.9h40l0.1,8.5h-9.5v7.1h30.1v8.5h-30.1v13.7h-17.5
	v-13.7h-30.1v-8.5H277.8L277.8,117.3z M264.7,87.4h43.8v-5.8h-43.8V87.4L264.7,87.4z M369.6,107.3h54v32.3h-47.4l-0.1-7.7h30.4
	v-15.8h-53.9V76.8h7.6l0.1-4.6h17.9l-0.2,4.6h45.3v27.2h-19.6l0-7.6h2.6V84.7h-36.6V107.3L369.6,107.3z M400.1,129l0-8.7h-46.9v8.7
	H400.1L400.1,129z M455.2,94.7h70.1v8.2h-26.6v5.6h26.5v8.2h-26.5v14.6h33.8v8.2h-84v-8.2h33.2v-14.6h-26.6v-8.2h26.6v-5.6h-26.6
	V94.7L455.2,94.7z M518.7,72.5l10,14h3.7l0,6.7h-17.7l-8.9-11.8h-31.8l5.7-8.9H518.7L518.7,72.5z M465,93.2l12.7-20.7H460l-9.1,14
	l-2.4,0l0,6.7H465L465,93.2z M471.8,119.1h-16.6l5.5,10.5h16.8l0-4.1h-2.6L471.8,119.1L471.8,119.1z M524.6,119.1H508l-3,6.4h-2.7
	l0,4.1h16.7L524.6,119.1L524.6,119.1z M612.2,76.5h22.1v7.7h-29.5l-11.2,12.4h20l0,6.8H575v-7.7l10.7-11.6h-11.7v-7.7h21.8v-4.5
	h16.3V76.5L612.2,76.5z M593.4,139.5h-19.8l0-9.5h4.6v-23.9h15.2V139.5L593.4,139.5z M615,106.1h15.2V130h4.2l0,9.5H615V106.1
	L615,106.1z M611.7,139.5h-15.1v-33.3h15.1V139.5L611.7,139.5z M551.2,139.6h17.4l5-27.4h-16.4l-2.1,19.5h-3.9L551.2,139.6
	L551.2,139.6z M556.4,87.5l-5.1-15.2h16.4l3.2,9.4h2.7l0,5.8H556.4L556.4,87.5z M556.4,107.3l17.3,0l0-5.7H571l-3.2-9.4h-16.4
	L556.4,107.3L556.4,107.3z M634.3,103.5l-6.6-15h-14.2l6.4,15H634.3z"/>
<polygon class="st1" points="244.2,188.3 244.2,168.5 258.9,168.5 258.9,171.9 248.2,171.9 248.2,176.3 258.2,176.3 258.2,179.6 
	248.2,179.6 248.2,185 259.3,185 259.3,188.3 "/>
<path class="st1" d="M284.7,188.3h-4.4l-1.7-4.5h-7.9l-1.6,4.5h-4.3l7.7-19.9h4.2L284.7,188.3L284.7,188.3z M277.3,180.5l-2.7-7.4
	l-2.7,7.4H277.3z"/>
<path class="st1" d="M290.9,188.3v-19.9h8.4c2.1,0,3.7,0.2,4.6,0.5c1,0.4,1.7,1,2.3,1.9c0.6,0.9,0.9,2,0.9,3.1
	c0,1.5-0.4,2.7-1.3,3.7c-0.9,1-2.2,1.6-3.9,1.8c0.9,0.5,1.6,1.1,2.1,1.7c0.6,0.6,1.3,1.7,2.3,3.2l2.4,3.9H304l-2.9-4.3
	c-1-1.5-1.7-2.5-2.1-2.9c-0.4-0.4-0.8-0.7-1.2-0.8c-0.4-0.1-1.1-0.2-2-0.2H295v8.3H290.9L290.9,188.3z M295,176.9h3
	c1.9,0,3.1-0.1,3.6-0.2c0.5-0.2,0.9-0.4,1.1-0.8c0.3-0.4,0.4-0.9,0.4-1.5c0-0.7-0.2-1.2-0.5-1.6c-0.4-0.4-0.9-0.7-1.5-0.8
	c-0.3,0-1.3-0.1-2.9-0.1H295V176.9z"/>
<polygon class="st1" points="315.2,188.3 315.2,168.7 319.2,168.7 319.2,185 329.2,185 329.2,188.3 "/>
<polygon class="st1" points="338.8,188.3 338.8,180 331.5,168.5 336.2,168.5 340.9,176.3 345.5,168.5 350.1,168.5 342.8,180 
	342.8,188.3 "/>
<path class="st1" d="M356.2,168.5h7.9c1.6,0,2.7,0.1,3.5,0.2c0.8,0.1,1.5,0.4,2.1,0.8c0.6,0.4,1.1,1,1.5,1.7
	c0.4,0.7,0.6,1.5,0.6,2.3c0,0.9-0.2,1.8-0.7,2.6c-0.5,0.8-1.2,1.4-2,1.7c1.2,0.4,2.1,1,2.8,1.8c0.7,0.9,1,1.8,1,3
	c0,0.9-0.2,1.8-0.6,2.6c-0.4,0.9-1,1.5-1.7,2c-0.7,0.5-1.6,0.8-2.7,0.9c-0.7,0.1-2.3,0.1-4.8,0.1h-6.8V168.5L356.2,168.5z
	 M360.2,171.8v4.6h2.6c1.6,0,2.5,0,2.9-0.1c0.7-0.1,1.2-0.3,1.6-0.7c0.4-0.4,0.6-0.9,0.6-1.6c0-0.6-0.2-1.1-0.5-1.5
	c-0.3-0.4-0.8-0.6-1.5-0.7c-0.4,0-1.5-0.1-3.4-0.1H360.2L360.2,171.8z M360.2,179.7v5.3h3.7c1.4,0,2.4,0,2.8-0.1
	c0.6-0.1,1.1-0.4,1.5-0.8c0.4-0.4,0.6-1,0.6-1.7c0-0.6-0.1-1.1-0.4-1.5c-0.3-0.4-0.7-0.7-1.3-0.9c-0.5-0.2-1.7-0.3-3.6-0.3H360.2z"
	/>
<rect x="380.2" y="168.5" class="st1" width="4" height="19.9"/>
<path class="st1" d="M392.1,188.3v-19.9h8.4c2.1,0,3.7,0.2,4.6,0.5c1,0.4,1.7,1,2.3,1.9c0.6,0.9,0.9,2,0.9,3.1
	c0,1.5-0.4,2.7-1.3,3.7c-0.9,1-2.2,1.6-3.9,1.8c0.9,0.5,1.6,1.1,2.1,1.7c0.6,0.6,1.3,1.7,2.3,3.2l2.4,3.9h-4.8l-2.9-4.3
	c-1-1.5-1.7-2.5-2.1-2.9c-0.4-0.4-0.8-0.7-1.2-0.8c-0.4-0.1-1.1-0.2-2-0.2h-0.8v8.3H392.1L392.1,188.3z M396.1,176.9h3
	c1.9,0,3.1-0.1,3.6-0.2c0.5-0.2,0.9-0.4,1.1-0.8c0.3-0.4,0.4-0.9,0.4-1.5c0-0.7-0.2-1.2-0.5-1.6c-0.4-0.4-0.9-0.7-1.5-0.8
	c-0.3,0-1.3-0.1-2.9-0.1h-3.1V176.9z"/>
<path class="st1" d="M416.2,168.5h7.3c1.7,0,2.9,0.1,3.8,0.4c1.2,0.3,2.2,1,3,1.8c0.8,0.9,1.5,1.9,1.9,3.2c0.4,1.3,0.6,2.8,0.6,4.7
	c0,1.6-0.2,3-0.6,4.2c-0.5,1.4-1.2,2.6-2.1,3.5c-0.7,0.7-1.6,1.2-2.8,1.6c-0.9,0.3-2.1,0.4-3.6,0.4h-7.5V168.5L416.2,168.5z
	 M420.2,171.9V185h3c1.1,0,1.9-0.1,2.4-0.2c0.6-0.2,1.2-0.4,1.6-0.8c0.4-0.4,0.8-1,1-1.9c0.3-0.9,0.4-2.1,0.4-3.6
	c0-1.5-0.1-2.7-0.4-3.5c-0.3-0.8-0.7-1.5-1.1-1.9c-0.5-0.5-1.1-0.8-1.9-0.9c-0.6-0.1-1.7-0.2-3.3-0.2H420.2z"/>
<path class="st1" d="M459.3,181l3.9,1.2c-0.6,2.2-1.6,3.8-3,4.8c-1.4,1-3.1,1.6-5.3,1.6c-2.6,0-4.8-0.9-6.5-2.7
	c-1.7-1.8-2.5-4.3-2.5-7.4c0-3.3,0.9-5.9,2.6-7.7c1.7-1.8,3.9-2.7,6.7-2.7c2.4,0,4.4,0.7,5.9,2.2c0.9,0.8,1.6,2.1,2,3.7l-4,0.9
	c-0.2-1-0.7-1.8-1.5-2.4c-0.7-0.6-1.7-0.9-2.7-0.9c-1.5,0-2.7,0.5-3.6,1.6c-0.9,1.1-1.4,2.8-1.4,5.1c0,2.5,0.4,4.3,1.4,5.4
	c0.9,1.1,2.1,1.6,3.5,1.6c1.1,0,2-0.3,2.8-1C458.4,183.6,458.9,182.5,459.3,181z"/>
<path class="st1" d="M488.6,188.3h-4.4l-1.7-4.5h-7.9l-1.6,4.5h-4.3l7.7-19.9h4.2L488.6,188.3L488.6,188.3z M481.2,180.5l-2.7-7.4
	l-2.7,7.4H481.2z"/>
<path class="st1" d="M493.8,181.9l3.9-0.4c0.2,1.3,0.7,2.3,1.4,2.9c0.7,0.6,1.7,0.9,2.9,0.9c1.3,0,2.3-0.3,2.9-0.8
	c0.7-0.5,1-1.2,1-1.9c0-0.5-0.1-0.9-0.4-1.2c-0.3-0.3-0.8-0.6-1.4-0.9c-0.5-0.2-1.5-0.5-3.2-0.9c-2.1-0.5-3.7-1.2-4.5-2
	c-1.2-1.1-1.8-2.4-1.8-4c0-1,0.3-2,0.9-2.8c0.6-0.9,1.4-1.5,2.5-2c1.1-0.5,2.4-0.7,3.9-0.7c2.5,0,4.4,0.5,5.6,1.6
	c1.3,1.1,1.9,2.6,2,4.4l-4,0.2c-0.2-1-0.5-1.8-1.1-2.2c-0.6-0.4-1.4-0.7-2.5-0.7c-1.2,0-2.1,0.2-2.7,0.7c-0.4,0.3-0.6,0.7-0.6,1.2
	c0,0.5,0.2,0.9,0.6,1.2c0.5,0.4,1.7,0.9,3.7,1.3c2,0.5,3.4,0.9,4.3,1.4c0.9,0.5,1.7,1.2,2.2,2c0.5,0.9,0.8,1.9,0.8,3.2
	c0,1.1-0.3,2.2-0.9,3.2c-0.6,1-1.5,1.7-2.7,2.2c-1.2,0.5-2.6,0.7-4.3,0.7c-2.5,0-4.4-0.6-5.8-1.7
	C494.9,185.8,494.1,184.1,493.8,181.9z"/>
<polygon class="st1" points="517.4,188.3 517.4,168.5 521.4,168.5 521.4,176.3 529.3,176.3 529.3,168.5 533.3,168.5 533.3,188.3 
	529.3,188.3 529.3,179.7 521.4,179.7 521.4,188.3 "/>
<polygon class="st1" points="541.6,188.3 541.6,168.5 555.2,168.5 555.2,171.9 545.6,171.9 545.6,176.6 553.9,176.6 553.9,179.9 
	545.6,179.9 545.6,188.3 "/>
<polygon class="st1" points="562.7,188.3 562.7,168.7 566.7,168.7 566.7,185 576.7,185 576.7,188.3 "/>
<path class="st1" d="M582.8,178.5c0-2,0.3-3.7,0.9-5.1c0.5-1,1.1-1.9,1.8-2.7c0.8-0.8,1.6-1.4,2.6-1.8c1.2-0.5,2.7-0.8,4.3-0.8
	c2.9,0,5.3,0.9,7,2.7c1.8,1.8,2.6,4.3,2.6,7.6c0,3.2-0.9,5.7-2.6,7.5c-1.7,1.8-4.1,2.7-7,2.7c-3,0-5.3-0.9-7-2.7
	C583.7,184.2,582.8,181.7,582.8,178.5L582.8,178.5z M587,178.4c0,2.2,0.5,4,1.6,5.1c1,1.2,2.4,1.7,4,1.7c1.6,0,2.9-0.6,3.9-1.7
	c1-1.2,1.5-2.9,1.5-5.2c0-2.3-0.5-4-1.5-5.1c-1-1.1-2.3-1.7-4-1.7c-1.7,0-3,0.6-4,1.7C587.5,174.4,587,176.1,587,178.4z"/>
<polygon class="st1" points="612.1,188.3 607.4,168.5 611.5,168.5 614.5,182.1 618.1,168.5 622.9,168.5 626.4,182.4 629.4,168.5 
	633.5,168.5 628.6,188.3 624.4,188.3 620.4,173.5 616.5,188.3 "/>
<path class="st0" d="M3.2,76.6c0,0,98.1-19.8,148,76.7C148.3,155.1,51.5,172,3.2,76.6z"/>
<path class="st2" d="M53.1,148.3c35.8,21.3,87.3,25.4,145.9,0.5c-64,72.5-165.8,41.3-184.5,29.4L53.1,148.3z"/>
<path class="st2" d="M43.9,68.7c0,0,49.5,5.2,80.3,36.6c0,0-20.8-62.5-80.8-89.1C41,18,32.7,39.2,43.9,68.7z"/>
<polygon class="st3" points="215.6,97.2 231.8,103.6 214,114 "/>
<path class="st3" d="M384.8,95.8l3.4-3.4l3.4,3.4l-3.4,3.4L384.8,95.8L384.8,95.8z M388.2,86.4c-5.2,0-9.4,4.2-9.4,9.4
	c0,5.2,4.2,9.4,9.4,9.4c5.2,0,9.4-4.2,9.4-9.4C397.6,90.6,393.4,86.4,388.2,86.4z"/>
</svg>
