<svg xmlns="http://www.w3.org/2000/svg" viewBox="2052 12 65.579 73.91">
  <defs>
    <style>
      .cls-1 {
        fill: #8ed8f8;
      }

      .cls-1, .cls-3, .cls-4 {
        fill-rule: evenodd;
      }

      .cls-2, .cls-3 {
        fill: #00aeef;
      }

      .cls-4 {
        fill: #ffcb05;
      }
    </style>
  </defs>
  <g id="Group_86" data-name="Group 86" transform="translate(2052 12)">
    <path id="Path_77" data-name="Path 77" class="cls-1" d="M150.139,48.063a10.853,10.853,0,1,1-10.277,11.4,10.85,10.85,0,0,1,10.277-11.4Zm-2.083,10.962,2.768,2.494,2.494-2.768-2.768-2.494Z" transform="translate(-101.524 -34.881)"/>
    <path id="Path_78" data-name="Path 78" class="cls-2" d="M6.686,210.443v-1.1H2v-5.81H14.113v5.81H11.482V207.1H4.631v.932h6.221l.027,1.315H9.4v1.1h4.686v1.315H9.427V213.9H6.686v-2.138H2v-1.315Zm-2.055-4.659h6.824v-.9H4.631v.9Zm16.333,3.1H29.35v5.042H22.005l-.027-1.206h4.741v-2.466H18.333v-6.139h1.178V203.4h2.8l-.027.713h7.043v4.22H26.28v-1.178h.384v-1.809h-5.7v3.535Zm4.768,3.4v-1.343H18.415v1.343Zm8.578-5.344H45.217v1.288H41.079v.877h4.138v1.288H41.079v2.275H46.34v1.288H33.268v-1.288h5.179v-2.275H34.31V209.1h4.138v-.877H34.31v-1.288Zm9.866-3.453,1.562,2.192h.575v1.041h-2.74l-1.4-1.836h-4.96l.877-1.4Zm-8.358,3.206,1.973-3.206H35.022L33.6,205.675h-.356v1.041h2.576Zm1.069,4.028H34.31l.85,1.644h2.6v-.63h-.411l-.466-1.014Zm8.221,0H42.531l-.466.987h-.411v.63h2.6l.85-1.617Zm13.62-6.632h3.426v1.206H57.576l-1.754,1.918h3.1v1.069h-6V207.1l1.672-1.809H52.78v-1.206h3.4V203.4h2.549v.685Zm-2.9,9.811H52.753v-1.48h.713v-3.727h2.357V213.9Zm3.343-5.179h2.357v3.727h.658v1.48H59.165v-5.207Zm-.493,5.179H56.315v-5.179h2.357V213.9Zm-9.427.027h2.713l.795-4.275H50.2l-.329,3.042h-.6l-.027,1.233Zm.795-8.112-.795-2.357h2.549l.493,1.452H52.7v.9Zm0,3.069h2.686V208h-.411l-.493-1.452H49.272l.767,2.329Zm12.14-.575-1.041-2.329h-2.22l.987,2.329Z" transform="translate(-1.452 -147.66)"/>
    <path id="Path_79" data-name="Path 79" class="cls-2" d="M0,261.3v-3.1H2.3v.521H.63v.685H2.165v.521H.63v.85H2.357v.521Z" transform="translate(0 -187.442)"/>
    <path id="Path_80" data-name="Path 80" class="cls-2" d="M14.8,261.3h-.685l-.274-.713H12.6l-.247.713H11.7l1.206-3.1h.658l1.233,3.1Zm-1.151-1.233-.438-1.151-.411,1.151Z" transform="translate(-8.494 -187.442)"/>
    <path id="Path_81" data-name="Path 81" class="cls-2" d="M26.6,261.3v-3.1h1.315a2.176,2.176,0,0,1,.713.082.758.758,0,0,1,.356.3.946.946,0,0,1,.137.493.86.86,0,0,1-.192.575.956.956,0,0,1-.6.274,1.712,1.712,0,0,1,.329.247,3.346,3.346,0,0,1,.356.493l.384.6h-.767l-.438-.685c-.164-.247-.274-.384-.329-.466a.492.492,0,0,0-.192-.137.852.852,0,0,0-.3-.027H27.23v1.288H26.6Zm.6-1.781h.466a2.258,2.258,0,0,0,.548-.027.28.28,0,0,0,.164-.137.3.3,0,0,0,.055-.219.335.335,0,0,0-.082-.247.347.347,0,0,0-.247-.11h-.959v.74Z" transform="translate(-19.31 -187.442)"/>
    <path id="Path_82" data-name="Path 82" class="cls-2" d="M40.3,261.369V258.3h.63v2.549h1.562v.521Z" transform="translate(-29.256 -187.515)"/>
    <path id="Path_83" data-name="Path 83" class="cls-2" d="M50.724,261.3v-1.315L49.6,258.2h.74l.712,1.206.713-1.206h.713l-1.124,1.781V261.3Z" transform="translate(-36.007 -187.442)"/>
    <path id="Path_84" data-name="Path 84" class="cls-2" d="M63.6,258.2h1.233a2.837,2.837,0,0,1,.548.027.844.844,0,0,1,.329.137,1.045,1.045,0,0,1,.247.247.758.758,0,0,1,.082.356.773.773,0,0,1-.11.411.294.294,0,1,0,.11.548.744.744,0,0,1,.164.466.773.773,0,0,1-.11.411.806.806,0,0,1-.274.329.673.673,0,0,1-.411.137c-.11,0-.356.027-.74.027H63.627v-3.1Zm.63.521v.713h.877a.347.347,0,0,0,.247-.11.335.335,0,0,0,.082-.247.442.442,0,0,0-.082-.247.517.517,0,0,0-.247-.11H64.23Zm0,1.206v.822h.575a1.706,1.706,0,0,0,.438-.027.551.551,0,0,0,.219-.11.409.409,0,0,0,.082-.274.8.8,0,0,0-.055-.247.491.491,0,0,0-.192-.137,2.045,2.045,0,0,0-.548-.055H64.23Z" transform="translate(-46.171 -187.442)"/>
    <rect id="Rectangle_193" data-name="Rectangle 193" class="cls-2" width="0.63" height="3.097" transform="translate(21.156 70.758)"/>
    <path id="Path_85" data-name="Path 85" class="cls-2" d="M84,261.3v-3.1h1.315a2.176,2.176,0,0,1,.713.082.758.758,0,0,1,.356.3.946.946,0,0,1,.137.493.86.86,0,0,1-.192.575.956.956,0,0,1-.6.274,1.711,1.711,0,0,1,.329.247,3.347,3.347,0,0,1,.356.493l.384.6h-.74l-.438-.685c-.164-.247-.274-.384-.329-.466a.491.491,0,0,0-.192-.137.852.852,0,0,0-.3-.027h-.137v1.288H84Zm.63-1.781H85.1a2.258,2.258,0,0,0,.548-.027.28.28,0,0,0,.164-.137.3.3,0,0,0,.055-.219.335.335,0,0,0-.082-.247.347.347,0,0,0-.247-.11h-.959v.74Z" transform="translate(-60.98 -187.442)"/>
    <path id="Path_86" data-name="Path 86" class="cls-2" d="M97.7,258.2h1.151a2.692,2.692,0,0,1,.575.055,1,1,0,0,1,.466.274,1.491,1.491,0,0,1,.3.493,2.641,2.641,0,0,1,.11.74,2.4,2.4,0,0,1-.082.658,1.538,1.538,0,0,1-.329.548.97.97,0,0,1-.438.247,1.608,1.608,0,0,1-.548.055H97.727V258.2Zm.63.521v2.055H98.8a1.455,1.455,0,0,0,.384-.027.369.369,0,0,0,.247-.137.983.983,0,0,0,.164-.3,1.7,1.7,0,0,0,.055-.576,2.6,2.6,0,0,0-.055-.548,1.485,1.485,0,0,0-.164-.3.515.515,0,0,0-.3-.137,2.242,2.242,0,0,0-.521-.027Z" transform="translate(-70.926 -187.442)"/>
    <path id="Path_87" data-name="Path 87" class="cls-2" d="M116.583,259.928l.6.192a1.286,1.286,0,0,1-.466.74,1.332,1.332,0,0,1-.822.247,1.363,1.363,0,0,1-1.014-.411,1.544,1.544,0,0,1-.384-1.151,1.693,1.693,0,0,1,.411-1.206,1.4,1.4,0,0,1,1.041-.438,1.335,1.335,0,0,1,.932.329,1.446,1.446,0,0,1,.329.575l-.63.137a.613.613,0,0,0-.63-.521.69.69,0,0,0-.548.247,1.251,1.251,0,0,0-.219.795,1.284,1.284,0,0,0,.219.822.69.69,0,0,0,.548.247.672.672,0,0,0,.438-.164A.818.818,0,0,0,116.583,259.928Z" transform="translate(-83.122 -187.224)"/>
    <path id="Path_88" data-name="Path 88" class="cls-2" d="M130.6,261.3h-.685l-.274-.713H128.4l-.247.713H127.5l1.206-3.1h.658l1.233,3.1Zm-1.151-1.233-.438-1.151-.411,1.151Z" transform="translate(-92.559 -187.442)"/>
    <path id="Path_89" data-name="Path 89" class="cls-2" d="M141.8,260.065l.6-.055a.671.671,0,0,0,.219.439.759.759,0,0,0,.439.137.784.784,0,0,0,.466-.137.379.379,0,0,0,.164-.3.4.4,0,0,0-.055-.192.433.433,0,0,0-.219-.137,4.683,4.683,0,0,0-.493-.137,1.965,1.965,0,0,1-.713-.3.794.794,0,0,1-.274-.63.828.828,0,0,1,.137-.438.709.709,0,0,1,.384-.3,1.394,1.394,0,0,1,.6-.11,1.339,1.339,0,0,1,.877.247.851.851,0,0,1,.3.685l-.63.027a.619.619,0,0,0-.164-.356.535.535,0,0,0-.384-.11.7.7,0,0,0-.439.11.277.277,0,0,0-.11.192.249.249,0,0,0,.082.192,2.255,2.255,0,0,0,.576.219,4.063,4.063,0,0,1,.685.219,1.169,1.169,0,0,1,.329.3.939.939,0,0,1,.11.493.914.914,0,0,1-.548.849,1.711,1.711,0,0,1-.685.11,1.323,1.323,0,0,1-.9-.274A.959.959,0,0,1,141.8,260.065Z" transform="translate(-102.941 -187.224)"/>
    <path id="Path_90" data-name="Path 90" class="cls-2" d="M155.2,261.3v-3.1h.63v1.206h1.206V258.2h.63v3.1h-.63v-1.37H155.83v1.37Z" transform="translate(-112.668 -187.442)"/>
    <path id="Path_91" data-name="Path 91" class="cls-2" d="M168.9,261.3v-3.1h2.11v.521h-1.48v.74h1.288v.521H169.53V261.3Z" transform="translate(-122.614 -187.442)"/>
    <path id="Path_92" data-name="Path 92" class="cls-2" d="M180.9,261.369V258.3h.63v2.549h1.535v.521Z" transform="translate(-131.326 -187.515)"/>
    <path id="Path_93" data-name="Path 93" class="cls-2" d="M192.3,259.689a2.292,2.292,0,0,1,.137-.795,1.143,1.143,0,0,1,.3-.411.842.842,0,0,1,.411-.274,1.659,1.659,0,0,1,.658-.11,1.467,1.467,0,0,1,1.1.411,1.624,1.624,0,0,1,.411,1.178,1.668,1.668,0,0,1-.411,1.178,1.667,1.667,0,0,1-2.192,0,1.669,1.669,0,0,1-.411-1.178Zm.658-.027a1.15,1.15,0,0,0,.247.795.74.74,0,0,0,.6.274.705.705,0,0,0,.6-.274,1.15,1.15,0,0,0,.247-.795,1.25,1.25,0,0,0-.219-.795.845.845,0,0,0-.63-.274.794.794,0,0,0-.63.274A1.25,1.25,0,0,0,192.958,259.662Z" transform="translate(-139.601 -187.369)"/>
    <path id="Path_94" data-name="Path 94" class="cls-2" d="M207.04,261.3l-.74-3.1h.63l.466,2.11.575-2.11h.74l.548,2.165.466-2.165h.63l-.74,3.1h-.685l-.6-2.329-.6,2.329Z" transform="translate(-149.765 -187.442)"/>
    <path id="Path_95" data-name="Path 95" class="cls-1" d="M10.7,59.083S37.584,53.657,51.258,80.1C50.464,80.623,23.936,85.254,10.7,59.083Z" transform="translate(-7.768 -42.558)"/>
    <path id="Path_96" data-name="Path 96" class="cls-3" d="M32.578,132.1c9.811,5.837,23.924,6.961,39.983.137C55.022,152.105,27.125,143.555,22,140.294Z" transform="translate(-15.971 -95.899)"/>
    <path id="Path_97" data-name="Path 97" class="cls-3" d="M47.252,14.387s13.565,1.425,22.006,10.03c0,0-5.7-17.128-22.143-24.417C46.457.493,44.182,6.3,47.252,14.387Z" transform="translate(-33.166)"/>
    <path id="Path_98" data-name="Path 98" class="cls-4" d="M221.938,81l4.439,1.754L221.5,85.6Z" transform="translate(-160.799 -58.802)"/>
    <path id="Path_99" data-name="Path 99" class="cls-4" d="M77.432,213.052l.521-.521.521.521-.521.521-.521-.521Zm.521-1.452a1.452,1.452,0,1,0,1.452,1.452A1.462,1.462,0,0,0,77.952,211.6Z" transform="translate(-55.536 -153.612)"/>
  </g>
</svg>
