<svg id="Group_1391" data-name="Group 1391" xmlns="http://www.w3.org/2000/svg" viewBox="0 0 209.157 234.415">
  <defs>
    <style>
      .cls-1 {
        fill: #5e6470;
      }

      .cls-2 {
        fill: #d8d8d8;
      }

      .cls-3 {
        fill: #b4357e;
      }

      .cls-4 {
        fill: #c4c4c3;
      }

      .cls-5 {
        fill: #fcdaa4;
      }

      .cls-6 {
        fill: #fdbe73;
      }

      .cls-7 {
        fill: #fff;
      }

      .cls-8 {
        fill: #ffe1ab;
      }

      .cls-9 {
        fill: #dd7ec0;
      }

      .cls-10 {
        fill: #efb678;
      }

      .cls-11 {
        fill: #353535;
      }

      .cls-12 {
        fill: #a751a3;
      }

      .cls-13 {
        fill: #41444c;
      }
    </style>
  </defs>
  <path id="Path_6345" data-name="Path 6345" class="cls-1" d="M6.149,244.64H209.157L188.913,189.3l-84.287,38.785L20.244,189.3,0,244.64Z" transform="translate(0 -10.225)"/>
  <g id="Group_1332" data-name="Group 1332" transform="translate(17.312 153.628)">
    <path id="Path_6346" data-name="Path 6346" class="cls-1" d="M193.875,198.347l-3.216-10.5-31.69-12.392h0L140.332,162.4H71.748l-18.73,13.055-31.69,12.392L18.3,197.969a117.733,117.733,0,0,0,25.92,21.947h0a122.325,122.325,0,0,0,14.757,7.852h.095q3.831,1.7,7.946,3.122h0a116.962,116.962,0,0,0,69.908,2.743h0c2.649-.757,5.2-1.514,7.852-2.46l.851-.284a70.41,70.41,0,0,0,7.379-2.933c.189-.095.284-.189.473-.189,2.27-1.041,4.446-2.081,6.622-3.216a10.321,10.321,0,0,1,1.041-.568c2.176-1.135,4.257-2.365,6.338-3.595.473-.284,1.041-.662,1.514-.946,1.987-1.324,3.973-2.554,5.865-3.973l1.135-.851c1.608-1.23,3.311-2.46,4.825-3.784l1.419-1.135c.095-.095.284-.189.378-.284h0A124.322,124.322,0,0,0,193.875,198.347Z" transform="translate(-18.3 -162.4)"/>
  </g>
  <path id="Path_6347" data-name="Path 6347" class="cls-2" d="M128.037,244.64l6.433-32.163L109.685,189.3,84.9,212.571l6.243,32.069Z" transform="translate(-4.586 -10.225)"/>
  <path id="Path_6348" data-name="Path 6348" class="cls-3" d="M120.1,245.207l-2.27-45.407H103.265L100.9,245.207Z" transform="translate(-5.45 -10.792)"/>
  <g id="Group_1390" data-name="Group 1390" transform="translate(50.516)">
    <g id="Group_1386" data-name="Group 1386" transform="translate(0.132)">
      <g id="Group_1384" data-name="Group 1384" transform="translate(0 19.393)">
        <g id="Group_1339" data-name="Group 1339" transform="translate(20.112 134.235)">
          <g id="Group_1338" data-name="Group 1338">
            <g id="Group_1337" data-name="Group 1337">
              <g id="Group_1336" data-name="Group 1336">
                <g id="Group_1335" data-name="Group 1335">
                  <g id="Group_1334" data-name="Group 1334">
                    <g id="Group_1333" data-name="Group 1333">
                      <rect id="Rectangle_942" data-name="Rectangle 942" class="cls-4" width="68.868" height="18.636"/>
                    </g>
                  </g>
                </g>
              </g>
            </g>
          </g>
        </g>
        <g id="Group_1346" data-name="Group 1346" transform="translate(0 62.355)">
          <g id="Group_1345" data-name="Group 1345">
            <g id="Group_1344" data-name="Group 1344">
              <g id="Group_1343" data-name="Group 1343">
                <g id="Group_1342" data-name="Group 1342">
                  <g id="Group_1341" data-name="Group 1341">
                    <g id="Group_1340" data-name="Group 1340">
                      <path id="Path_6349" data-name="Path 6349" class="cls-5" d="M67.03,99.834c1.7,8.135.284,15.325-3.216,16.082s-7.852-5.2-9.554-13.338S53.975,87.252,57.475,86.5C61.07,85.644,65.327,91.7,67.03,99.834Z" transform="translate(-53.54 -86.416)"/>
                    </g>
                  </g>
                </g>
              </g>
            </g>
          </g>
        </g>
        <g id="Group_1353" data-name="Group 1353" transform="translate(94.693 62.355)">
          <g id="Group_1352" data-name="Group 1352">
            <g id="Group_1351" data-name="Group 1351">
              <g id="Group_1350" data-name="Group 1350">
                <g id="Group_1349" data-name="Group 1349">
                  <g id="Group_1348" data-name="Group 1348">
                    <g id="Group_1347" data-name="Group 1347">
                      <path id="Path_6350" data-name="Path 6350" class="cls-6" d="M154.359,99.834c-1.7,8.135-.284,15.325,3.216,16.082s7.852-5.2,9.554-13.338.284-15.325-3.216-16.082C160.413,85.644,156.062,91.7,154.359,99.834Z" transform="translate(-153.64 -86.416)"/>
                    </g>
                  </g>
                </g>
              </g>
            </g>
          </g>
        </g>
        <g id="Group_1360" data-name="Group 1360" transform="translate(20.112 134.235)">
          <g id="Group_1359" data-name="Group 1359">
            <g id="Group_1358" data-name="Group 1358">
              <g id="Group_1357" data-name="Group 1357">
                <g id="Group_1356" data-name="Group 1356">
                  <g id="Group_1355" data-name="Group 1355">
                    <g id="Group_1354" data-name="Group 1354">
                      <path id="Path_6351" data-name="Path 6351" class="cls-7" d="M74.8,162.4l34.339,25.447-25.069,23.46Z" transform="translate(-74.8 -162.4)"/>
                    </g>
                  </g>
                </g>
              </g>
            </g>
          </g>
        </g>
        <g id="Group_1367" data-name="Group 1367" transform="translate(54.451 134.235)">
          <g id="Group_1366" data-name="Group 1366">
            <g id="Group_1365" data-name="Group 1365">
              <g id="Group_1364" data-name="Group 1364">
                <g id="Group_1363" data-name="Group 1363">
                  <g id="Group_1362" data-name="Group 1362">
                    <g id="Group_1361" data-name="Group 1361">
                      <path id="Path_6352" data-name="Path 6352" class="cls-7" d="M145.534,162.4,111.1,187.847l25.069,23.46Z" transform="translate(-111.1 -162.4)"/>
                    </g>
                  </g>
                </g>
              </g>
            </g>
          </g>
        </g>
        <g id="Group_1369" data-name="Group 1369" transform="translate(23.234 117.207)">
          <g id="Group_1368" data-name="Group 1368">
            <path id="Path_6353" data-name="Path 6353" class="cls-8" d="M109.317,186.875l31.028-22.987v-19.3c-14.1,18.92-31.028,21.474-31.028,21.474S92.29,163.414,78.1,144.4v19.393Z" transform="translate(-78.1 -144.4)"/>
          </g>
        </g>
        <g id="Group_1370" data-name="Group 1370" transform="translate(4.339)">
          <path id="Path_6354" data-name="Path 6354" class="cls-5" d="M108.239,20.5c-58.273,0-49.664,56-49.664,56,3.5,75.868,49.664,82.963,49.664,82.963s46.164-7,49.664-82.963C158,76.5,166.606,20.5,108.239,20.5Z" transform="translate(-58.127 -20.5)"/>
        </g>
        <g id="Group_1377" data-name="Group 1377" transform="translate(38.748 159.682)">
          <g id="Group_1376" data-name="Group 1376">
            <g id="Group_1375" data-name="Group 1375">
              <g id="Group_1374" data-name="Group 1374">
                <g id="Group_1373" data-name="Group 1373">
                  <g id="Group_1372" data-name="Group 1372">
                    <g id="Group_1371" data-name="Group 1371">
                      <path id="Path_6355" data-name="Path 6355" class="cls-9" d="M94.5,204.057l15.7,15.7,15.8-15.7L110.2,189.3Z" transform="translate(-94.5 -189.3)"/>
                    </g>
                  </g>
                </g>
              </g>
            </g>
          </g>
        </g>
        <g id="Group_1383" data-name="Group 1383" transform="translate(23.234 117.302)">
          <g id="Group_1382" data-name="Group 1382">
            <g id="Group_1381" data-name="Group 1381">
              <g id="Group_1380" data-name="Group 1380">
                <g id="Group_1379" data-name="Group 1379">
                  <g id="Group_1378" data-name="Group 1378">
                    <path id="Path_6356" data-name="Path 6356" class="cls-10" d="M109.317,166.163S92.29,163.514,78.1,144.5v7.662c14.19,19.109,31.217,21.663,31.217,21.663s16.933-2.649,31.028-21.474v-7.662C126.251,163.514,109.317,166.163,109.317,166.163Z" transform="translate(-78.1 -144.5)"/>
                  </g>
                </g>
              </g>
            </g>
          </g>
        </g>
      </g>
      <path id="Path_6357" data-name="Path 6357" class="cls-6" d="M160.864,76.5s8.608-56-49.664-56V159.37C111.105,159.465,157.269,152.37,160.864,76.5Z" transform="translate(-56.654 -1.107)"/>
      <g id="Group_1385" data-name="Group 1385" transform="translate(4.262)">
        <path id="Path_6358" data-name="Path 6358" class="cls-11" d="M148.722,35.569a36.945,36.945,0,0,1,10.69-6.811,59.247,59.247,0,0,0-20.433-2.081h0a2.068,2.068,0,0,1-.473-.284,35.287,35.287,0,0,1,10.5-6.527,57.522,57.522,0,0,0-17.6-2.176,37.641,37.641,0,0,1,9.933-6.054,63.648,63.648,0,0,0-31.5-.473A91.965,91.965,0,0,1,123.275,0C93.666,5.581,79.476,17.312,72.76,28.663c-2.46-6.433.189-13.244.189-13.244-12.771,9.46-14.1,26.771-13.338,37.934a63.713,63.713,0,0,0-1.135,21.474c.189,4.73.568,9.271,1.135,13.528h8.325c-7.568-27.623,5.77-45.407,5.77-45.407,8.041,11.636,34.434,11.636,34.434,11.636s26.488,0,34.434-11.636c0,0,13.433,17.784,5.77,45.407h8.514c.568-4.257,1.135-8.608,1.324-13.338.095,0,3.216-22.987-9.46-39.448Z" transform="translate(-58.045 0)"/>
      </g>
      <path id="Path_6359" data-name="Path 6359" class="cls-7" d="M110.03,152.59c10.311,0,18.73-6.338,18.73-14.19H91.3C91.3,146.252,99.719,152.59,110.03,152.59Z" transform="translate(-55.579 -7.476)"/>
    </g>
    <path id="Path_6360" data-name="Path 6360" class="cls-11" d="M91.752,96.281a5.676,5.676,0,1,1-11.352,0A5.612,5.612,0,0,1,86.076,90.7,5.5,5.5,0,0,1,91.752,96.281Z" transform="translate(-54.858 -4.899)"/>
    <path id="Path_6361" data-name="Path 6361" class="cls-11" d="M140.752,96.281a5.676,5.676,0,1,1-11.352,0,5.612,5.612,0,0,1,5.676-5.581A5.553,5.553,0,0,1,140.752,96.281Z" transform="translate(-57.505 -4.899)"/>
    <g id="Group_1387" data-name="Group 1387" transform="translate(54.583 95.166)">
      <path id="Path_6362" data-name="Path 6362" class="cls-5" d="M111.1,100.6l12.582,19.582L111.1,131.25Z" transform="translate(-111.1 -100.6)"/>
    </g>
    <g id="Group_1389" data-name="Group 1389" transform="translate(0 75.311)">
      <g id="Group_1388" data-name="Group 1388">
        <path id="Path_6363" data-name="Path 6363" class="cls-12" d="M155.945,81.682c-22.893-3.689-32.163-1.324-32.163-1.324-11.541,3.406-15.8,2.649-15.8,2.649s-4.257.757-15.8-2.649c0,0-9.176-2.27-31.88,1.324h0l-6.906.946.946,4.446L60.022,88.4s2.649.568,2.933,2.554c-.095,5.2.757,12.3,4.162,16.46,5.77,7,19.109,6.243,26.3,2.46,0,0,7.757-4.068,10.69-15.893,0,0,.662-3.973,3.879-3.973s3.879,3.973,3.879,3.973c2.933,11.919,10.69,15.893,10.69,15.893,7.189,3.784,20.528,4.541,26.3-2.46,3.5-4.162,4.257-11.257,4.162-16.46.284-1.987,2.933-2.554,2.933-2.554l5.3-.757,1.135-5.392ZM96.064,104.2s-3.122,4.825-12.014,6.054c0,0-10.69,1.8-14.663-5.3a24.325,24.325,0,0,1-.946-18.636s.851-3.879,15.609-4.068c0,0,14.947.284,16.176,6.716C100.132,88.966,101.645,96.061,96.064,104.2Zm50.61.757c-4.068,7.095-14.663,5.3-14.663,5.3C123.119,109.115,120,104.2,120,104.2c-5.581-8.135-4.162-15.23-4.162-15.23,1.135-6.527,16.176-6.716,16.176-6.716,14.757.189,15.609,4.068,15.609,4.068A24.325,24.325,0,0,1,146.674,104.953Z" transform="translate(-53.4 -79.611)"/>
      </g>
    </g>
    <path id="Path_6364" data-name="Path 6364" class="cls-11" d="M96.579,72.827a2.988,2.988,0,0,1-3.027,3.027H78.227A2.988,2.988,0,0,1,75.2,72.827h0A2.988,2.988,0,0,1,78.227,69.8H93.552a3.048,3.048,0,0,1,3.027,3.027Z" transform="translate(-54.578 -3.77)"/>
    <path id="Path_6365" data-name="Path 6365" class="cls-11" d="M145.979,72.827a2.988,2.988,0,0,1-3.027,3.027H127.627a2.988,2.988,0,0,1-3.027-3.027h0a2.988,2.988,0,0,1,3.027-3.027h15.325a3.048,3.048,0,0,1,3.027,3.027Z" transform="translate(-57.246 -3.77)"/>
  </g>
  <path id="Path_6366" data-name="Path 6366" class="cls-13" d="M56.608,222.659l12.3,20.528H89.528L73.73,162.4,55,175.455v35.853l12.865-1.419Z" transform="translate(-2.971 -8.772)"/>
  <path id="Path_6367" data-name="Path 6367" class="cls-13" d="M151.879,243.187l11.636-20.528-11.257-12.771,12.865,1.419V175.455L146.487,162.4,130.5,243.187Z" transform="translate(-7.049 -8.772)"/>
  <path id="Path_6368" data-name="Path 6368" class="cls-13" d="M172.6,247.033V233.6l5.581,13.433Z" transform="translate(-9.323 -12.618)"/>
  <path id="Path_6369" data-name="Path 6369" class="cls-13" d="M49.181,247.033V233.6L43.6,247.033Z" transform="translate(-2.355 -12.618)"/>
</svg>
