<svg xmlns="http://www.w3.org/2000/svg" viewBox="0 0 1903.738 1078.181">
  <defs>
    <style>
      .cls-1 {
        fill: #fff;
        opacity: 0.492;
      }

      .cls-2, .cls-3, .cls-5, .cls-6, .cls-7, .cls-8 {
        fill: #1f3558;
      }

      .cls-2 {
        opacity: 0.757;
      }

      .cls-3 {
        opacity: 0.366;
      }

      .cls-4 {
        fill: #b2b8c1;
      }

      .cls-5 {
        opacity: 0.163;
      }

      .cls-6 {
        opacity: 0.353;
      }

      .cls-7 {
        opacity: 0.498;
      }

      .cls-9 {
        fill: #c9ccd1;
      }
    </style>
  </defs>
  <g id="Group_1414" data-name="Group 1414" transform="translate(9 -1406)">
    <g id="Group_1305" data-name="Group 1305" transform="translate(-273 -105)">
      <path id="Path_6241" data-name="Path 6241" class="cls-1" d="M1307.59,120.607h13.379v13.379H1307.59Zm0,93.652h13.379V200.88H1307.59Zm0-60.205h13.379V140.675H1307.59Zm0,100.538h13.379V241.214H1307.59Zm0-60.4h13.379V180.812H1307.59Zm0-20.068h13.379V160.743H1307.59Zm0,60.2h13.379V220.948H1307.59Zm0,120.607h13.379V341.555H1307.59Zm0-20.068h13.379V321.487H1307.59Zm0-60.2h13.379V261.282H1307.59Zm0,100.342h13.379V361.624H1307.59Zm0-60.2h13.379V301.419H1307.59Zm0-20.068h13.379V281.35H1307.59Zm20.068,120.41h13.379V401.76h-13.379Zm0,20.068h13.379V421.829h-13.379Zm0-100.342h13.379V321.487h-13.379Zm0,120.607h13.379V442.094h-13.379ZM1307.59,113.917h13.379V100.538H1307.59Zm20.068,361.624h13.379V462.162h-13.379Zm0-120.607h13.379V341.555h-13.379Zm0,20.068h13.379V361.624h-13.379Zm0,20.068h13.379V381.692h-13.379Zm0,180.812h13.379V562.5h-13.379Zm0,60.2h13.379V622.709h-13.379Zm0-80.273h13.379V542.435h-13.379Zm0-40.137h13.379V502.3h-13.379Zm0,20.068h13.379V522.367h-13.379Zm0-40.137h13.379V482.034h-13.379ZM1307.59,395.071h13.379V381.692H1307.59Zm-20.265-120.41H1300.7V261.282h-13.379Zm0,40.137H1300.7V301.419h-13.379Zm0-20.068H1300.7V281.35h-13.379Zm0-40.137H1300.7V241.214h-13.379Zm0-20.265H1300.7V220.948h-13.379Zm0-40.137H1300.7V180.812h-13.379Zm0-20.068H1300.7V160.743h-13.379Zm0,40.137H1300.7V200.88h-13.379Zm0,200.88H1300.7V401.76h-13.379Zm0,20.068H1300.7V421.829h-13.379Zm0-40.137H1300.7V381.692h-13.379Zm0-20.068H1300.7V361.624h-13.379Zm0-20.068H1300.7V341.555h-13.379Zm0-20.068H1300.7V321.487h-13.379Zm20.265,100.342h13.379V421.829H1307.59Zm0,60.4h13.379V482.034H1307.59Zm0,20.068h13.379V502.3H1307.59Zm0,20.068h13.379V522.367H1307.59Zm0-60.2h13.379V462.162H1307.59Zm0-60.4h13.379V401.76H1307.59Zm0,40.333h13.379V442.094H1307.59Zm0,160.547h13.379V602.64H1307.59Zm-20.265-461.965H1300.7V140.675h-13.379Zm20.265,482.034h13.379V622.709H1307.59Zm0-80.273h13.379V542.435H1307.59Zm-20.265-421.829H1300.7V120.607h-13.379Zm20.265,461.965h13.379V582.572H1307.59Zm0-20.068h13.379V562.5H1307.59ZM1347.727,375h13.379V361.624h-13.379Zm20.068,60.205h13.379V421.829h-13.379Zm0,20.265h13.379V442.094h-13.379Zm-20.068-261.282h13.379V180.812h-13.379Zm20.068,301.418h13.379V482.034h-13.379Zm0-120.607h13.379V361.624h-13.379Zm0,40.137h13.379V401.76h-13.379Zm0-20.068h13.379V381.692h-13.379Zm0,120.607h13.379V502.3h-13.379Zm0-160.744h13.379V341.555h-13.379Zm-20.068-200.88h13.379V140.675h-13.379Zm0,20.068h13.379V160.743h-13.379Zm0-40.137h13.379V120.607h-13.379Zm20.068,401.76h13.379V522.367h-13.379Zm-20.068-421.829h13.379V100.538h-13.379Zm20.068,361.624h13.379V462.162h-13.379Zm0-321.487h13.379V140.675h-13.379Zm0,20.068h13.379V160.743h-13.379Zm0-40.137h13.379V120.607h-13.379Zm0-20.068h13.379V100.538h-13.379Zm0-20.068h13.379V80.47h-13.379Zm0,100.342h13.379V180.812h-13.379Zm0,100.538h13.379V281.35h-13.379Zm0-80.47h13.379V200.88h-13.379Zm0,120.607h13.379V321.487h-13.379Zm0-20.068h13.379V301.419h-13.379Zm0-40.137h13.379V261.282h-13.379Zm0-20.068h13.379V241.214h-13.379Zm0-20.265h13.379V220.948h-13.379Zm-40.137,80.47h13.379V301.419h-13.379Zm0-180.812h13.379V120.607h-13.379Zm0,40.137h13.379V160.743h-13.379Zm0-20.068h13.379V140.675h-13.379Zm0-40.137h13.379V100.538h-13.379Zm20.068,441.9h13.379V542.435h-13.379Zm0-40.137h13.379V502.3h-13.379Zm0,20.068h13.379V522.367h-13.379Zm-20.068-261.085h13.379V261.282h-13.379Zm0-20.068h13.379V241.214h-13.379Zm0-60.4h13.379V180.812h-13.379Zm0,100.538h13.379V281.35h-13.379Zm20.068,200.88h13.379V482.034h-13.379Zm-20.068-261.282h13.379V220.948h-13.379Zm0-20.068h13.379V200.88h-13.379Zm20.068,261.282h13.379V462.162h-13.379Zm0-180.812h13.379V281.35h-13.379Zm0,40.137h13.379V321.487h-13.379Zm0-60.2h13.379V261.282h-13.379Zm0,40.137h13.379V301.419h-13.379Zm0-80.47h13.379V220.948h-13.379Zm40.137,401.76h13.379V622.709h-13.379Zm-40.137-381.5h13.379V241.214h-13.379Zm0,160.547h13.379V401.76h-13.379Zm0,20.068h13.379V421.829h-13.379Zm0,20.265h13.379V442.094h-13.379Zm0-60.4h13.379V381.692h-13.379Zm-60.4,60.4H1300.7V442.094h-13.379Zm60.4-100.538h13.379V341.555h-13.379Zm0-140.675h13.379V200.88h-13.379Zm-140.675,80.47h13.379V281.35h-13.379Zm0-60.4h13.379V220.948h-13.379Zm0,40.333h13.379V261.282h-13.379Zm0,180.812h13.379V442.094h-13.379Zm0-281.35h13.379V160.743h-13.379Zm0,40.137h13.379V200.88h-13.379Zm0-20.068h13.379V180.812h-13.379Zm0,60.4h13.379V241.214h-13.379Zm0,60.205h13.379V301.419h-13.379Zm0,80.273h13.379V381.692h-13.379Zm0,40.137h13.379V421.829h-13.379Zm0-20.068h13.379V401.76h-13.379Zm0-80.273h13.379V321.487h-13.379Zm0,20.068h13.379V341.555h-13.379Zm20.068-80.273H1240.5V261.282H1227.12Zm0,120.41H1240.5V381.692H1227.12Zm0-40.137H1240.5V341.555H1227.12Zm0,20.068H1240.5V361.624H1227.12Zm0-40.137H1240.5V321.487H1227.12Zm0-40.137H1240.5V281.35H1227.12Zm0,20.068H1240.5V301.419H1227.12Zm0,140.675H1240.5V442.094H1227.12Zm0,40.137H1240.5V482.034H1227.12Zm0,20.068H1240.5V502.3H1227.12Zm0-40.137H1240.5V462.162H1227.12Zm0-40.333H1240.5V421.829H1227.12Zm0-20.068H1240.5V401.76H1227.12Zm-20.068-321.29h13.379V80.47h-13.379Zm0,60.205h13.379V140.675h-13.379Zm-20.069,281.153h13.379V421.829h-13.379Zm0-20.068h13.379V401.76h-13.379Zm0,40.333h13.379V442.094h-13.379Zm0,20.068h13.379V462.162h-13.379Zm0-80.47h13.379V381.692h-13.379Zm0-40.137h13.379V341.555h-13.379Zm0-20.068h13.379V321.487h-13.379Zm0,40.137h13.379V361.624h-13.379Zm0,180.812h13.379V542.435h-13.379Zm0,281.153h13.379V823.589h-13.379Zm-20.068-702.982h13.379V120.607h-13.379Zm20.068,361.624h13.379V482.034h-13.379Zm0,20.068h13.379V502.3h-13.379Zm0,20.068h13.379V522.367h-13.379Zm0-361.624h13.379V160.743h-13.379Zm0-40.137h13.379V120.607h-13.379Zm0,20.068h13.379V140.675h-13.379Zm0-40.137h13.379V100.538h-13.379Zm20.069,381.692h13.379V482.034h-13.379Zm0-20.068h13.379V462.162h-13.379Zm0,40.137h13.379V502.3h-13.379Zm-20.069-281.35h13.379V220.948h-13.379Zm0,40.333h13.379V261.282h-13.379Zm0,20.068h13.379V281.35h-13.379Zm0-40.137h13.379V241.214h-13.379Zm0-60.4h13.379V180.812h-13.379Zm0,120.607h13.379V301.419h-13.379Zm0-100.538h13.379V200.88h-13.379Zm80.273-20.068h13.379V180.812h-13.379Zm0,180.812h13.379V361.624h-13.379Zm0-20.068h13.379V341.555h-13.379Zm0-40.137h13.379V301.419h-13.379Zm0,20.068h13.379V321.487h-13.379Zm0-80.273h13.379V241.214h-13.379Zm0,261.085h13.379V502.3h-13.379Zm0-241.017h13.379V261.282h-13.379Zm0,160.547h13.379V421.829h-13.379Zm0,40.333h13.379V462.162h-13.379Zm0,20.068h13.379V482.034h-13.379Zm0-40.137h13.379V442.094h-13.379Zm0-40.333h13.379V401.76h-13.379Zm0-20.068h13.379V381.692h-13.379Zm0-160.743h13.379V220.948h-13.379Zm-40.136,20.265H1240.5V241.214H1227.12Zm60.2,301.222H1300.7V542.435h-13.379Zm-20.068-341.555h13.379V200.88h-13.379Zm20.068,321.487H1300.7V522.367h-13.379Zm0-20.068H1300.7V502.3h-13.379Zm0-20.068H1300.7V482.034h-13.379Zm0,100.342H1300.7V582.572h-13.379Zm0-20.068H1300.7V562.5h-13.379Zm-20.068-421.829h13.379V140.675h-13.379Zm0,20.068h13.379V160.743h-13.379Zm20.068,301.419H1300.7V462.162h-13.379Zm-20.068-341.555h13.379V120.607h-13.379Zm20.068,482.034H1300.7V602.64h-13.379Zm-20.068-502.1h13.379V100.538h-13.379Zm0,180.812h13.379V281.35h-13.379ZM1247.188,375h13.379V361.624h-13.379Zm0,120.607h13.379V482.034h-13.379Zm0,20.068h13.379V502.3h-13.379Zm0-60.205h13.379V442.094h-13.379Zm0-60.4h13.379V381.692h-13.379Zm0,20.068h13.379V401.76h-13.379Zm0,20.068h13.379V421.829h-13.379Zm0,40.333h13.379V462.162h-13.379ZM1227.12,214.259H1240.5V200.88H1227.12Zm0-20.068H1240.5V180.812H1227.12Zm0-100.342H1240.5V80.47H1227.12Zm0,140.478H1240.5V220.948H1227.12Zm0-60.2H1240.5V160.743H1227.12Zm40.136,361.624h13.379V522.367h-13.379ZM1227.12,154.054H1240.5V140.675H1227.12Zm20.068,20.068h13.379V160.743h-13.379Zm0,20.068h13.379V180.812h-13.379Zm0-40.137h13.379V140.675h-13.379Zm0,60.205h13.379V200.88h-13.379Zm0-120.41h13.379V80.47h-13.379Zm0,261.085h13.379V341.555h-13.379Zm0-220.948h13.379V120.607h-13.379Zm0,100.342h13.379V220.948h-13.379Zm0,100.538h13.379V321.487h-13.379Zm0-40.137h13.379V281.35h-13.379Zm0,20.068h13.379V301.419h-13.379Zm0-40.137h13.379V261.282h-13.379Zm0-20.068h13.379V241.214h-13.379Zm221.145-60.4h13.379V180.812h-13.379ZM1488.4,495.609h13.379V482.034H1488.4Zm0-20.068h13.379V462.162H1488.4Zm0-40.333h13.379V421.829H1488.4Zm0,20.265h13.379V442.094H1488.4Zm0-80.47h13.379V361.624H1488.4Zm0-20.068h13.379V341.555H1488.4Zm0,40.137h13.379V381.692H1488.4Zm0,20.068h13.379V401.76H1488.4Zm0,281.35h13.379V683.11H1488.4Zm0,40.137h13.379V723.247H1488.4Zm0,100.342h13.379V823.589H1488.4Zm20.068,80.47h13.379V904.059H1508.47ZM1488.4,515.678h13.379V502.3H1488.4Zm0,20.068h13.379V522.367H1488.4Zm0-361.624h13.379V160.743H1488.4Zm0-40.137h13.379V120.607H1488.4Zm0,20.068h13.379V140.675H1488.4Zm0,703.179h13.379V843.854H1488.4Zm0-663.042h13.379V180.812H1488.4Zm0,140.675h13.379V321.487H1488.4Zm0-220.948h13.379V100.538H1488.4Zm0-20.068h13.379V80.47H1488.4Zm0,200.88h13.379V281.35H1488.4Zm0,20.068h13.379V301.419H1488.4Zm0-40.137h13.379V261.282H1488.4Zm0-60.4h13.379V200.88H1488.4Zm0,20.068h13.379V220.948H1488.4Zm0,20.265h13.379V241.214H1488.4Zm0,421.829h13.379V663.042H1488.4Zm-20.068-220.948h13.379V442.094h-13.379Zm0-80.47h13.379V361.624h-13.379Zm0,120.607h13.379V482.034h-13.379Zm0-80.47h13.379V401.76h-13.379Zm0-321.29h13.379V80.47h-13.379Zm0,341.358h13.379V421.829h-13.379Zm0,80.47h13.379V502.3h-13.379Zm0-40.137h13.379V462.162h-13.379Zm0,140.478h13.379V602.64h-13.379Zm0-20.068h13.379V582.572h-13.379Zm0,80.47h13.379V663.042h-13.379Zm0-100.538h13.379V562.5h-13.379Zm0-20.068h13.379V542.435h-13.379Zm0-20.068h13.379V522.367h-13.379Zm0-140.675h13.379V381.692h-13.379Zm0-241.017h13.379V140.675h-13.379Zm0,60.205h13.379V200.88h-13.379Zm0,140.675h13.379V341.555h-13.379Zm0-180.812h13.379V160.743h-13.379Zm0-60.205h13.379V100.538h-13.379Zm0,20.068h13.379V120.607h-13.379Zm-301.419,20.068h13.379V140.675h-13.379ZM1468.333,314.8h13.379V301.419h-13.379Zm0,20.068h13.379V321.487h-13.379Zm0-40.137h13.379V281.35h-13.379Zm0-20.068h13.379V261.282h-13.379Zm0-40.333h13.379V220.948h-13.379Zm0,20.265h13.379V241.214h-13.379Zm40.136,100.342h13.379V341.555H1508.47Zm20.068,341.555h13.379V683.11h-13.379Zm0-80.47h13.379V602.64h-13.379Zm0,100.538h13.379V703.179h-13.379Zm0-220.949h13.379V482.034h-13.379Zm0,80.273h13.379V562.5h-13.379Zm0-100.342h13.379V462.162h-13.379Zm0,60.2h13.379V522.367h-13.379Zm0,220.949h13.379V743.315h-13.379Zm0,140.675h13.379V883.991h-13.379Zm0-20.068h13.379V863.725h-13.379Zm0,40.137h13.379V904.059h-13.379Zm0-60.2h13.379V843.854h-13.379Zm0-20.265h13.379V823.589h-13.379Zm0-20.068h13.379V803.521h-13.379Zm0-482.034h13.379V321.487h-13.379Zm0-100.538h13.379V220.948h-13.379Zm0,20.265h13.379V241.214h-13.379Zm0,180.615h13.379V421.829h-13.379Zm0-160.547h13.379V261.282h-13.379Zm0-100.538h13.379V160.743h-13.379Zm0,20.068h13.379V180.812h-13.379Zm0,20.068h13.379V200.88h-13.379Zm0,160.743h13.379V361.624h-13.379Zm0-20.068h13.379V341.555h-13.379Zm0,40.137h13.379V381.692h-13.379Zm0-100.342h13.379V281.35h-13.379Zm0,20.068h13.379V301.419h-13.379Zm-20.068-200.88h13.379V100.538H1508.47Zm0,20.068h13.379V120.607H1508.47Zm0,381.692h13.379V502.3H1508.47Zm0,381.692h13.379V883.991H1508.47Zm0-361.624h13.379V522.367H1508.47Zm0-100.538h13.379V421.829H1508.47Zm0,200.88h13.379V622.709H1508.47Zm0-180.615h13.379V442.094H1508.47Zm0,20.068h13.379V462.162H1508.47Zm0-60.4h13.379V401.76H1508.47Zm0,421.829h13.379V823.589H1508.47Zm0,20.265h13.379V843.854H1508.47Zm0,20.068h13.379V863.725H1508.47Zm0-180.812h13.379V683.11H1508.47Zm0-20.068h13.379V663.042H1508.47Zm0-20.068h13.379V642.974H1508.47Zm0-160.744h13.379V482.034H1508.47Zm0-281.35h13.379V200.88H1508.47Zm0,180.812h13.379V381.692H1508.47Zm0-140.478h13.379V241.214H1508.47Zm0-20.265h13.379V220.948H1508.47Zm0-80.273h13.379V140.675H1508.47Zm0,20.068h13.379V160.743H1508.47Zm0,20.068h13.379V180.812H1508.47Zm0,140.675h13.379V321.487H1508.47Zm-40.136,361.624h13.379V683.11h-13.379Zm40.136-421.829h13.379V261.282H1508.47Zm0,100.342h13.379V361.624H1508.47Zm0-60.2h13.379V301.419H1508.47Zm0-20.068h13.379V281.35H1508.47ZM1428,435.207h13.379V421.829H1428Zm-20.068-20.068h13.379V401.76h-13.379Zm0,180.812h13.379V582.572h-13.379Zm0-200.88h13.379V381.692h-13.379Zm0,40.137h13.379V421.829h-13.379Zm0-100.342h13.379V321.487h-13.379Zm0,40.137h13.379V361.624h-13.379Zm0-20.068h13.379V341.555h-13.379Zm0,180.812h13.379V522.367h-13.379Zm0,20.068h13.379V542.435h-13.379Zm0-80.273h13.379V462.162h-13.379Zm0-160.743h13.379V301.419h-13.379Zm0,261.085h13.379V562.5h-13.379Zm0-60.205h13.379V502.3h-13.379Zm0-20.068h13.379V482.034h-13.379Zm0-40.137h13.379V442.094h-13.379Zm0-301.419h13.379V140.675h-13.379Zm0-60.205h13.379V80.47h-13.379Zm0,40.137h13.379V120.607h-13.379Zm0,160.743h13.379V281.35h-13.379ZM1428,696.489h13.379V683.11H1428Zm0,20.068h13.379V703.179H1428Zm-20.068-602.64h13.379V100.538h-13.379Zm0,140.675h13.379V241.214h-13.379Zm0-20.265h13.379V220.948h-13.379Zm0,40.333h13.379V261.282h-13.379Zm0-60.4h13.379V200.88h-13.379Zm0-20.068h13.379V180.812h-13.379Zm0-20.068h13.379V160.743h-13.379Zm-20.068,241.017h13.379V401.76h-13.379Zm0,20.068h13.379V421.829h-13.379ZM1428,676.421h13.379V663.042H1428Zm-40.137-220.948h13.379V442.094h-13.379Zm0-120.607h13.379V321.487h-13.379Zm20.068,321.487h13.379V642.974h-13.379Zm-20.068-180.812h13.379V462.162h-13.379Zm0-80.47h13.379V381.692h-13.379Zm0-20.068h13.379V361.624h-13.379Zm0,180.812h13.379V542.435h-13.379Zm0,20.068h13.379V562.5h-13.379Zm0-80.273h13.379V482.034h-13.379Zm0,100.342h13.379V582.572h-13.379Zm0-80.273h13.379V502.3h-13.379Zm0,20.068h13.379V522.367h-13.379Zm0-180.812h13.379V341.555h-13.379Zm0-241.017h13.379V100.538h-13.379Zm0,20.068h13.379V120.607h-13.379Zm0,20.068h13.379V140.675h-13.379Zm0,20.068h13.379V160.743h-13.379Zm20.068,502.3h13.379V663.042h-13.379ZM1387.863,93.849h13.379V80.47h-13.379Zm0,200.88h13.379V281.35h-13.379Zm0-20.068h13.379V261.282h-13.379Zm0,40.137h13.379V301.419h-13.379Zm0-60.205h13.379V241.214h-13.379Zm0-40.333h13.379V200.88h-13.379Zm0,20.068h13.379V220.948h-13.379Zm0-40.137h13.379V180.812h-13.379ZM1428,535.746h13.379V522.367H1428Zm20.265-80.273h13.379V442.094h-13.379Zm0-20.265h13.379V421.829h-13.379Zm0,40.333h13.379V462.162h-13.379Zm0-80.47h13.379V381.692h-13.379Zm0,20.068h13.379V401.76h-13.379Zm0-40.137h13.379V361.624h-13.379Zm0,261.085h13.379V622.709h-13.379Zm0-120.41h13.379V502.3h-13.379Zm0,80.273h13.379V582.572h-13.379Zm0,20.068h13.379V602.64h-13.379Zm0-40.137h13.379V562.5h-13.379Zm0-220.949h13.379V341.555h-13.379Zm0,180.812h13.379V522.367h-13.379Zm0,20.068h13.379V542.435h-13.379Zm0-60.205h13.379V482.034h-13.379Zm0-341.555h13.379V140.675h-13.379Zm0-20.068h13.379V120.607h-13.379Zm0,40.137h13.379V160.743h-13.379Zm0-60.205h13.379V100.538h-13.379Zm0-20.068h13.379V80.47h-13.379Zm0,100.342h13.379V180.812h-13.379Zm0,80.47h13.379V261.282h-13.379Zm0,20.068h13.379V281.35h-13.379Zm0,20.068h13.379V301.419h-13.379Zm0,20.068h13.379V321.487h-13.379Zm0-100.538h13.379V220.948h-13.379Zm0-20.068h13.379V200.88h-13.379Zm0,40.333h13.379V241.214h-13.379ZM1428,395.071h13.379V381.692H1428Zm0,20.068h13.379V401.76H1428Zm-40.137,200.88h13.379V602.64h-13.379ZM1428,455.473h13.379V442.094H1428Zm0,20.068h13.379V462.162H1428Zm20.265,241.017h13.379V703.179h-13.379ZM1428,375h13.379V361.624H1428Zm40.334,361.624h13.379V723.247h-13.379ZM1428,575.883h13.379V562.5H1428Zm0-20.068h13.379V542.435H1428Zm0,40.137h13.379V582.572H1428Zm0-80.273h13.379V502.3H1428Zm0-160.744h13.379V341.555H1428Zm0,140.675h13.379V482.034H1428Zm0,160.744h13.379V642.974H1428Zm0-502.3h13.379V140.675H1428Zm0,20.068h13.379V160.743H1428Zm0-60.205h13.379V100.538H1428Zm0-20.068h13.379V80.47H1428Zm0,100.342h13.379V180.812H1428Zm20.265,542.435h13.379V723.247h-13.379ZM1428,334.866h13.379V321.487H1428Zm0-40.137h13.379V281.35H1428Zm0,20.068h13.379V301.419H1428Zm0-40.137h13.379V261.282H1428Zm0-60.4h13.379V200.88H1428Zm0,20.068h13.379V220.948H1428Zm0,20.265h13.379V241.214H1428ZM1086.445,415.139h13.379V401.76h-13.379ZM985.906,857.233h13.379V843.854H985.906ZM965.838,334.866h13.379V321.487H965.838Zm20.068,562.5h13.379V883.991H985.906Zm0-60.4h13.379V823.589H985.906Zm0-20.068h13.379V803.521H985.906Zm0-40.137h13.379V763.384H985.906Zm0-20.068h13.379V743.315H985.906Zm0,40.137h13.379V783.452H985.906Zm-20.068-562.5h13.379V220.948H965.838Zm20.068,683.11h13.379V904.059H985.906ZM965.838,314.8h13.379V301.419H965.838Zm0-60.205h13.379V241.214H965.838Zm0-80.47h13.379V160.743H965.838Zm0,40.137h13.379V200.88H965.838ZM985.906,877.3h13.379V863.725H985.906Zm0-341.555h13.379V522.367H985.906Zm0,20.068h13.379V542.435H985.906Zm0,20.068h13.379V562.5H985.906Zm0-60.205h13.379V502.3H985.906Zm0-20.068h13.379V482.034H985.906Zm0-20.068h13.379V462.162H985.906Zm0,200.88h13.379V663.042H985.906Zm0,20.068h13.379V683.11H985.906Zm0-80.47h13.379V602.64H985.906Zm0,100.538h13.379V703.179H985.906Zm0,20.068h13.379V723.247H985.906Zm0-80.273h13.379V642.974H985.906Zm0-20.265h13.379V622.709H985.906Zm0-40.137h13.379V582.572H985.906ZM965.838,776.763h13.379V763.384H965.838Zm0,20.068h13.379V783.452H965.838Zm0,20.068h13.379V803.521H965.838Zm0-60.205h13.379V743.315H965.838Zm0-40.137h13.379V703.179H965.838Zm0,20.068h13.379V723.247H965.838Zm0-40.137h13.379V683.11H965.838Zm0,140.478h13.379V823.589H965.838Zm0-482.034h13.379V341.555H965.838ZM945.77,274.661h13.379V261.282H945.77Zm0,60.2h13.379V321.487H945.77Zm0-120.607h13.379V200.88H945.77Zm0,20.068h13.379V220.948H945.77Zm0,20.265h13.379V241.214H945.77Zm0,60.205h13.379V301.419H945.77Zm20.068,220.948h13.379V522.367H965.838Zm0-60.2h13.379V462.162H965.838Zm0,40.137h13.379V502.3H965.838Zm0-20.068h13.379V482.034H965.838Zm0-100.538h13.379V381.692H965.838Zm0-20.068h13.379V361.624H965.838Zm60.4,341.555h13.379V703.179H1026.24Zm-60.4-80.47h13.379V622.709H965.838Zm0,40.333h13.379V663.042H965.838Zm0-120.607h13.379V542.435H965.838Zm0,100.538h13.379V642.974H965.838Zm0-60.4h13.379V582.572H965.838Zm0-20.068h13.379V562.5H965.838Zm60.4,220.948h13.379V783.452H1026.24ZM1005.974,375h13.379V361.624h-13.379Zm0-20.068h13.379V341.555h-13.379Zm0,40.137h13.379V381.692h-13.379Zm0,20.068h13.379V401.76h-13.379Zm0-120.41h13.379V281.35h-13.379Zm0,20.068h13.379V301.419h-13.379Zm0-100.538h13.379V200.88h-13.379Zm0,381.692h13.379V582.572h-13.379Zm0-40.137h13.379V542.435h-13.379Zm0-20.068h13.379V522.367h-13.379Zm0,40.137h13.379V562.5h-13.379Zm0-100.342h13.379V462.162h-13.379Zm0,40.137h13.379V502.3h-13.379Zm0-20.068h13.379V482.034h-13.379Zm0-160.743h13.379V321.487h-13.379Zm-60.2,20.068h13.379V341.555H945.77Zm80.47,421.829h13.379V763.384H1026.24Zm0,40.137h13.379V803.521H1026.24Zm-20.265-622.709h13.379V180.812h-13.379Zm20.265,542.435h13.379V723.247H1026.24Zm0,100.342h13.379V823.589H1026.24Zm0-80.273h13.379V743.315H1026.24Zm0,160.743h13.379V904.059H1026.24Zm-20.265-763.384h13.379V140.675h-13.379Zm0,20.068h13.379V160.743h-13.379ZM1026.24,877.3h13.379V863.725H1026.24Zm0-20.068h13.379V843.854H1026.24Zm0,40.137h13.379V883.991H1026.24Zm-20.265-261.282h13.379V622.709h-13.379Zm-20.068-381.5h13.379V241.214H985.906Zm0-20.265h13.379V220.948H985.906Zm0-40.137h13.379V180.812H985.906Zm0,20.068h13.379V200.88H985.906Zm0-40.137h13.379V160.743H985.906Zm20.068,743.315h13.379V904.059h-13.379ZM985.906,154.054h13.379V140.675H985.906Zm0,200.88h13.379V341.555H985.906Zm0,20.068h13.379V361.624H985.906Zm0,20.068h13.379V381.692H985.906Zm20.068,502.3h13.379V883.991h-13.379ZM985.906,314.8h13.379V301.419H985.906Zm0,20.068h13.379V321.487H985.906Zm0-60.2h13.379V261.282H985.906Zm20.068,381.692h13.379V642.974h-13.379Zm0,80.273h13.379V723.247h-13.379Zm0-40.137h13.379V683.11h-13.379Zm0,20.068h13.379V703.179h-13.379Zm0,160.743h13.379V863.725h-13.379ZM985.906,415.139h13.379V401.76H985.906Zm20.068,200.88h13.379V602.64h-13.379Zm0,60.4h13.379V663.042h-13.379Zm0,80.273h13.379V743.315h-13.379Zm0,60.205h13.379V803.521h-13.379Zm0,40.333h13.379V843.854h-13.379Zm0-20.265h13.379V823.589h-13.379Zm0-60.2h13.379V763.384h-13.379Zm0,20.068h13.379V783.452h-13.379ZM965.838,616.019h13.379V602.64H965.838ZM865.3,495.609h13.379V482.034H865.3Zm0-20.068h13.379V462.162H865.3Zm0-60.4h13.379V401.76H865.3Zm0,40.333h13.379V442.094H865.3Zm0-60.4h13.379V381.692H865.3Zm0-60.205h13.379V321.487H865.3Zm0,20.068h13.379V341.555H865.3Zm0,160.744h13.379V502.3H865.3Zm0-200.88h13.379V301.419H865.3Zm0,321.29h13.379V622.709H865.3Zm0-20.068h13.379V602.64H865.3Zm0-20.068h13.379V582.572H865.3Zm0-40.137h13.379V542.435H865.3Zm0-20.068h13.379V522.367H865.3Zm20.068-80.273h13.379V442.094H885.368Zm0,80.273h13.379V522.367H885.368Zm0-20.068h13.379V502.3H885.368Zm0,40.137h13.379V542.435H885.368Zm0-80.273h13.379V462.162H885.368Zm0,100.342h13.379V562.5H885.368Zm0-80.273h13.379V482.034H885.368Zm0,160.744h13.379V642.974H885.368ZM865.3,254.592h13.379V241.214H865.3Zm0,40.137h13.379V281.35H865.3Zm0-20.068h13.379V261.282H865.3Zm20.068,321.29h13.379V582.572H885.368Zm0,40.137h13.379V622.709H885.368Zm0-20.068h13.379V602.64H885.368ZM865.3,575.883h13.379V562.5H865.3Zm-40.137,0h13.379V562.5H825.163Zm40.137,80.47h13.379V642.974H865.3ZM825.163,555.814h13.379V542.435H825.163Zm0,60.205h13.379V602.64H825.163Zm20.068,40.333H858.61V642.974H845.231ZM825.163,515.678h13.379V502.3H825.163Zm0,20.068h13.379V522.367H825.163Zm-20.068,0h13.379V522.367H805.094Zm20.068,100.342h13.379V622.709H825.163Zm-20.068-60.2h13.379V562.5H805.094Zm0,20.068h13.379V582.572H805.094Zm0-40.137h13.379V542.435H805.094Zm40.137,80.273H858.61V622.709H845.231ZM805.094,495.609h13.379V482.034H805.094Zm20.068,100.342h13.379V582.572H825.163Zm20.068-180.812H858.61V401.76H845.231Zm0,40.333H858.61V442.094H845.231Zm0-60.4H858.61V381.692H845.231Zm0,80.47H858.61V462.162H845.231Zm0-160.743H858.61V301.419H845.231Zm0-20.068H858.61V281.35H845.231Zm0,321.29H858.61V602.64H845.231Zm0-60.205H858.61V542.435H845.231Zm0,20.068H858.61V562.5H845.231Zm0,20.068H858.61V582.572H845.231Zm0-100.342H858.61V482.034H845.231Zm0,20.068H858.61V502.3H845.231Zm0,20.068H858.61V522.367H845.231ZM885.368,375h13.379V361.624H885.368Zm60.4,301.419h13.379V663.042H945.77ZM925.7,354.934H939.08V341.555H925.7Zm0-40.137H939.08V301.419H925.7Zm0-60.205H939.08V241.214H925.7Zm20.068,441.9h13.379V683.11H945.77Zm-60.4-281.35h13.379V401.76H885.368ZM925.7,234.327H939.08V220.948H925.7Zm0,100.538H939.08V321.487H925.7Zm0,180.812H939.08V502.3H925.7Zm0,40.137H939.08V542.435H925.7Zm0-140.675H939.08V401.76H925.7Zm0,80.47H939.08V482.034H925.7Zm0-40.137H939.08V442.094H925.7Zm0,20.068H939.08V462.162H925.7Zm0,60.2H939.08V522.367H925.7Zm20.068-80.273h13.379V442.094H945.77Zm0,20.068h13.379V462.162H945.77Zm0,20.068h13.379V482.034H945.77Zm0,20.068h13.379V502.3H945.77Zm0-120.607h13.379V381.692H945.77Zm0,20.068h13.379V401.76H945.77Zm0,180.812h13.379V582.572H945.77Zm0,20.068h13.379V602.64H945.77Zm0,40.333h13.379V642.974H945.77Zm0-20.265h13.379V622.709H945.77Zm0-60.2h13.379V562.5H945.77Zm0-20.068h13.379V542.435H945.77Zm0-20.068h13.379V522.367H945.77ZM925.7,375H939.08V361.624H925.7ZM905.633,616.019h13.379V602.64H905.633Zm0,20.068h13.379V622.709H905.633Zm0-40.137h13.379V582.572H905.633ZM925.7,575.883H939.08V562.5H925.7Zm-20.068,0h13.379V562.5H905.633Zm0-40.137h13.379V522.367H905.633Zm0,20.068h13.379V542.435H905.633ZM885.368,294.729h13.379V281.35H885.368ZM945.77,375h13.379V361.624H945.77Zm-60.4,20.068h13.379V381.692H885.368Zm20.265,120.607h13.379V502.3H905.633ZM885.368,354.934h13.379V341.555H885.368Zm0-40.137h13.379V301.419H885.368Zm0,20.068h13.379V321.487H885.368Zm0-60.2h13.379V261.282H885.368ZM925.7,656.353H939.08V642.974H925.7Zm0-20.265H939.08V622.709H925.7ZM905.633,314.8h13.379V301.419H905.633ZM925.7,616.019H939.08V602.64H925.7Zm0-20.068H939.08V582.572H925.7ZM905.633,495.609h13.379V482.034H905.633Zm0-160.743h13.379V321.487H905.633Zm0,20.068h13.379V341.555H905.633Zm0,60.2h13.379V401.76H905.633Zm0,60.4h13.379V462.162H905.633Zm0-20.068h13.379V442.094H905.633Zm0-60.4h13.379V381.692H905.633Zm0-20.068h13.379V361.624H905.633Zm120.607-80.273h13.379V281.35H1026.24Zm80.273-60.4h13.379V220.948h-13.379Zm0,20.265h13.379V241.214h-13.379Zm0-40.333h13.379V200.88h-13.379Zm0-40.137h13.379V160.743h-13.379ZM1126.581,816.9h13.379V803.521h-13.379Zm0,20.068h13.379V823.589h-13.379Zm-20.068-562.307h13.379V261.282h-13.379Zm0,20.068h13.379V281.35h-13.379Zm0,80.273h13.379V361.624h-13.379Zm20.068,421.828h13.379V783.452h-13.379Zm-20.068-441.9h13.379V341.555h-13.379Zm0,60.2h13.379V401.76h-13.379Zm0-80.273h13.379V321.487h-13.379Zm0-20.068h13.379V301.419h-13.379Zm20.068,281.153h13.379V582.572h-13.379Zm0-100.342h13.379V482.034h-13.379Zm0,20.068h13.379V502.3h-13.379Zm-40.136-40.137h13.379V462.162h-13.379Zm40.136,60.2h13.379V522.367h-13.379Zm0-100.538h13.379V421.829h-13.379Zm0,20.265h13.379V442.094h-13.379Zm0,20.068h13.379V462.162h-13.379Zm0,180.812h13.379V642.974h-13.379Zm0,20.068h13.379V663.042h-13.379Zm0-120.607h13.379V542.435h-13.379Zm0,80.273h13.379V622.709h-13.379Zm0-20.068h13.379V602.64h-13.379Zm-20.068-180.812h13.379V421.829h-13.379Zm0,60.4h13.379V482.034h-13.379Zm-20.068-200.88h13.379V281.35h-13.379Zm0-40.137h13.379V241.214h-13.379Zm0,20.068h13.379V261.282h-13.379Zm0-40.333h13.379V220.948h-13.379Zm20.068,562.5h13.379V783.452h-13.379Zm-20.068-582.572h13.379V200.88h-13.379Zm0-40.137h13.379V160.743h-13.379Zm0,281.35h13.379V442.094h-13.379Zm0-20.265h13.379V421.829h-13.379Zm20.068,341.555h13.379V763.384h-13.379Zm422.025-622.709h13.379V140.675h-13.379ZM1086.445,334.866h13.379V321.487h-13.379Zm0-20.068h13.379V301.419h-13.379Zm0,40.137h13.379V341.555h-13.379Zm20.068,160.744h13.379V502.3h-13.379Zm0,20.068h13.379V522.367h-13.379Zm0-80.273h13.379V442.094h-13.379Zm0,140.478h13.379V582.572h-13.379Zm0-120.41h13.379V462.162h-13.379Zm0,281.154h13.379V743.315h-13.379Zm20.068-341.555h13.379V401.76h-13.379Zm-20.068,200.88h13.379V602.64h-13.379Zm0,80.47h13.379V683.11h-13.379Zm0,20.068h13.379V703.179h-13.379Zm0,20.068h13.379V723.247h-13.379Zm0-80.273h13.379V642.974h-13.379Zm0-20.265h13.379V622.709h-13.379Zm0,40.333h13.379V663.042h-13.379Zm20.068,20.068h13.379V683.11h-13.379Zm20.068-482.23h13.379V200.88H1146.65Zm0-20.068h13.379V180.812H1146.65Zm0,40.137h13.379V220.948H1146.65Zm0-60.2h13.379V160.743H1146.65Zm0,220.948h13.379V381.692H1146.65Zm0-140.478h13.379V241.214H1146.65Zm20.265,321.29h13.379V562.5h-13.379ZM1146.65,294.729h13.379V281.35H1146.65Zm0,40.137h13.379V321.487H1146.65Zm0-60.2h13.379V261.282H1146.65Zm0,100.342h13.379V361.624H1146.65Zm0-20.068h13.379V341.555H1146.65Zm0-40.137h13.379V301.419H1146.65Zm20.265,220.948h13.379V522.367h-13.379Zm0,20.068h13.379V542.435h-13.379Zm0-281.154h13.379V261.282h-13.379Zm0,20.068h13.379V281.35h-13.379Zm0,20.068h13.379V301.419h-13.379Zm0-60.205h13.379V241.214h-13.379Zm0,261.085h13.379V502.3h-13.379Zm0-301.419h13.379V200.88h-13.379Zm0,20.068h13.379V220.948h-13.379Zm0,241.214h13.379V462.162h-13.379Zm0,20.068h13.379V482.034h-13.379Zm0-40.137h13.379V442.094h-13.379Zm0-20.265h13.379V421.829h-13.379Zm0-80.273h13.379V341.555h-13.379Zm0-20.068h13.379V321.487h-13.379ZM1146.65,575.883h13.379V562.5H1146.65Zm-20.068-361.624h13.379V200.88h-13.379ZM1146.65,816.9h13.379V803.521H1146.65Zm-20.068-582.572h13.379V220.948h-13.379Zm0-60.2h13.379V160.743h-13.379Zm0,80.47h13.379V241.214h-13.379Zm20.068,582.375h13.379V823.589H1146.65Zm0,20.265h13.379V843.854H1146.65Zm-20.068-663.042h13.379V180.812h-13.379Zm0,160.743h13.379V341.555h-13.379Zm0-20.068h13.379V321.487h-13.379Zm0-60.2h13.379V261.282h-13.379Zm0,100.342h13.379V361.624h-13.379Zm0-80.273h13.379V281.35h-13.379Zm0,20.068h13.379V301.419h-13.379Zm20.068,100.342h13.379V401.76H1146.65Zm0,80.47h13.379V482.034H1146.65Zm0,20.068h13.379V502.3H1146.65Zm0-40.137h13.379V462.162H1146.65Zm0-20.068h13.379V442.094H1146.65Zm0,80.273h13.379V522.367H1146.65Zm0-100.538h13.379V421.829H1146.65Zm0,221.145h13.379V642.974H1146.65Zm0-20.265h13.379V622.709H1146.65Zm0,160.743h13.379V783.452H1146.65Zm0-120.41h13.379V663.042H1146.65Zm0-60.4h13.379V602.64H1146.65Zm0-60.205h13.379V542.435H1146.65Zm-20.068-160.743h13.379V381.692h-13.379Zm-60.2,140.675h13.379V522.367h-13.379Zm-20.068,120.607h13.379V642.974h-13.379Zm0,20.068h13.379V663.042h-13.379Zm40.137-180.812h13.379V482.034h-13.379Zm-40.137,140.478h13.379V622.709h-13.379Zm0-40.137h13.379V582.572h-13.379Zm0,120.607h13.379V703.179h-13.379Zm0-100.538h13.379V602.64h-13.379Zm0,140.675h13.379V743.315h-13.379Zm0,60.205h13.379V803.521h-13.379Zm0,20.068h13.379V823.589h-13.379Zm0-40.137h13.379V783.452h-13.379Zm0-60.2h13.379V723.247h-13.379Zm0,40.137h13.379V763.384h-13.379Zm0-200.88h13.379V562.5h-13.379Zm0-40.137h13.379V522.367h-13.379Zm0-180.812h13.379V341.555h-13.379Zm0,20.068h13.379V361.624h-13.379Zm0-40.137h13.379V321.487h-13.379Zm0-20.068h13.379V301.419h-13.379Zm0,241.017h13.379V542.435h-13.379Zm0-160.743h13.379V381.692h-13.379Zm0-100.342h13.379V281.35h-13.379Zm0,220.949h13.379V502.3h-13.379Zm0-100.539h13.379V401.76h-13.379Zm0,80.47h13.379V482.034h-13.379Zm0,361.624h13.379V843.854h-13.379Zm0-422.025h13.379V421.829h-13.379Zm0,40.333h13.379V462.162h-13.379ZM1026.24,314.8h13.379V301.419H1026.24Zm0,241.017h13.379V542.435H1026.24Zm0-40.137h13.379V502.3H1026.24Zm0,20.068h13.379V522.367H1026.24Zm0-40.137h13.379V482.034H1026.24Zm0-20.068h13.379V462.162H1026.24Zm0-60.4h13.379V401.76H1026.24Zm0,20.068h13.379V421.829H1026.24Zm0,180.812h13.379V602.64H1026.24Zm0,20.068h13.379V622.709H1026.24Zm0,20.265h13.379V642.974H1026.24Zm0-80.47h13.379V562.5H1026.24Zm0,100.538h13.379V663.042H1026.24Zm0-281.35h13.379V381.692H1026.24Zm0,200.88h13.379V582.572H1026.24Zm0-421.829h13.379V160.743H1026.24Zm0,200.88h13.379V361.624H1026.24Zm20.068,502.3h13.379V863.725h-13.379Zm-20.068-683.11h13.379V180.812H1026.24Zm20.068,703.179h13.379V883.991h-13.379Zm0,20.068h13.379V904.059h-13.379ZM1026.24,214.259h13.379V200.88H1026.24Zm0-60.205h13.379V140.675H1026.24Zm0,180.812h13.379V321.487H1026.24Zm0-100.538h13.379V220.948H1026.24Zm0,120.607h13.379V341.555H1026.24Zm20.068-80.273h13.379V261.282h-13.379Zm120.607-80.47h13.379V180.812h-13.379Zm-140.675,80.47h13.379V261.282H1026.24Zm20.068,421.829h13.379V683.11h-13.379Zm20.068-462.162h13.379V220.948h-13.379Zm0-20.068h13.379V200.88h-13.379Zm0,60.4h13.379V261.282h-13.379Zm-20.068-20.068h13.379V241.214h-13.379Zm20.068-100.538h13.379V140.675h-13.379Zm0,20.068h13.379V160.743h-13.379Zm0,20.068h13.379V180.812h-13.379Zm0,140.675h13.379V321.487h-13.379Zm0-40.137h13.379V281.35h-13.379Zm0,120.41h13.379V401.76h-13.379Zm0-60.2h13.379V341.555h-13.379Zm0,80.273h13.379V421.829h-13.379Zm20.068,361.623h13.379V783.452h-13.379ZM1066.376,314.8h13.379V301.419h-13.379Zm0,80.273h13.379V381.692h-13.379Zm20.068,241.017h13.379V622.709h-13.379Zm0-40.137h13.379V582.572h-13.379Zm0,20.068h13.379V602.64h-13.379Zm0-40.137h13.379V562.5h-13.379Zm0-40.137h13.379V522.367h-13.379Zm0,20.068h13.379V542.435h-13.379Zm0,220.948h13.379V763.384h-13.379Zm0-120.41h13.379V642.974h-13.379Zm0,80.273h13.379V723.247h-13.379Zm0,20.068h13.379V743.315h-13.379Zm0-40.137h13.379V703.179h-13.379Zm0-20.068h13.379V683.11h-13.379Zm0-20.068h13.379V663.042h-13.379Zm-20.068-421.829h13.379V241.214h-13.379Zm0,562.307h13.379V803.521h-13.379Zm0,20.068h13.379V823.589h-13.379Zm0,20.265h13.379V843.854h-13.379Zm0-60.4h13.379V783.452h-13.379Zm0-20.068h13.379V763.384h-13.379Zm0,100.538h13.379V863.725h-13.379Zm-20.068-683.11h13.379V180.812h-13.379Zm0-60.205h13.379V120.607h-13.379Zm20.068,622.709h13.379V743.315h-13.379Zm-20.068-522.367h13.379V220.948h-13.379Zm0-20.068h13.379V200.88h-13.379Zm20.068,261.282h13.379V462.162h-13.379Zm-20.068-301.419h13.379V160.743h-13.379Zm0-20.068h13.379V140.675h-13.379Zm20.068,401.76h13.379V542.435h-13.379Zm0,20.068h13.379V562.5h-13.379ZM1026.24,696.489h13.379V683.11H1026.24Zm40.137-100.538h13.379V582.572h-13.379Zm0-80.273h13.379V502.3h-13.379Zm0-20.068h13.379V482.034h-13.379Zm0,160.744h13.379V642.974h-13.379Zm0,40.137h13.379V683.11h-13.379Zm0-20.068h13.379V663.042h-13.379Zm0-60.4h13.379V602.64h-13.379Zm0,100.538h13.379V703.179h-13.379Zm0-80.47h13.379V622.709h-13.379Zm0,100.538h13.379V723.247h-13.379ZM1428,133.986h13.379V120.607H1428ZM502.5,294.729h13.379V281.35H502.5ZM482.427,475.541h13.379V462.162H482.427ZM502.5,314.8h13.379V301.419H502.5Zm0-100.538h13.379V200.88H502.5Zm0,120.607h13.379V321.487H502.5Zm0-80.273h13.379V241.214H502.5Zm0-20.265h13.379V220.948H502.5Zm0,180.812h13.379V401.76H502.5Zm0,20.068h13.379V421.829H502.5Zm0-80.273h13.379V341.555H502.5Zm0-180.812h13.379V160.743H502.5Zm0,281.35h13.379V442.094H502.5Zm0-80.47h13.379V361.624H502.5Zm0,20.068h13.379V381.692H502.5Zm0-261.085h13.379V120.607H502.5Zm20.068,863.726h13.379V984.332H522.564Zm0,20.068h13.379V1004.4H522.564Zm0,20.265h13.379v-13.379H522.564Zm0-60.4h13.379V964.264H522.564Zm0-20.068h13.379V944.2H522.564Zm0-20.068h13.379V924.127H522.564ZM502.5,73.781h13.379V60.4H502.5Zm0-20.265h13.379V40.137H502.5Zm0,100.538h13.379V140.675H502.5Zm0,401.76h13.379V542.435H502.5Zm20.068,502.3h13.379v-13.379H522.564Zm0,20.068h13.379V1064.8H522.564ZM502.5,33.447h13.379V20.068H502.5Zm0,743.315h13.379V763.384H502.5ZM482.427,294.729h13.379V281.35H482.427Zm0-60.4h13.379V220.948H482.427Zm0,100.538h13.379V321.487H482.427Zm0-20.068h13.379V301.419H482.427Zm0-180.812h13.379V120.607H482.427Zm0,20.068h13.379V140.675H482.427Zm0,20.068h13.379V160.743H482.427ZM502.5,575.883h13.379V562.5H502.5ZM482.427,435.207h13.379V421.829H482.427Zm0,20.265h13.379V442.094H482.427Zm0-100.538h13.379V341.555H482.427Zm0-261.085h13.379V80.47H482.427Zm0,301.222h13.379V381.692H482.427Zm0-20.068h13.379V361.624H482.427Zm0,40.137h13.379V401.76H482.427Zm0-341.358h13.379V60.4H482.427ZM502.5,696.489h13.379V683.11H502.5Zm0,40.137h13.379V723.247H502.5Zm0-20.068h13.379V703.179H502.5Zm0-60.2h13.379V642.974H502.5Zm0-20.265h13.379V622.709H502.5Zm0,40.333h13.379V663.042H502.5Zm0,381.692h13.379v-13.379H502.5ZM482.427,33.447h13.379V20.068H482.427Zm0,20.068h13.379V40.137H482.427ZM502.5,756.694h13.379V743.315H502.5Zm20.068,160.743h13.379V904.059H522.564ZM502.5,1017.779h13.379V1004.4H502.5Zm0-743.119h13.379V261.282H502.5Zm40.137,642.777h13.379V904.059H542.632Zm0-60.2h13.379V843.854H542.632Zm0,40.137h13.379V883.991H542.632Zm0-20.068h13.379V863.725H542.632Zm0-100.538h13.379V763.384H542.632Zm0,20.068h13.379V783.452H542.632Zm0,20.068h13.379V803.521H542.632Zm0,20.068h13.379V823.589H542.632Zm0,180.812h13.379V1004.4H542.632Zm0-80.273h13.379V924.127H542.632Zm0,100.538h13.379v-13.379H542.632Zm0-40.333h13.379V984.332H542.632Zm0-40.137h13.379V944.2H542.632Zm0,20.068h13.379V964.264H542.632Zm0-341.555h13.379V622.709H542.632Zm0-301.222h13.379V321.487H542.632Zm0,20.068h13.379V341.555H542.632Zm0-40.137h13.379V301.419H542.632Zm0-20.068h13.379V281.35H542.632Zm0-20.068h13.379V261.282H542.632Zm0,100.342h13.379V361.624H542.632ZM522.564,13.379h13.379V0H522.564Zm20.068,703.179h13.379V703.179H542.632Zm0,20.068h13.379V723.247H542.632Zm0-40.137h13.379V683.11H542.632Zm0,60.205h13.379V743.315H542.632Zm0-80.273h13.379V663.042H542.632Zm0-20.068h13.379V642.974H542.632Zm-20.068,80.273h13.379V723.247H522.564Zm0-100.538h13.379V622.709H522.564Zm0,20.265h13.379V642.974H522.564Zm0,20.068h13.379V663.042H522.564Zm0-60.4h13.379V602.64H522.564Zm0-220.948h13.379V381.692H522.564Zm0-20.068h13.379V361.624H522.564Zm0,200.88h13.379V562.5H522.564Zm0-542.435h13.379V20.068H522.564Zm0,743.315h13.379V763.384H522.564Zm0-20.068h13.379V743.315H522.564Zm0,40.137h13.379V783.452H522.564Zm0-100.342h13.379V683.11H522.564Zm0,200.88h13.379V883.991H522.564Zm0-180.812h13.379V703.179H522.564Zm0-301.419h13.379V401.76H522.564Zm0-241.017h13.379V160.743H522.564Zm0,20.068h13.379V180.812H522.564Zm0-40.137h13.379V140.675H522.564Zm0,200.88h13.379V341.555H522.564Zm0-140.675h13.379V200.88H522.564Zm0-140.478h13.379V60.4H522.564Zm0-20.265h13.379V40.137H522.564Zm0,261.282h13.379V301.419H522.564Zm0-20.068h13.379V281.35H522.564Zm0,40.137h13.379V321.487H522.564Zm0-60.2h13.379V261.282H522.564Zm0-20.068h13.379V241.214H522.564Zm0-20.265h13.379V220.948H522.564Zm-60.4,261.282h13.379V482.034H462.162Zm-60.2-421.829h13.379V60.4H401.957Zm20.068,421.829H435.4V482.034H422.025ZM401.957,133.986h13.379V120.607H401.957Zm20.068,562.5H435.4V683.11H422.025Zm0-120.607H435.4V562.5H422.025ZM401.957,154.054h13.379V140.675H401.957Zm20.068,441.9H435.4V582.572H422.025ZM401.957,53.516h13.379V40.137H401.957Zm0,180.812h13.379V220.948H401.957Zm0,20.265h13.379V241.214H401.957Zm0,20.068h13.379V261.282H401.957Zm0-100.538h13.379V160.743H401.957Zm0,40.137h13.379V200.88H401.957Zm1126.581-80.273h13.379V120.607h-13.379ZM422.025,475.541H435.4V462.162H422.025Zm0-180.812H435.4V281.35H422.025Zm0,20.068H435.4V301.419H422.025Zm0-40.137H435.4V261.282H422.025Zm0,60.2H435.4V321.487H422.025Zm0-120.607H435.4V200.88H422.025Zm0,20.068H435.4V220.948H422.025Zm60.4,261.282h13.379V482.034H482.427Zm-60.4-60.4H435.4V421.829H422.025Zm0-20.068H435.4V401.76H422.025Zm0,40.333H435.4V442.094H422.025Zm0-100.538H435.4V341.555H422.025Zm0,20.068H435.4V361.624H422.025Zm0,20.068H435.4V381.692H422.025ZM381.889,375h13.379V361.624H381.889Zm0-100.342h13.379V261.282H381.889Zm0,20.068h13.379V281.35H381.889Zm0-120.607h13.379V160.743H381.889Zm0,80.47h13.379V241.214H381.889ZM401.957,314.8h13.379V301.419H401.957Zm-20.068-80.47h13.379V220.948H381.889Zm0-20.068h13.379V200.88H381.889Zm0,100.538h13.379V301.419H381.889Zm0,80.273h13.379V381.692H381.889Zm0,20.068h13.379V401.76H381.889Zm0,20.068h13.379V421.829H381.889Zm40.137-241.017H435.4V180.812H422.025ZM381.889,354.934h13.379V341.555H381.889Zm0-20.068h13.379V321.487H381.889Zm0-140.675h13.379V180.812H381.889Zm20.068,200.88h13.379V381.692H401.957Zm0,40.137h13.379V421.829H401.957Zm0-60.205h13.379V361.624H401.957Zm0,40.137h13.379V401.76H401.957Zm0-60.2h13.379V341.555H401.957Zm0-20.068h13.379V321.487H401.957ZM381.889,73.781h13.379V60.4H381.889Zm0,60.205h13.379V120.607H381.889Zm0-40.137h13.379V80.47H381.889Zm0-40.333h13.379V40.137H381.889Zm20.068,522.367h13.379V562.5H401.957Zm0-120.41h13.379V442.094H401.957Zm0,20.068h13.379V462.162H401.957Zm0-180.812h13.379V281.35H401.957Zm60.2,40.137h13.379V321.487H462.162Zm0-20.068h13.379V301.419H462.162Zm0,40.137h13.379V341.555H462.162Zm0-120.607h13.379V220.948H462.162Zm0-20.068h13.379V200.88H462.162Zm0,80.47h13.379V281.35H462.162Zm0,80.273h13.379V361.624H462.162Zm0,60.205h13.379V421.829H462.162Zm0,40.333h13.379V462.162H462.162Zm0-20.068h13.379V442.094H462.162Zm80.47-200.88h13.379V241.214H542.632Zm-80.47,160.547h13.379V401.76H462.162Zm0-220.948h13.379V180.812H462.162Zm0,200.88h13.379V381.692H462.162Zm0-321.29h13.379V60.4H462.162Zm20.265,662.845h13.379V723.247H482.427Zm0-40.137h13.379V683.11H482.427Zm0,20.068h13.379V703.179H482.427Zm0-40.137h13.379V663.042H482.427Zm0-40.333h13.379V622.709H482.427Zm0-100.342h13.379V522.367H482.427ZM462.162,154.054h13.379V140.675H462.162Zm0-120.607h13.379V20.068H462.162Zm0,60.4h13.379V80.47H462.162Zm0,80.273h13.379V160.743H462.162Zm0-40.137h13.379V120.607H462.162Zm0-80.47h13.379V40.137H462.162Zm0,482.23h13.379V522.367H462.162ZM442.094,435.207h13.379V421.829H442.094Zm0-80.273h13.379V341.555H442.094Zm0,220.949h13.379V562.5H442.094Zm0-20.068h13.379V542.435H442.094Zm0-100.342h13.379V442.094H442.094Zm-20.068-281.35H435.4V160.743H422.025Zm20.068,220.948h13.379V381.692H442.094Zm0,20.068h13.379V401.76H442.094Zm0,60.4h13.379V462.162H442.094Zm0,120.41h13.379V582.572H442.094ZM422.025,73.781H435.4V60.4H422.025Zm0,80.273H435.4V140.675H422.025Zm0-60.205H435.4V80.47H422.025Zm0-40.333H435.4V40.137H422.025Zm20.068,562.5h13.379V602.64H442.094Zm20.068,0h13.379V602.64H462.162Zm-20.068-562.5h13.379V40.137H442.094Zm0-20.068h13.379V20.068H442.094Zm0,40.333h13.379V60.4H442.094Zm20.068,522.17h13.379V582.572H462.162Zm-20.068-502.1h13.379V80.47H442.094Zm20.068,542.239h13.379V622.709H462.162ZM442.094,334.866h13.379V321.487H442.094Zm0-120.607h13.379V200.88H442.094Zm0,80.47h13.379V281.35H442.094Zm0,20.068h13.379V301.419H442.094Zm0-180.812h13.379V120.607H442.094Zm0,60.205h13.379V180.812H442.094Zm0-40.137h13.379V140.675H442.094ZM562.7,676.421h13.379V663.042H562.7ZM683.307,836.968h13.379V823.589H683.307ZM663.239,133.986h13.379V120.607H663.239Zm0-40.137h13.379V80.47H663.239Zm0-60.4h13.379V20.068H663.239Zm0,40.333h13.379V60.4H663.239Zm0,80.273h13.379V140.675H663.239Zm0-100.538h13.379V40.137H663.239Zm0,60.4h13.379V100.538H663.239Zm0,120.41h13.379V220.948H663.239Zm0,20.265h13.379V241.214H663.239Zm0,482.034h13.379V723.247H663.239Zm0-562.5h13.379V160.743H663.239Zm0,20.068h13.379V180.812H663.239Zm0,20.068h13.379V200.88H663.239Zm0,502.3h13.379V703.179H663.239Zm20.068-522.367h13.379V180.812H683.307Zm0-60.205h13.379V120.607H683.307Zm0,40.137h13.379V160.743H683.307Zm0-20.068h13.379V140.675H683.307Zm0-60.205h13.379V80.47H683.307Zm0,20.068h13.379V100.538H683.307Zm0,622.709h13.379V723.247H683.307Zm0,20.068h13.379V743.315H683.307Zm0,20.068h13.379V763.384H683.307Zm0,20.068h13.379V783.452H683.307Zm-140.675-562.5h13.379V220.948H542.632Zm140.675,482.23h13.379V703.179H683.307Zm0,100.342h13.379V803.521H683.307Zm-40.137,0h13.379V803.521H643.171Zm0-40.137h13.379V763.384H643.171Zm20.068-20.068h13.379V743.315H663.239Zm-20.068-40.137h13.379V703.179H643.171Zm0,20.068h13.379V723.247H643.171ZM623.1,73.781h13.379V60.4H623.1Zm20.068,140.478h13.379V200.88H643.171Zm0,20.068h13.379V220.948H643.171Zm0,522.367h13.379V743.315H643.171Zm0,100.538h13.379V843.854H643.171ZM623.1,33.447h13.379V20.068H623.1Zm0,20.068h13.379V40.137H623.1Zm20.068,743.315h13.379V783.452H643.171Zm0,40.137h13.379V823.589H643.171ZM683.307,73.781h13.379V60.4H683.307Zm-40.137,120.41h13.379V180.812H643.171Zm20.068,642.777h13.379V823.589H663.239Zm0-20.068h13.379V803.521H663.239Zm0,40.333h13.379V843.854H663.239ZM643.171,174.122h13.379V160.743H643.171Zm0-140.675h13.379V20.068H643.171Zm20.068,763.384h13.379V783.452H663.239Zm0-20.068h13.379V763.384H663.239ZM643.171,113.917h13.379V100.538H643.171Zm0,20.068h13.379V120.607H643.171Zm0,20.068h13.379V140.675H643.171Zm0-100.538h13.379V40.137H643.171Zm0,40.333h13.379V80.47H643.171Zm0-20.068h13.379V60.4H643.171Zm0,622.709h13.379V683.11H643.171ZM763.777,93.849h13.379V80.47H763.777Zm0-20.068h13.379V60.4H763.777Zm0,40.137h13.379V100.538H763.777Zm0-80.47h13.379V20.068H763.777Zm0-20.068h13.379V0H763.777Zm0,120.607h13.379V120.607H763.777Zm0-80.47h13.379V40.137H763.777Zm-20.265,0h13.379V40.137H743.512Zm0,20.265h13.379V60.4H743.512Zm20.265,80.273h13.379V140.675H763.777Zm20.068,60.205h13.379V200.88H783.846ZM743.512,93.849h13.379V80.47H743.512Zm0-60.4h13.379V20.068H743.512Zm0-20.068h13.379V0H743.512Zm80.47,6.689V33.447h13.379V20.068ZM803.914,93.849h13.379V80.47H803.914Zm0-20.068h13.379V60.4H803.914Zm0,120.41h13.379V180.812H803.914Zm0-80.273h13.379V100.538H803.914Zm-60.4,0h13.379V100.538H743.512Zm60.4-60.4h13.379V40.137H803.914ZM783.846,13.379h13.379V0H783.846Zm0,60.4h13.379V60.4H783.846Zm0,20.068h13.379V80.47H783.846Zm0,20.068h13.379V100.538H783.846Zm20.068,100.342h13.379V200.88H803.914ZM783.846,53.516h13.379V40.137H783.846Zm0,80.47h13.379V120.607H783.846Zm-60.4-120.607h13.379V0H723.444ZM703.376,133.986h13.379V120.607H703.376Zm0,40.137h13.379V160.743H703.376Zm0-60.205h13.379V100.538H703.376Zm0,40.137h13.379V140.675H703.376Zm0-120.607h13.379V20.068H703.376Zm0,20.068h13.379V40.137H703.376Zm0,20.265h13.379V60.4H703.376Zm0,20.068h13.379V80.47H703.376Zm-20.068-80.47h13.379V0H683.307Zm0,20.068h13.379V20.068H683.307Zm20.068,160.743h13.379V180.812H703.376Zm0,582.572h13.379V763.384H703.376Zm0-20.068h13.379V743.315H703.376Zm0-20.068h13.379V723.247H703.376Zm20.068-562.5h13.379V160.743H723.444Zm0-140.675h13.379V20.068H723.444ZM683.307,53.516h13.379V40.137H683.307Zm40.137,0h13.379V40.137H723.444Zm20.068,120.607h13.379V160.743H743.512ZM723.444,73.781h13.379V60.4H723.444Zm20.068,80.273h13.379V140.675H743.512Zm0-20.068h13.379V120.607H743.512ZM723.444,93.849h13.379V80.47H723.444Zm0,60.205h13.379V140.675H723.444Zm0,40.137h13.379V180.812H723.444ZM703.376,13.379h13.379V0H703.376Zm20.068,100.538h13.379V100.538H723.444Zm0,20.068h13.379V120.607H723.444Zm-40.137,80.273h13.379V200.88H683.307ZM562.7,194.191h13.379V180.812H562.7Zm0,20.068h13.379V200.88H562.7Zm0-160.743h13.379V40.137H562.7Zm0,201.077h13.379V241.214H562.7Zm0-180.812h13.379V60.4H562.7Zm0,20.068h13.379V80.47H562.7Zm0,301.222h13.379V381.692H562.7Zm0-160.743h13.379V220.948H562.7Zm0,40.333h13.379V261.282H562.7ZM562.7,375h13.379V361.624H562.7Zm0-40.137h13.379V321.487H562.7Zm0,20.068h13.379V341.555H562.7Zm0-60.2h13.379V281.35H562.7Zm0,20.068h13.379V301.419H562.7ZM623.1,93.849h13.379V80.47H623.1ZM582.769,816.9h13.379V803.521H582.769Zm0,20.068h13.379V823.589H582.769Zm0-40.137h13.379V783.452H582.769Zm0,60.4h13.379V843.854H582.769Zm0-100.538h13.379V743.315H582.769Zm0,20.068h13.379V763.384H582.769Zm0,100.538h13.379V863.725H582.769Zm0,60.205h13.379V924.127H582.769Zm0,20.068h13.379V944.2H582.769ZM562.7,13.379h13.379V0H562.7Zm20.068,883.99h13.379V883.991H582.769ZM562.7,33.447h13.379V20.068H562.7Zm20.068,883.991h13.379V904.059H582.769ZM562.7,957.575h13.379V944.2H562.7Zm0,40.137h13.379V984.332H562.7Zm0-20.068h13.379V964.264H562.7Zm-20.068-944.2h13.379V20.068H542.632Zm0-20.068h13.379V0H542.632ZM562.7,897.369h13.379V883.991H562.7Zm0,20.068h13.379V904.059H562.7Zm0,20.068h13.379V924.127H562.7Zm20.068-200.88h13.379V723.247H582.769ZM542.632,194.191h13.379V180.812H542.632Zm0-20.068h13.379V160.743H542.632ZM562.7,575.883h13.379V562.5H562.7ZM542.632,214.259h13.379V200.88H542.632Zm0-60.205h13.379V140.675H542.632Zm0-60.205h13.379V80.47H542.632Zm0-20.068h13.379V60.4H542.632ZM562.7,736.626h13.379V723.247H562.7ZM381.889,455.473h13.379V442.094H381.889ZM562.7,716.558h13.379V703.179H562.7Zm0,160.743h13.379V863.725H562.7Zm0-220.948h13.379V642.974H562.7Zm0-20.265h13.379V622.709H562.7Zm0,60.4h13.379V683.11H562.7Zm0,140.478h13.379V823.589H562.7Zm0-20.068h13.379V803.521H562.7Zm0,40.333h13.379V843.854H562.7Zm0-100.538h13.379V743.315H562.7Zm0,40.137h13.379V783.452H562.7Zm0-20.068h13.379V763.384H562.7Zm0-602.64h13.379V160.743H562.7Zm60.4,743.315h13.379V904.059H623.1ZM602.837,33.447h13.379V20.068H602.837Zm0,20.068h13.379V40.137H602.837Zm0,622.905h13.379V663.042H602.837ZM623.1,857.233h13.379V843.854H623.1Zm0,40.137h13.379V883.991H623.1ZM602.837,73.781h13.379V60.4H602.837Zm0,261.085h13.379V321.487H602.837Zm0-20.068h13.379V301.419H602.837ZM623.1,836.968h13.379V823.589H623.1ZM602.837,656.353h13.379V642.974H602.837Zm0-542.435h13.379V100.538H602.837Zm0,180.812h13.379V281.35H602.837Zm0-200.88h13.379V80.47H602.837ZM623.1,877.3h13.379V863.725H623.1ZM582.769,716.558h13.379V703.179H582.769Zm40.333-562.5h13.379V140.675H623.1Zm0,502.3h13.379V642.974H623.1Zm0-522.367h13.379V120.607H623.1Zm0-20.068h13.379V100.538H623.1Zm0,562.5h13.379V663.042H623.1Zm0,60.205h13.379V723.247H623.1Zm0-40.137h13.379V683.11H623.1Zm0,80.273h13.379V763.384H623.1Zm0,20.068h13.379V783.452H623.1Zm0-40.137h13.379V743.315H623.1Zm0-40.137h13.379V703.179H623.1Zm0,100.342h13.379V803.521H623.1Zm0-622.709h13.379V180.812H623.1ZM582.769,354.934h13.379V341.555H582.769Zm0-301.419h13.379V40.137H582.769Zm0,281.35h13.379V321.487H582.769Zm0-40.137h13.379V281.35H582.769Zm0-220.948h13.379V60.4H582.769Zm0,200.88h13.379V261.282H582.769Zm0-180.812h13.379V80.47H582.769Zm0,220.948h13.379V301.419H582.769Zm0,361.624h13.379V663.042H582.769Zm0-20.068h13.379V642.974H582.769Zm0,40.137h13.379V683.11H582.769Zm0-100.538h13.379V582.572H582.769Zm0,40.137h13.379V622.709H582.769Zm0-261.085h13.379V361.624H582.769Zm20.068,441.9h13.379V803.521H602.837Zm0-120.41h13.379V683.11H602.837ZM582.769,33.447h13.379V20.068H582.769Zm20.068,763.384h13.379V783.452H602.837Zm0-20.068h13.379V763.384H602.837Zm0-60.205h13.379V703.179H602.837Zm0,20.068h13.379V723.247H602.837Zm0,20.068h13.379V743.315H602.837Zm0,160.743h13.379V904.059H602.837Zm0-20.068h13.379V883.991H602.837Zm0,40.137h13.379V924.127H602.837Zm0-100.539h13.379V823.589H602.837Zm0,40.333h13.379V863.725H602.837Zm0-20.068h13.379V843.854H602.837ZM401.957,194.191h13.379V180.812H401.957ZM1669.213,937.506h13.379V924.127h-13.379ZM1649.145,93.849h13.379V80.47h-13.379Zm20.068,903.862h13.379V984.332h-13.379Zm0-140.478h13.379V843.854h-13.379Zm0,60.2h13.379V904.059h-13.379Zm0-40.137h13.379V863.725h-13.379Zm0,20.068h13.379V883.991h-13.379Zm0,80.273h13.379V964.264h-13.379Zm-20.068-863.725h13.379V100.538h-13.379Zm0,60.205h13.379V160.743h-13.379Zm0,40.137h13.379V200.88h-13.379Zm0-20.068h13.379V180.812h-13.379Zm0-40.137h13.379V140.675h-13.379Zm0-20.068h13.379V120.607h-13.379Zm40.136,783.452h13.379V904.059h-13.379Zm-20.068-743.315h13.379V160.743h-13.379Zm0-20.068h13.379V140.675h-13.379Zm20.068,783.452h13.379V924.127h-13.379Zm-20.068-803.521h13.379V120.607h-13.379Zm-20.068,100.342h13.379V220.948h-13.379Zm40.136,663.042h13.379V883.991h-13.379Zm-20.068-663.042h13.379V220.948h-13.379Zm0,522.367h13.379V743.315h-13.379Zm0-20.068h13.379V723.247h-13.379Zm0,80.273h13.379V803.521h-13.379Zm0-602.64h13.379V200.88h-13.379Zm0,622.709h13.379V823.589h-13.379Zm0-642.777h13.379V180.812h-13.379Zm-20.068,743.315h13.379V924.127h-13.379ZM1629.077,93.849h13.379V80.47h-13.379Zm0,20.068h13.379V100.538h-13.379Zm0,20.068h13.379V120.607h-13.379Zm20.069,783.452h13.379V904.059h-13.379Zm-20.069-763.384h13.379V140.675h-13.379ZM1689.282,877.3h13.379V863.725h-13.379Zm-40.136,80.273h13.379V944.2h-13.379Zm-20.069-702.982h13.379V241.214h-13.379Zm20.069,642.777h13.379V883.991h-13.379Zm-20.069-723.247h13.379V160.743h-13.379Zm0,60.2h13.379V220.948h-13.379Zm0,40.333h13.379V261.282h-13.379Zm0-80.47h13.379V180.812h-13.379Zm0,20.068h13.379V200.88h-13.379Zm20.069,120.607h13.379V321.487h-13.379Zm0,542.435h13.379V863.725h-13.379Zm0-462.162h13.379V401.76h-13.379Zm0-60.2h13.379V341.555h-13.379Zm0-40.137h13.379V301.419h-13.379Zm0,401.76h13.379V703.179h-13.379Zm0-461.965h13.379V241.214h-13.379Zm0,140.478h13.379V381.692h-13.379Zm0,421.829h13.379V803.521h-13.379Zm0,20.068h13.379V823.589h-13.379Zm0,20.265h13.379V843.854h-13.379Zm0-60.4h13.379V783.452h-13.379Zm0-20.068h13.379V763.384h-13.379Zm0-40.137h13.379V723.247h-13.379ZM1789.82,836.968H1803.2V823.589H1789.82Zm-20.068-582.375h13.379V241.214h-13.379Zm0-40.333h13.379V200.88h-13.379Zm0,20.068h13.379V220.948h-13.379Zm0-40.137h13.379V180.812h-13.379Zm20.068,803.521H1803.2V984.332H1789.82Zm-40.137-723.05h13.379V261.282h-13.379Zm40.137,743.119H1803.2V1004.4H1789.82Zm-40.137-863.725h13.379V140.675h-13.379Zm0,60.205h13.379V200.88h-13.379Zm-120.607,80.47h13.379V281.35h-13.379Zm120.607-40.137h13.379V241.214h-13.379Zm0-20.265h13.379V220.948h-13.379Zm0-40.137h13.379V180.812h-13.379Zm0-20.068h13.379V160.743h-13.379Zm20.068,0h13.379V160.743h-13.379Zm40.137,40.137h13.379V200.88h-13.379Zm0,723.247h13.379V924.127h-13.379Zm0-622.709h13.379V301.419h-13.379Zm0-80.47h13.379V220.948h-13.379Zm0-60.2h13.379V160.743h-13.379Zm0,20.068h13.379V180.812h-13.379Zm-20.068-40.137H1803.2V140.675H1789.82Zm20.068,823.589h13.379V964.264h-13.379ZM1789.82,214.259H1803.2V200.88H1789.82Zm0,20.068H1803.2V220.948H1789.82Zm0-40.137H1803.2V180.812H1789.82Zm0,602.64H1803.2V783.452H1789.82Zm0-622.709H1803.2V160.743H1789.82ZM1689.282,857.233h13.379V843.854h-13.379Zm60.4-562.5h13.379V281.35h-13.379Zm-40.136-60.4h13.379V220.948h-13.379Zm-20.265-80.273h13.379V140.675h-13.379Zm20.265,180.812h13.379V321.487h-13.379Zm0-80.273h13.379V241.214h-13.379Zm0,482.034h13.379V723.247h-13.379Zm-20.265-562.5h13.379V160.743h-13.379Zm0-40.137h13.379V120.607h-13.379Zm0,582.572h13.379V703.179h-13.379Zm0-461.965h13.379V241.214h-13.379Zm120.607-100.538h13.379V140.675h-13.379Zm-120.607,602.64h13.379V743.315h-13.379Zm0-522.367h13.379V220.948h-13.379Zm0-20.068h13.379V200.88h-13.379ZM1709.547,877.3h13.379V863.725h-13.379Zm20.068-683.11h13.379V180.812h-13.379Zm0,20.068h13.379V200.88h-13.379Zm-20.068,0h13.379V200.88h-13.379Zm20.068,60.4h13.379V261.282h-13.379Zm0-120.607h13.379V140.675h-13.379Zm0,20.068h13.379V160.743h-13.379Zm0,60.2h13.379V220.948h-13.379Zm-20.068-60.2h13.379V160.743h-13.379Zm0,20.068h13.379V180.812h-13.379Zm0-40.137h13.379V140.675h-13.379ZM1729.615,314.8h13.379V301.419h-13.379Zm0,421.829h13.379V723.247h-13.379Zm0-441.9h13.379V281.35h-13.379Zm-40.333-100.538h13.379V180.812h-13.379ZM1568.675,375h13.379V361.624h-13.379Zm0-20.068h13.379V341.555h-13.379Zm0,60.2h13.379V401.76h-13.379Zm0-140.478h13.379V261.282h-13.379Zm0,60.2h13.379V321.487h-13.379Zm0-40.137h13.379V281.35h-13.379Zm0,20.068h13.379V301.419h-13.379Zm0,80.273h13.379V381.692h-13.379Zm0,401.76h13.379V783.452h-13.379Zm0,20.068h13.379V803.521h-13.379Zm0-140.478h13.379V663.042h-13.379Zm0,160.547h13.379V823.589h-13.379Zm20.265-60.2h13.379V763.384H1588.94Zm-20.265-80.273h13.379V683.11h-13.379ZM1588.94,816.9h13.379V803.521H1588.94Zm0,20.068h13.379V823.589H1588.94Zm0,20.265h13.379V843.854H1588.94Zm0,20.068h13.379V863.725H1588.94Zm-20.265-20.068h13.379V843.854h-13.379Zm20.265,40.137h13.379V883.991H1588.94Zm0-100.538h13.379V783.452H1588.94Zm-20.265-542.239h13.379V241.214h-13.379Zm0-40.333h13.379V200.88h-13.379Zm0-20.068h13.379V180.812h-13.379Zm0,40.137h13.379V220.948h-13.379Zm0-60.2h13.379V160.743h-13.379Zm0-20.068h13.379V140.675h-13.379Zm0-20.068h13.379V120.607h-13.379Zm0,582.572h13.379V703.179h-13.379Zm0,160.743h13.379V863.725h-13.379Zm-20.068-241.214h13.379V622.709h-13.379Zm0,80.47h13.379V703.179h-13.379Zm0-120.607h13.379V582.572h-13.379Zm0-220.948h13.379V361.624h-13.379Zm0,20.068h13.379V381.692h-13.379Zm0,20.068h13.379V401.76h-13.379Zm0,462.162h13.379V863.725h-13.379Zm0,20.068h13.379V883.991h-13.379Zm0-542.435h13.379V341.555h-13.379Zm0,562.5h13.379V904.059h-13.379Zm0-60.2h13.379V843.854h-13.379Zm0-20.265h13.379V823.589h-13.379Zm0-20.068h13.379V803.521h-13.379Zm0-60.205h13.379V743.315h-13.379Zm0-602.64h13.379V140.675h-13.379Zm80.47,160.743h13.379V301.419h-13.379Zm-80.47-140.675h13.379V160.743h-13.379Zm0-40.137h13.379V120.607h-13.379Zm0-20.068h13.379V100.538h-13.379Zm20.068,783.452h13.379V883.991h-13.379Zm-20.068-663.042h13.379V220.948h-13.379Zm0,60.4h13.379V281.35h-13.379Zm0-20.068h13.379V261.282h-13.379Zm0,40.137h13.379V301.419h-13.379Zm0,20.068h13.379V321.487h-13.379Zm0-80.273h13.379V241.214h-13.379Zm0-40.333h13.379V200.88h-13.379Zm0-20.068h13.379V180.812h-13.379Zm60.4-20.068h13.379V160.743h-13.379Zm0,20.068h13.379V180.812h-13.379Zm0,20.068h13.379V200.88h-13.379Zm0,20.068h13.379V220.948h-13.379Zm0-80.273h13.379V140.675h-13.379Zm20.068,783.452h13.379V924.127h-13.379Zm-20.068-803.521h13.379V120.607h-13.379Zm0,220.948h13.379V341.555h-13.379Zm0-40.137h13.379V301.419h-13.379Zm0-60.205h13.379V241.214h-13.379Zm20.068,662.845h13.379V904.059h-13.379Zm-20.068-582.572h13.379V321.487h-13.379Zm0-60.2h13.379V261.282h-13.379Zm0,20.068h13.379V281.35h-13.379Zm20.068,160.743h13.379V442.094h-13.379Zm0-20.265h13.379V421.829h-13.379ZM1588.94,736.626h13.379V723.247H1588.94Zm40.136-321.487h13.379V401.76h-13.379Zm0,301.419h13.379V703.179h-13.379Zm0-361.624h13.379V341.555h-13.379Zm0,542.435h13.379V883.991h-13.379Zm0-562.5h13.379V321.487h-13.379Zm0,522.367h13.379V843.854h-13.379Zm0-20.265h13.379V823.589h-13.379Zm0,40.333h13.379V863.725h-13.379Zm0-80.47h13.379V783.452h-13.379Zm0,20.068h13.379V803.521h-13.379Zm0-80.273h13.379V723.247h-13.379ZM1609.008,375h13.379V361.624h-13.379ZM1588.94,274.661h13.379V261.282H1588.94Zm0,20.068h13.379V281.35H1588.94Zm0-40.137h13.379V241.214H1588.94Zm0,60.205h13.379V301.419H1588.94Zm0-80.47h13.379V220.948H1588.94Zm0-40.137h13.379V180.812H1588.94Zm0,20.068h13.379V200.88H1588.94Zm0,140.675h13.379V341.555H1588.94Zm0,120.607h13.379V462.162H1588.94Zm0,220.948h13.379V683.11H1588.94Zm0-241.017h13.379V442.094H1588.94Zm0-281.35h13.379V160.743H1588.94Zm0,160.743h13.379V321.487H1588.94Zm0,40.137h13.379V361.624H1588.94Zm20.068,542.435h13.379V904.059h-13.379Zm0-180.812h13.379V723.247h-13.379Zm0,60.2h13.379V783.452h-13.379Zm0-80.273h13.379V703.179h-13.379Zm0,60.205h13.379V763.384h-13.379Zm0-341.555h13.379V421.829h-13.379Zm0,20.265h13.379V442.094h-13.379Zm0,441.9h13.379V883.991h-13.379Zm0-80.47h13.379V803.521h-13.379Zm0,60.4h13.379V863.725h-13.379Zm0-482.23h13.379V381.692h-13.379ZM1588.94,154.054h13.379V140.675H1588.94Zm20.068,682.914h13.379V823.589h-13.379Zm0,20.265h13.379V843.854h-13.379ZM281.35,314.8h13.379V301.419H281.35Zm20.068-60.205H314.8V241.214H301.419Zm0,20.068H314.8V261.282H301.419Zm0,20.068H314.8V281.35H301.419Zm0-80.47H314.8V200.88H301.419Zm0-60.205H314.8V140.675H301.419Zm0,20.068H314.8V160.743H301.419Zm0,20.068H314.8V180.812H301.419Zm0,220.948H314.8V401.76H301.419Zm0-20.068H314.8V381.692H301.419Zm0-80.273H314.8V301.419H301.419Zm0,60.2H314.8V361.624H301.419Zm0-241.017H314.8V120.607H301.419Zm0,200.88H314.8V321.487H301.419Zm0,20.068H314.8V341.555H301.419Zm20.068,120.607h13.379V462.162H321.487Zm0-120.607h13.379V341.555H321.487Zm0,20.068h13.379V361.624H321.487Zm0-40.137,13.379,127.3V321.487H321.487Zm0,60.205h13.379V381.692H321.487Zm0-80.273h13.379V301.419H321.487Zm0-20.068h13.379V281.35H321.487Zm0,160.743h13.379V442.094H321.487Zm0,40.137h13.379V482.034H321.487Zm0-80.47h13.379V401.76H321.487Zm0,100.539h13.379V502.3H321.487Zm-20.068-80.47H314.8V421.829H301.419Zm20.068,0h13.379V421.829H321.487ZM301.419,93.849H314.8V80.47H301.419ZM281.35,375h13.379V361.624H281.35Zm0,80.47h13.379V442.094H281.35Zm0-20.265h13.379V421.829H281.35Zm100.538,40.333h13.379V462.162H381.889Zm-100.538-60.4h13.379V401.76H281.35Zm40.137-140.478h13.379V261.282H321.487Zm-40.137,60.2h13.379V321.487H281.35Zm0,20.068h13.379V341.555H281.35Zm0,40.137h13.379V381.692H281.35Zm-20.068-200.88h13.379V180.812H261.282Zm0,20.068h13.379V200.88H261.282Zm0-40.137h13.379V160.743H261.282Zm0-80.273h13.379V80.47H261.282Zm0,40.137h13.379V120.607H261.282Zm0-20.068h13.379V100.538H261.282Zm0,120.41h13.379V220.948H261.282Zm40.137,221.145H314.8V442.094H301.419ZM281.35,133.986h13.379V120.607H281.35Zm0-40.137h13.379V80.47H281.35Zm0,60.205h13.379V140.675H281.35Zm20.068,321.487H314.8V462.162H301.419ZM281.35,73.781h13.379V60.4H281.35Zm0,120.41h13.379V180.812H281.35Zm0,60.4h13.379V241.214H281.35Zm0,20.068h13.379V261.282H281.35Zm0-40.333h13.379V220.948H281.35Zm0,60.4h13.379V281.35H281.35Zm0-120.607h13.379V160.743H281.35Zm0,40.137h13.379V200.88H281.35Zm0-100.342h13.379V100.538H281.35ZM361.82,375H375.2V361.624H361.82Zm0-20.068H375.2V341.555H361.82Zm0,60.2H375.2V401.76H361.82Zm0-20.068H375.2V381.692H361.82Zm0-100.342H375.2V281.35H361.82Zm0,40.137H375.2V321.487H361.82Zm0-20.068H375.2V301.419H361.82Zm0-40.137H375.2V261.282H361.82Zm0,241.017H375.2V502.3H361.82Zm0,20.068H375.2V522.367H361.82Zm0-40.137H375.2V482.034H361.82Zm0-60.4H375.2V421.829H361.82Zm0,120.607H375.2V542.435H361.82Zm0-100.342H375.2V442.094H361.82Zm0,20.068H375.2V462.162H361.82Zm20.068,80.273h13.379V542.435H381.889Zm0,20.068h13.379V562.5H381.889Zm0-40.137h13.379V522.367H381.889ZM361.82,93.849H375.2V80.47H361.82Zm20.068,421.829h13.379V502.3H381.889Zm0-20.068h13.379V482.034H381.889ZM361.82,214.259H375.2V200.88H361.82Zm0,40.333H375.2V241.214H361.82Zm0-120.607H375.2V120.607H361.82Zm0,60.205H375.2V180.812H361.82Zm0,40.137H375.2V220.948H361.82Zm0-80.273H375.2V140.675H361.82Zm0,20.068H375.2V160.743H361.82Zm-40.333-20.068h13.379V140.675H321.487Zm20.068,361.624h13.379V502.3H341.555Zm0,20.068h13.379V522.367H341.555Zm0-40.137h13.379V482.034H341.555Zm0-20.068h13.379V462.162H341.555ZM321.487,93.849h13.379V80.47H321.487Zm20.068,341.358h13.379V421.829H341.555Zm0,20.265h13.379V442.094H341.555ZM321.487,214.259h13.379V200.88H321.487Zm20.068,200.88h13.379V401.76H341.555ZM321.487,194.191h13.379V180.812H321.487Zm0,40.137h13.379V220.948H321.487Zm0,20.265h13.379V241.214H321.487Zm0-120.607h13.379V120.607H321.487Zm0,40.137h13.379V160.743H321.487Zm20.068,180.812h13.379V341.555H341.555Zm0,40.137h13.379V381.692H341.555Zm0-160.743h13.379V220.948H341.555Zm0,20.265h13.379V241.214H341.555Zm0-60.4h13.379V180.812H341.555Zm0-40.137h13.379V140.675H341.555Zm0,20.068h13.379V160.743H341.555Zm0,40.137h13.379V200.88H341.555Zm0,60.4h13.379V261.282H341.555Zm0,60.2h13.379V321.487H341.555Zm0,40.137h13.379V361.624H341.555Zm0-241.017h13.379V120.607H341.555Zm0,160.743h13.379V281.35H341.555Zm0,20.068h13.379V301.419H341.555ZM221.145,154.054h13.379V140.675H221.145ZM100.538,254.592h13.379V241.214H100.538ZM80.47,234.327H93.849V220.948H80.47Zm0,321.487H93.849V542.435H80.47Zm0-301.222H93.849V241.214H80.47Zm0-100.538H93.849V140.675H80.47Zm0,20.068H93.849V160.743H80.47Zm0,20.068H93.849V180.812H80.47Zm0,20.068H93.849V200.88H80.47ZM60.205,154.054H73.584V140.675H60.205Zm0,60.205H73.584V200.88H60.205Zm0,40.333H73.584V241.214H60.205Zm0-20.265H73.584V220.948H60.205Zm0-40.137H73.584V180.812H60.205Zm0-20.068H73.584V160.743H60.205Zm80.47,60.2h13.379V220.948H140.675Zm-20.068-20.068h13.379V200.88H120.607Zm0-20.068h13.379V180.812H120.607Zm0-40.137h13.379V140.675H120.607Zm0,20.068h13.379V160.743H120.607Zm20.068,80.47h13.379V241.214H140.675Zm-80.47,20.068H73.584V261.282H60.205Zm40.333-80.47h13.379V180.812H100.538Zm0,40.137h13.379V220.948H100.538Zm0-20.068h13.379V200.88H100.538Zm0-40.137h13.379V160.743H100.538Zm40.137,40.137h13.379V200.88H140.675Zm-20.068,20.068h13.379V220.948H120.607Zm-20.068-80.273h13.379V140.675H100.538Zm20.068,100.538h13.379V241.214H120.607ZM1850.222,314.8H1863.6V301.419h-13.379Zm0-120.607H1863.6V180.812h-13.379Zm0,602.64H1863.6V783.452h-13.379Zm0-622.709H1863.6V160.743h-13.379Zm20.068,0h13.379V160.743H1870.29Zm20.068,80.47h13.379V241.214h-13.379Zm-60.4-80.47h13.379V160.743h-13.379Zm40.333,20.068h13.379V180.812H1870.29ZM1829.957,314.8h13.379V301.419h-13.379Zm0,622.709h13.379V924.127h-13.379ZM261.282,254.592h13.379V241.214H261.282ZM1829.957,957.575h13.379V944.2h-13.379Zm0-743.316h13.379V200.88h-13.379Zm0,20.068h13.379V220.948h-13.379ZM40.137,214.259H53.516V200.88H40.137v13.379Zm0,40.333H53.516V241.214H40.137v13.379Zm0,281.153H53.516V522.367H40.137v13.379Zm0-301.419H53.516V220.948H40.137v13.379Zm0,60.4H53.516V281.35H40.137v13.379Zm0-120.607H53.516V160.743H40.137v13.379Zm0,20.068H53.516V180.812H40.137v13.379ZM20.068,214.259H33.447V200.88H20.068Zm0,20.068H33.447V220.948H20.068Zm0,60.4H33.447V281.35H20.068ZM0,314.8H13.379V301.419H0ZM1890.359,194.191h13.379V180.812h-13.379ZM20.068,174.122H33.447V160.743H20.068Zm0,20.068H33.447V180.812H20.068Zm1809.888,0h13.379V180.812h-13.379ZM241.214,314.8h13.379V301.419H241.214V314.8Zm0,20.068h13.379V321.487H241.214v13.379Zm0,20.068h13.379V341.555H241.214v13.379Zm0-140.675h13.379V200.88H241.214v13.379Zm0,20.068h13.379V220.948H241.214v13.379Zm0,40.333h13.379V261.282H241.214v13.379Zm0-20.068h13.379V241.214H241.214v13.379Zm0,40.137h13.379V281.35H241.214v13.379ZM221.145,174.122h13.379V160.743H221.145Zm0,20.068h13.379V180.812H221.145ZM1829.957,977.643h13.379V964.264h-13.379ZM241.214,395.071h13.379V381.692H241.214v13.379Zm0-20.068h13.379V361.624H241.214V375Zm0,40.137h13.379V401.76H241.214v13.379Zm0-261.085h13.379V140.675H241.214v13.379Zm0,40.137h13.379V180.812H241.214v13.379Zm20.068,160.743h13.379V341.555H261.282ZM140.675,194.191h13.379V180.812H140.675ZM261.282,334.866h13.379V321.487H261.282Zm0-40.137h13.379V281.35H261.282Zm0-20.068h13.379V261.282H261.282Zm0,100.342h13.379V361.624H261.282ZM241.214,93.849h13.379V80.47H241.214V93.849Zm-20.068,120.41h13.379V200.88H221.145Zm20.068-40.137h13.379V160.743H241.214v13.379Zm20.068,241.017h13.379V401.76H261.282Zm0,20.068h13.379V421.829H261.282Zm0-40.137h13.379V381.692H261.282Zm0-80.273h13.379V301.419H261.282Zm-80.47-60.205h13.379V241.214H180.812Zm0,20.068h13.379V261.282H180.812ZM160.743,154.054h13.379V140.675H160.743Zm20.068,60.205h13.379V200.88H180.812Zm0,20.068h13.379V220.948H180.812Zm-20.068-60.2h13.379V160.743H160.743Zm0,60.2h13.379V220.948H160.743Zm-20.068-80.273h13.379V140.675H140.675Zm20.068,100.538h13.379V241.214H160.743Zm-20.068-80.47h13.379V160.743H140.675Zm20.068,20.068h13.379V180.812H160.743Zm20.068,0h13.379V180.812H180.812Zm-20.068,20.068h13.379V200.88H160.743Zm60.4,40.333h13.379V241.214H221.145Zm0,60.205h13.379V301.419H221.145Zm0,20.068h13.379V321.487H221.145Zm0-40.137h13.379V281.35H221.145Zm0-60.4h13.379V220.948H221.145Zm0,40.333h13.379V261.282H221.145ZM200.88,174.122h13.379V160.743H200.88Zm0,140.675h13.379V301.419H200.88Zm0-60.205h13.379V241.214H200.88Zm0,20.068h13.379V261.282H200.88ZM180.812,174.122h13.379V160.743H180.812Zm20.068,40.137h13.379V200.88H200.88Zm0-20.068h13.379V180.812H200.88Zm0,40.137h13.379V220.948H200.88Z" transform="translate(264 1511)"/>
      <circle id="Ellipse_5283" data-name="Ellipse 5283" class="cls-2" cx="8.932" cy="8.932" r="8.932" transform="translate(491.121 1668.099)"/>
      <circle id="Ellipse_5286" data-name="Ellipse 5286" class="cls-3" cx="14.036" cy="14.036" r="14.036" transform="translate(1743.825 1691.145)"/>
      <circle id="Ellipse_5287" data-name="Ellipse 5287" class="cls-4" cx="11.484" cy="11.484" r="11.484" transform="translate(1928.954 1950.532)"/>
      <circle id="Ellipse_5288" data-name="Ellipse 5288" class="cls-5" cx="17.863" cy="17.863" r="17.863" transform="translate(1973.499 1675.834)"/>
      <circle id="Ellipse_5289" data-name="Ellipse 5289" class="cls-6" cx="16.588" cy="16.588" r="16.588" transform="translate(759.074 1737.001)"/>
      <circle id="Ellipse_5290" data-name="Ellipse 5290" class="cls-7" cx="16.588" cy="16.588" r="16.588" transform="translate(580.439 1966.675)"/>
      <circle id="Ellipse_5291" data-name="Ellipse 5291" class="cls-8" cx="16.588" cy="16.588" r="16.588" transform="translate(733.555 2043.232)"/>
      <circle id="Ellipse_5292" data-name="Ellipse 5292" class="cls-8" cx="11.484" cy="11.484" r="11.484" transform="translate(784.593 2181.037)"/>
      <circle id="Ellipse_5293" data-name="Ellipse 5293" class="cls-8" cx="12.76" cy="12.76" r="12.76" transform="translate(766.73 2382.639)"/>
      <circle id="Ellipse_5294" data-name="Ellipse 5294" class="cls-8" cx="11.484" cy="11.484" r="11.484" transform="translate(886.67 2232.075)"/>
      <circle id="Ellipse_5299" data-name="Ellipse 5299" class="cls-8" cx="11.484" cy="11.484" r="11.484" transform="translate(1935.512 2344.36)"/>
      <circle id="Ellipse_5300" data-name="Ellipse 5300" class="cls-8" cx="11.484" cy="11.484" r="11.484" transform="translate(2088.627 2420.917)"/>
      <circle id="Ellipse_5301" data-name="Ellipse 5301" class="cls-8" cx="11.484" cy="11.484" r="11.484" transform="translate(1884.474 2165.725)"/>
      <circle id="Ellipse_5302" data-name="Ellipse 5302" class="cls-8" cx="11.484" cy="11.484" r="11.484" transform="translate(1654.8 2038.129)"/>
      <circle id="Ellipse_5303" data-name="Ellipse 5303" class="cls-8" cx="11.484" cy="11.484" r="11.484" transform="translate(1578.242 1961.571)"/>
      <circle id="Ellipse_5304" data-name="Ellipse 5304" class="cls-8" cx="11.484" cy="11.484" r="11.484" transform="translate(1680.319 2191.244)"/>
      <circle id="Ellipse_5305" data-name="Ellipse 5305" class="cls-8" cx="11.484" cy="11.484" r="11.484" transform="translate(1756.877 1987.09)"/>
      <circle id="Ellipse_5306" data-name="Ellipse 5306" class="cls-8" cx="12.76" cy="12.76" r="12.76" transform="translate(843.287 2408.158)"/>
      <circle id="Ellipse_5307" data-name="Ellipse 5307" class="cls-8" cx="12.76" cy="12.76" r="12.76" transform="translate(1328.154 2306.081)"/>
      <circle id="Ellipse_5308" data-name="Ellipse 5308" class="cls-8" cx="11.484" cy="11.484" r="11.484" transform="translate(1323.05 2165.725)"/>
      <circle id="Ellipse_5312" data-name="Ellipse 5312" class="cls-8" cx="8.932" cy="8.932" r="8.932" transform="translate(1072.753 1700.443)"/>
      <circle id="Ellipse_5354" data-name="Ellipse 5354" class="cls-8" cx="4.932" cy="4.932" r="4.932" transform="translate(1122.753 1727.443)"/>
      <circle id="Ellipse_5356" data-name="Ellipse 5356" class="cls-8" cx="11.484" cy="11.484" r="11.484" transform="translate(1578.242 1961.571)"/>
    </g>
    <circle id="Ellipse_5355" data-name="Ellipse 5355" class="cls-9" cx="8.932" cy="8.932" r="8.932" transform="translate(1429.753 1962.443)"/>
  </g>
</svg>
